<?xml version="1.0" encoding="UTF-8"?>
<svg version="1.1" xmlns="http://www.w3.org/2000/svg" width="2083" height="796">
<path d="M0 0 C4.95 0 9.9 0 15 0 C15 74.91 15 149.82 15 227 C22.26 227 29.52 227 37 227 C36.99111755 225.1591684 36.98223511 223.31833679 36.9730835 221.42172241 C36.89205645 204.08800508 36.83182238 186.75432601 36.79275131 169.42046165 C36.77212958 160.50858324 36.74401644 151.59684624 36.69824219 142.68505859 C36.65836248 134.91717421 36.63256436 127.14939225 36.62364602 119.38140833 C36.61843317 115.26860222 36.60618936 111.1560891 36.57707977 107.04337692 C36.5498926 103.17082892 36.54156157 99.2986941 36.54756927 95.42605972 C36.5464705 94.00628157 36.53853592 92.58648934 36.5231781 91.16679382 C36.38570848 77.80126763 36.38570848 77.80126763 41 73 C43.375 71.4375 43.375 71.4375 46 71 C47.98 71.99 49.96 72.98 52 74 C52 124.49 52 174.98 52 227 C70.15 227 88.3 227 107 227 C107.99 227.33 108.98 227.66 110 228 C111.48007742 232.44023226 111.1843724 236.78675298 111.1875 241.4375 C111.19974609 242.39205078 111.21199219 243.34660156 111.22460938 244.33007812 C111.22654297 245.25111328 111.22847656 246.17214844 111.23046875 247.12109375 C111.23457764 247.9608374 111.23868652 248.80058105 111.24291992 249.66577148 C111 252 111 252 109 256 C105.37 256 101.74 256 98 256 C98 291.64 98 327.28 98 364 C113.18 364.33 128.36 364.66 144 365 C147 367 147 367 148 370 C148.12040604 372.12250645 148.17533819 374.24911587 148.1875 376.375 C148.20167969 377.49648438 148.21585937 378.61796875 148.23046875 379.7734375 C148.0014489 382.97971543 147.47296065 385.15744436 146 388 C142.828262 389.585869 139.36486178 389.37866445 135.875 389.5625 C135.12089844 389.60568359 134.36679687 389.64886719 133.58984375 389.69335938 C131.72678112 389.7994832 129.86341476 389.90025001 128 390 C127.98018066 390.65597168 127.96036133 391.31194336 127.93994141 391.98779297 C127.84487493 394.95061069 127.73512248 397.91270532 127.625 400.875 C127.5940625 401.90753906 127.563125 402.94007813 127.53125 404.00390625 C127.49257813 404.99003906 127.45390625 405.97617187 127.4140625 406.9921875 C127.3826416 407.90339355 127.3512207 408.81459961 127.31884766 409.75341797 C127 412 127 412 125 414 C122.50500298 414.24609566 122.50500298 414.24609566 119.29269409 414.24050903 C118.07830658 414.24325836 116.86391907 414.24600769 115.61273193 414.24884033 C114.25988672 414.2417616 112.90704249 414.23449198 111.55419922 414.22705078 C110.13520313 414.22648688 108.71620645 414.22680282 107.29721069 414.22793579 C103.43789728 414.22851111 99.57870744 414.21672789 95.71942282 414.20278788 C91.68886022 414.19031033 87.65829499 414.18911237 83.62771606 414.18673706 C75.99207271 414.18051352 68.35648642 414.16409091 60.72086823 414.14403808 C52.02933864 414.12170623 43.33780637 414.11069249 34.64625525 414.10064721 C16.76413778 414.07972542 -1.11792653 414.0445325 -19 414 C-18.67 415.65 -18.34 417.3 -18 419 C-16.90640309 418.99723462 -16.90640309 418.99723462 -15.79071331 418.99441338 C1.93553581 418.95027639 19.66177398 418.91716393 37.38806629 418.89637566 C45.96030969 418.88605583 54.53251645 418.87198202 63.10473633 418.84912109 C70.57484276 418.82920882 78.04492265 418.81628871 85.51505488 418.81182301 C89.47173292 418.80921195 93.42833504 418.80306023 97.38498878 418.78853989 C101.10724487 418.7749901 104.82939358 418.77077206 108.55167198 418.77378464 C110.57287335 418.77296993 112.59406296 418.76219469 114.61523438 418.75115967 C115.81416824 418.753909 117.01310211 418.75665833 118.24836731 418.75949097 C119.29275876 418.75764738 120.33715021 418.75580379 121.41318989 418.75390434 C124 419 124 419 127 421 C127.28616384 423.9009991 127.37804936 426.58669325 127.34057617 429.48876953 C127.34093778 430.38110731 127.34129938 431.27344509 127.34167194 432.19282341 C127.33942752 435.08971237 127.31655791 437.98602675 127.29296875 440.8828125 C127.28855954 442.66788453 127.28549799 444.45296043 127.28381348 446.23803711 C127.26806584 452.86708378 127.22618239 459.49604749 127.1875 466.125 C127.125625 480.93375 127.06375 495.7425 127 511 C169.9 511 212.8 511 257 511 C256.92079918 477.8958416 256.92079918 477.8958416 256.81982422 444.79174805 C256.81079102 438.39416504 256.81079102 438.39416504 256.80911255 435.40071106 C256.80603814 433.30666759 256.79899737 431.2126277 256.78884888 429.11860657 C256.77425663 425.94969516 256.77218642 422.78100041 256.77294922 419.61206055 C256.76215489 418.20894513 256.76215489 418.20894513 256.7511425 416.77748394 C256.7538975 415.9253019 256.75665249 415.07311987 256.75949097 414.19511414 C256.75672559 413.08204911 256.75672559 413.08204911 256.75390434 411.94649792 C257 410 257 410 259 407 C259.66 407 260.32 407 261 407 C260.99333817 405.86882751 260.98667633 404.73765503 260.97981262 403.57220459 C260.91903313 392.91899225 260.87404253 382.26581502 260.84456348 371.61246872 C260.82889859 366.13528983 260.80764514 360.65825076 260.77368164 355.18115234 C260.74111779 349.89677809 260.72315319 344.61253843 260.71536827 339.32807159 C260.70981943 337.31060924 260.69898407 335.29315436 260.68280983 333.27574921 C260.66107522 330.45287578 260.65803143 327.63056064 260.65942383 324.80761719 C260.64324509 323.55281303 260.64324509 323.55281303 260.6267395 322.2726593 C260.64468021 318.91774644 260.7446013 316.46508771 262.37724304 313.49200439 C265.55926891 310.56636815 269.86485832 310.92733777 274 311 C277.31119615 311.89678229 278.58924949 312.58924949 281 315 C281 316.32 281 317.64 281 319 C281.61875 319.12375 282.2375 319.2475 282.875 319.375 C285 320 285 320 287 322 C289.31648799 323.03842565 291.64903024 324.0421975 294 325 C294 325.66 294 326.32 294 327 C296.64 327.33 299.28 327.66 302 328 C302 328.99 302 329.98 302 331 C303.11375 331.103125 304.2275 331.20625 305.375 331.3125 C306.57125 331.539375 307.7675 331.76625 309 332 C309.66 332.99 310.32 333.98 311 335 C312.175625 335.33 313.35125 335.66 314.5625 336 C315.696875 336.33 316.83125 336.66 318 337 C318.33 337.99 318.66 338.98 319 340 C320.134375 340.12375 321.26875 340.2475 322.4375 340.375 C323.613125 340.58125 324.78875 340.7875 326 341 C326.33 341.66 326.66 342.32 327 343 C328.155 343.33 329.31 343.66 330.5 344 C331.655 344.33 332.81 344.66 334 345 C334.33 345.66 334.66 346.32 335 347 C336.64130959 347.73691451 338.28672338 348.46626448 339.953125 349.14453125 C342.11272429 350.04711187 344.21146193 351.03115102 346.3125 352.0625 C346.96863281 352.38347656 347.62476563 352.70445312 348.30078125 353.03515625 C350 354 350 354 352 356 C353.175625 356.33 354.35125 356.66 355.5625 357 C356.696875 357.33 357.83125 357.66 359 358 C359.33 358.66 359.66 359.32 360 360 C361.99571323 360.67939174 363.99594773 361.34561559 366 362 C366.66 362.66 367.32 363.32 368 364 C370.5 364.41666667 370.5 364.41666667 373 364 C373.66 363.01 374.32 362.02 375 361 C378.625 360.3125 378.625 360.3125 382 360 C382.33 359.01 382.66 358.02 383 357 C385.31 356.67 387.62 356.34 390 356 C390.33 355.01 390.66 354.02 391 353 C393.32671854 352.31060191 395.66067594 351.64533078 398 351 C398.7734375 350.195625 398.7734375 350.195625 399.5625 349.375 C401 348 401 348 404.1875 347.8125 C405.115625 347.874375 406.04375 347.93625 407 348 C407 347.01 407 346.02 407 345 C408.11375 344.54625 409.2275 344.0925 410.375 343.625 C413.96199008 342.27534014 413.96199008 342.27534014 416 340 C416.639375 339.855625 417.27875 339.71125 417.9375 339.5625 C420.08753574 339.16613925 420.08753574 339.16613925 421.4375 337.5 C423.48639222 335.53306347 425.25489742 335.54902052 428 335 C428.495 334.505 428.99 334.01 429.5 333.5 C431 332 431 332 433.5625 331.5 C436.35862883 331.2243063 436.35862883 331.2243063 438 328 C441.625 327.3125 441.625 327.3125 445 327 C445.33 326.01 445.66 325.02 446 324 C448.32671854 323.31060191 450.66067594 322.64533078 453 322 C455.81384614 320.0906044 456.09351482 318.71453371 457.1875 315.375 C459 312 459 312 460.79296875 311.25390625 C464.96182898 310.62036464 468.26852694 310.85157612 472 313 C473.65875797 316.31751593 473.12889303 320.02597054 473.11352539 323.67236328 C473.11367142 324.56998383 473.11381744 325.46760437 473.1139679 326.39242554 C473.11326953 329.36841218 473.10548067 332.34433675 473.09765625 335.3203125 C473.0957918 337.38011643 473.09436802 339.43992081 473.09336853 341.49972534 C473.08954548 346.92817402 473.07971699 352.35659605 473.06866455 357.78503418 C473.05844588 363.32152954 473.05386993 368.85802919 473.04882812 374.39453125 C473.03809455 385.26303256 473.02102065 396.13151406 473 407 C474.423125 406.938125 474.423125 406.938125 475.875 406.875 C479 407 479 407 481 409 C481.91822327 411.7694739 482.12397818 414.29702118 482.12025452 417.20147705 C482.12162918 418.03156281 482.12300385 418.86164856 482.12442017 419.71688843 C482.12082489 420.6188797 482.11722961 421.52087097 482.11352539 422.45019531 C482.11367142 423.40662933 482.11381744 424.36306335 482.1139679 425.34848022 C482.11327148 428.50838492 482.10549174 431.6682306 482.09765625 434.828125 C482.09579111 437.01959196 482.09436766 439.21105933 482.09336853 441.40252686 C482.08955094 447.16960807 482.07972709 452.93666409 482.06866455 458.70373535 C482.05843416 464.5889451 482.05386742 470.47415892 482.04882812 476.359375 C482.03810417 487.90626285 482.02051347 499.45312539 482 511 C495.53 511 509.06 511 523 511 C522.96056088 500.12582901 522.96056088 500.12582901 522.90991211 489.25170898 C522.90698781 487.87483803 522.90444047 486.49796621 522.90234375 485.12109375 C522.89722778 484.42278442 522.89211182 483.7244751 522.88684082 483.00500488 C522.88606601 478.58471103 523.12122914 474.33769616 524 470 C527.02110008 468.48944996 530.1440258 468.85564568 533.45796204 468.85955811 C534.23610156 468.85658698 535.01424108 468.85361586 535.81596059 468.8505547 C538.43762052 468.84184531 541.05923492 468.84035757 543.6809082 468.83886719 C545.55484109 468.83424059 547.42877303 468.82921614 549.30270386 468.82382202 C554.40399776 468.81068055 559.5052785 468.80424963 564.60658669 468.79981136 C567.791668 468.79688338 570.97674569 468.79277909 574.16182518 468.78830719 C584.12133624 468.7746275 594.08083904 468.76496322 604.04035884 468.7611053 C615.54797373 468.7566236 627.05546988 468.73907245 638.56304866 468.7101047 C647.45056952 468.68850688 656.33805693 468.67840203 665.22560376 468.67706418 C670.5371352 468.67601476 675.8485551 468.67007802 681.16005898 468.65224457 C686.15622299 468.63579677 691.15219125 468.63359236 696.14837265 468.64238358 C697.98298224 468.64315572 699.8176022 468.63878789 701.65218544 468.62892532 C704.15538726 468.61625674 706.65789045 468.62205466 709.16108704 468.63250732 C709.88832971 468.62445092 710.61557239 468.61639452 711.36485273 468.60809398 C715.74022473 468.65086974 718.51205473 469.32146431 722 472 C723.73812651 475.63096365 723.12512826 480.08179317 723.09765625 484.046875 C723.0962413 484.81807678 723.09482635 485.58927856 723.09336853 486.3838501 C723.08778534 488.83927338 723.07523595 491.29460442 723.0625 493.75 C723.05748283 495.41796743 723.0529203 497.08593629 723.04882812 498.75390625 C723.03867366 502.83600136 723.01909507 506.9178978 723 511 C734.88 510.505 734.88 510.505 747 510 C747.01981934 507.02194336 747.03963867 504.04388672 747.06005859 500.97558594 C747.12691463 491.14473304 747.20455487 481.31398673 747.28752708 471.48325729 C747.33750908 465.52190231 747.38383907 459.56056522 747.421875 453.59912109 C747.45870358 447.84783125 747.50505713 442.09669036 747.55806351 436.34552765 C747.57662033 434.14948383 747.5917235 431.95340807 747.60334396 429.75731659 C747.62018419 426.68538605 747.64921424 423.61379763 747.68115234 420.54199219 C747.68331253 419.63065018 747.68547272 418.71930817 747.68769836 417.78034973 C747.69886185 416.94184982 747.71002533 416.10334991 747.7215271 415.23944092 C747.72705786 414.51306805 747.73258862 413.78669518 747.73828697 413.038311 C748.03982856 410.68980145 748.83983811 409.04857598 750 407 C750.99 407 751.98 407 753 407 C752.99333817 405.84155075 752.98667633 404.6831015 752.97981262 403.48954773 C752.91906483 392.58584853 752.87405783 381.68218356 752.84456348 370.77835369 C752.82889053 365.17223255 752.80762245 359.56624774 752.77368164 353.96020508 C752.74114644 348.55264249 752.72315927 343.14521125 752.71536827 337.73755836 C752.70981426 335.67182153 752.69896899 333.60609209 752.68280983 331.540411 C752.66111325 328.65267635 752.65802982 325.76548825 752.65942383 322.87768555 C752.64324509 321.58943626 752.64324509 321.58943626 752.6267395 320.27516174 C752.65737877 314.43080496 752.65737877 314.43080496 754.36483288 312.28388691 C757.33852157 309.94903077 760.70019198 310.54375533 764.328125 310.64453125 C767.92881749 311.12357075 769.68332812 312.21999374 772 315 C772.8125 317.25 772.8125 317.25 773 319 C774.98 319.33 776.96 319.66 779 320 C779.33 320.99 779.66 321.98 780 323 C780.94875 323.144375 781.8975 323.28875 782.875 323.4375 C786 324 786 324 788 325 C788 325.66 788 326.32 788 327 C789.010625 327.2475 790.02125 327.495 791.0625 327.75 C795.13378354 328.89660638 798.40244406 330.79741473 802 333 C802 333.66 802 334.32 802 335 C803.093125 335.103125 804.18625 335.20625 805.3125 335.3125 C809.18141612 336.03382335 809.53808718 336.3240078 812 339 C813.9959722 339.67863055 815.99568551 340.34641919 818 341 C818.33 341.66 818.66 342.32 819 343 C820.155 343.309375 821.31 343.61875 822.5 343.9375 C823.655 344.288125 824.81 344.63875 826 345 C826.33 345.99 826.66 346.98 827 348 C829.31 348.33 831.62 348.66 834 349 C834.33 349.99 834.66 350.98 835 352 C836.11375 352.103125 837.2275 352.20625 838.375 352.3125 C840.169375 352.6528125 840.169375 352.6528125 842 353 C842.66 353.99 843.32 354.98 844 356 C846.32548007 356.69356423 848.65880445 357.36149212 851 358 C851.33 358.66 851.66 359.32 852 360 C853.155 360.33 854.31 360.66 855.5 361 C856.655 361.33 857.81 361.66 859 362 C859.33 362.66 859.66 363.32 860 364 C860.7734375 363.5978125 860.7734375 363.5978125 861.5625 363.1875 C863.54971191 362.21937112 865.58246613 361.34518643 867.625 360.5 C870.99551276 359.24380662 870.99551276 359.24380662 873 357 C875 356.33333333 877 355.66666667 879 355 C879.886875 354.46375 880.77375 353.9275 881.6875 353.375 C884 352 884 352 887 352 C887.33 351.01 887.66 350.02 888 349 C890.31 348.67 892.62 348.34 895 348 C895.33 347.01 895.66 346.02 896 345 C898.32671854 344.31060191 900.66067594 343.64533078 903 343 C904.62514468 341.54166642 904.62514468 341.54166642 906 340 C907.65816784 339.31246699 909.32459336 338.64438717 911 338 C911.66 337.34 912.32 336.68 913 336 C915.31254012 334.95281202 917.6485148 333.95653635 920 333 C920.9075 332.608125 921.815 332.21625 922.75 331.8125 C925 331 925 331 928 331 C928 330.01 928 329.02 928 328 C930.64 327.67 933.28 327.34 936 327 C936 326.01 936 325.02 936 324 C938.31 323.67 940.62 323.34 943 323 C943.33 322.01 943.66 321.02 944 320 C945.65 319.67 947.3 319.34 949 319 C948.95875 318.05125 948.9175 317.1025 948.875 316.125 C949 313 949 313 951 311 C953.53125 310.76953125 953.53125 310.76953125 956.5 310.8125 C957.4796875 310.81894531 958.459375 310.82539063 959.46875 310.83203125 C962 311 962 311 964 312 C965.31221524 315.93664572 965.13088917 319.68322191 965.11352539 323.78588867 C965.11367142 324.68365524 965.11381744 325.58142181 965.1139679 326.50639343 C965.11327064 329.47694303 965.10548697 332.44743009 965.09765625 335.41796875 C965.09579141 337.47634344 965.09436782 339.53471858 965.09336853 341.59309387 C965.08954859 347.01330794 965.07972273 352.43349524 965.06866455 357.85369873 C965.05843921 363.38358193 965.0538685 368.91346945 965.04882812 374.44335938 C965.03810003 385.29558468 965.02102984 396.14779011 965 407 C967.31 407 969.62 407 972 407 C973.14695805 409.2939161 973.12338652 410.56337149 973.12025452 413.11282349 C973.12162918 413.97381653 973.12300385 414.83480957 973.12442017 415.72189331 C973.12082489 416.66847809 973.11722961 417.61506287 973.11352539 418.59033203 C973.11367142 419.58548828 973.11381744 420.58064453 973.1139679 421.60595703 C973.11326931 424.90659743 973.10547944 428.20718192 973.09765625 431.5078125 C973.09579188 433.79181894 973.09436807 436.07582578 973.09336853 438.35983276 C973.08954487 444.38011778 973.07971586 450.40037879 973.06866455 456.4206543 C973.05844718 462.56038081 973.05387021 468.70011119 973.04882812 474.83984375 C973.03809348 486.89323973 973.02101885 498.94661787 973 511 C978.61 511 984.22 511 990 511 C989.96519531 509.01355469 989.93039062 507.02710938 989.89453125 504.98046875 C989.87367013 503.05429205 989.85291571 501.12811254 989.83520508 499.2019043 C989.81271667 497.20672299 989.77459802 495.21173787 989.73632812 493.21679688 C989.72666016 491.96318359 989.71699219 490.70957031 989.70703125 489.41796875 C989.6913208 488.26063232 989.67561035 487.1032959 989.65942383 485.91088867 C990 483 990 483 991.04917908 481.34187889 C994.02773799 479.29306688 997.06455488 479.58699669 1000.55371094 479.61904907 C1001.33003246 479.6143691 1002.10635399 479.60968913 1002.90620041 479.60486734 C1005.5157641 479.59287102 1008.12480712 479.60239247 1010.734375 479.61181641 C1012.60185046 479.60775276 1014.46932351 479.60241205 1016.33679199 479.59588623 C1021.41522591 479.58218221 1026.49347747 479.587524 1031.57191467 479.59702349 C1036.87965395 479.60460412 1042.18737732 479.59757893 1047.49511719 479.59286499 C1056.40953381 479.58740278 1065.32387593 479.59461127 1074.23828125 479.60888672 C1084.55333298 479.62521411 1094.86820683 479.61992593 1105.18325424 479.6034075 C1114.03001303 479.5898059 1122.87671818 479.58786648 1131.72348404 479.59572351 C1137.01144579 479.60040733 1142.29932386 479.60100545 1147.58728027 479.59111404 C1152.55803275 479.58246594 1157.52855528 479.58842675 1162.49928284 479.60579681 C1164.32666135 479.60977321 1166.15405913 479.608608 1167.98143005 479.60200882 C1170.46998017 479.59384858 1172.95778673 479.6040474 1175.44628906 479.61904907 C1176.17478436 479.61235691 1176.90327965 479.60566474 1177.65385056 479.59876978 C1180.5831107 479.6331803 1182.52574959 479.65937142 1184.94706726 481.39847374 C1186.3003539 483.45684272 1186.39726851 484.81811034 1186.44140625 487.2734375 C1186.46783203 488.0984375 1186.49425781 488.9234375 1186.52148438 489.7734375 C1186.53501953 490.63195312 1186.54855469 491.49046875 1186.5625 492.375 C1186.61150026 499.91985038 1186.61150026 499.91985038 1189 507 C1191.43717258 506.72965366 1191.43717258 506.72965366 1194 506 C1194.66 505.01 1195.32 504.02 1196 503 C1198.86555697 501.40802391 1201.6471146 500.12030184 1204.75 499.0625 C1207.43828635 497.79303145 1207.99519595 496.74037467 1209 494 C1210.32 494 1211.64 494 1213 494 C1213 493.34 1213 492.68 1213 492 C1216 490 1216 490 1220 490 C1220.020625 489.4225 1220.04125 488.845 1220.0625 488.25 C1221.3234002 485.22383952 1223.3342074 484.47478592 1226.15625 483.01171875 C1228.67269058 481.6308753 1230.7696848 479.7966428 1233 478 C1233.99 477.67 1234.98 477.34 1236 477 C1236.45375 476.525625 1236.9075 476.05125 1237.375 475.5625 C1239 474 1239 474 1241.5625 473 C1244.31238322 472.13727591 1244.31238322 472.13727591 1246 469 C1246.99 469 1247.98 469 1249 469 C1249.33 468.01 1249.66 467.02 1250 466 C1251.99571323 465.32060826 1253.99594773 464.65438441 1256 464 C1256.66 463.01 1257.32 462.02 1258 461 C1258.99 460.67 1259.98 460.34 1261 460 C1261.66 459.01 1262.32 458.02 1263 457 C1266.125 456.3125 1266.125 456.3125 1269 456 C1269.33 455.01 1269.66 454.02 1270 453 C1270.99 452.67 1271.98 452.34 1273 452 C1273.66 451.01 1274.32 450.02 1275 449 C1277 448.33333333 1279 447.66666667 1281 447 C1281.66 446.01 1282.32 445.02 1283 444 C1284.32 444 1285.64 444 1287 444 C1287 443.01 1287 442.02 1287 441 C1289.31 440.67 1291.62 440.34 1294 440 C1293.99555878 439.08402542 1293.99111755 438.16805084 1293.98654175 437.22431946 C1293.94644947 428.5875115 1293.91600764 419.95073484 1293.89637566 411.31385517 C1293.88594334 406.87366576 1293.87179418 402.43355332 1293.84912109 397.9934082 C1293.82737309 393.70754936 1293.81542722 389.4217645 1293.81024551 385.13585472 C1293.80655328 383.50160749 1293.79934326 381.86736426 1293.78853989 380.23314857 C1293.77399889 377.94220895 1293.77202314 375.65157414 1293.77294922 373.3605957 C1293.768508 372.05709671 1293.76406677 370.75359772 1293.75949097 369.41059875 C1293.98952343 366.14856561 1294.58741232 363.92310714 1296 361 C1299.458176 360.9131671 1302.91607344 360.85966718 1306.375 360.8125 C1307.85226562 360.77479492 1307.85226562 360.77479492 1309.359375 360.73632812 C1310.30039063 360.72666016 1311.24140625 360.71699219 1312.2109375 360.70703125 C1313.08024902 360.6913208 1313.94956055 360.67561035 1314.84521484 360.65942383 C1315.55629395 360.77181396 1316.26737305 360.8842041 1317 361 C1330.8724347 381.80865205 1319 410.99111269 1319 436 C1407.11 436 1495.22 436 1586 436 C1586 406.96 1586 377.92 1586 348 C1583.03 348 1580.06 348 1577 348 C1576.01 347.34 1575.02 346.68 1574 346 C1573.61904907 343.07751465 1573.61904907 343.07751465 1573.61181641 339.28710938 C1573.60655945 338.5975264 1573.60130249 337.90794342 1573.59588623 337.19746399 C1573.58265683 334.91266384 1573.59143411 332.62855752 1573.6015625 330.34375 C1573.5995426 328.75956081 1573.59663186 327.17537252 1573.59286499 325.59118652 C1573.58843767 322.26887165 1573.59488559 318.94679852 1573.60888672 315.62451172 C1573.62597907 311.36027536 1573.61614003 307.09660539 1573.59816933 302.83238983 C1573.58734234 299.56048291 1573.59077278 296.28871085 1573.5985527 293.01679993 C1573.60055773 291.44427931 1573.59808485 289.87174655 1573.59111404 288.29924011 C1573.58351708 286.1034591 1573.59507764 283.90860255 1573.61181641 281.71289062 C1573.61539658 279.83664001 1573.61539658 279.83664001 1573.61904907 277.92248535 C1573.74476288 276.95806519 1573.87047668 275.99364502 1574 275 C1577.20380017 272.86413322 1578.01939967 272.76867825 1581.6875 272.875 C1582.49574219 272.89304687 1583.30398438 272.91109375 1584.13671875 272.9296875 C1584.75160156 272.95289063 1585.36648438 272.97609375 1586 273 C1585.98952637 272.29391602 1585.97905273 271.58783203 1585.96826172 270.86035156 C1585.9266521 267.65693734 1585.90065796 264.45358004 1585.875 261.25 C1585.85824219 260.13882812 1585.84148437 259.02765625 1585.82421875 257.8828125 C1585.81777344 256.81289063 1585.81132813 255.74296875 1585.8046875 254.640625 C1585.79421387 253.65610352 1585.78374023 252.67158203 1585.77294922 251.65722656 C1586.00510382 248.94026889 1586.60963727 247.31887487 1588 245 C1590.91765891 244.89193856 1593.83131125 244.81267123 1596.75 244.75 C1597.575 244.71648437 1598.4 244.68296875 1599.25 244.6484375 C1600.04921875 244.63554687 1600.8484375 244.62265625 1601.671875 244.609375 C1602.4050293 244.58842773 1603.13818359 244.56748047 1603.89355469 244.54589844 C1606.97380016 245.2099291 1608.12343867 246.50906335 1610 249 C1610.45410156 251.65722656 1610.45410156 251.65722656 1610.390625 254.640625 C1610.37773438 255.71054688 1610.36484375 256.78046875 1610.3515625 257.8828125 C1610.31804687 258.99398438 1610.28453125 260.10515625 1610.25 261.25 C1610.23195313 262.37664062 1610.21390625 263.50328125 1610.1953125 264.6640625 C1610.14820222 267.44356896 1610.08243361 270.2213534 1610 273 C1611.09570312 272.97421875 1612.19140625 272.9484375 1613.3203125 272.921875 C1617.30355223 273.00644485 1618.95306224 273.49075714 1622 276 C1623.17948758 279.28798203 1623.13879388 282.50739895 1623.16113281 285.97436523 C1623.17074036 287.17919052 1623.1803479 288.38401581 1623.19024658 289.62535095 C1623.19449646 290.92332108 1623.19874634 292.2212912 1623.203125 293.55859375 C1623.20888118 294.90853374 1623.21463885 296.25847372 1623.22039795 297.6084137 C1623.23088673 300.43531676 1623.23674365 303.26219156 1623.24023438 306.08911133 C1623.24572289 309.70502368 1623.26976698 313.32056021 1623.29820633 316.93635464 C1623.31685924 319.72366927 1623.32203965 322.51089369 1623.32357025 325.29826546 C1623.32805445 327.27745551 1623.34668412 329.2565972 1623.36553955 331.23570251 C1623.36253845 332.44367996 1623.35953735 333.65165741 1623.35644531 334.89624023 C1623.36009094 335.9567308 1623.36373657 337.01722137 1623.36749268 338.10984802 C1622.94507449 341.43196252 1621.94988511 343.30307783 1620 346 C1616.46161553 348.56227841 1614.81203611 348 1610 348 C1610.33 376.71 1610.66 405.42 1611 435 C1663.8 435.33 1716.6 435.66 1771 436 C1771 446.41176471 1771 446.41176471 1767 451 C1766.34 451 1765.68 451 1765 451 C1764.86078125 452.09441406 1764.86078125 452.09441406 1764.71875 453.2109375 C1763.88700019 456.43848841 1762.63007702 458.08462126 1760.5 460.625 C1758.35400502 463.20195299 1757.06900688 464.79297936 1756 468 C1753.9375 468.6875 1753.9375 468.6875 1752 469 C1751.67 470.98 1751.34 472.96 1751 475 C1750.01 475.33 1749.02 475.66 1748 476 C1747.505 478.475 1747.505 478.475 1747 481 C1746.01 481 1745.02 481 1744 481 C1743.8453125 482.0828125 1743.8453125 482.0828125 1743.6875 483.1875 C1742.93654526 486.25958758 1741.7124083 488.36003721 1740 491 C1739.67 491.66 1739.34 492.32 1739 493 C1738.01 493 1737.02 493 1736 493 C1735.67 494.65 1735.34 496.3 1735 498 C1734.34 498 1733.68 498 1733 498 C1732.34 500.31 1731.68 502.62 1731 505 C1729.02 505.495 1729.02 505.495 1727 506 C1726.67 507.98 1726.34 509.96 1726 512 C1725.01 512.33 1724.02 512.66 1723 513 C1722.7525 513.99 1722.7525 513.99 1722.5 515 C1722.2525 515.99 1722.2525 515.99 1722 517 C1721.01 517.33 1720.02 517.66 1719 518 C1718.87625 518.804375 1718.7525 519.60875 1718.625 520.4375 C1718.41875 521.283125 1718.2125 522.12875 1718 523 C1717.34 523.33 1716.68 523.66 1716 524 C1714.95191959 525.97522846 1713.9479589 527.97481509 1713 530 C1712.34 530 1711.68 530 1711 530 C1710.67 531.65 1710.34 533.3 1710 535 C1709.01 535 1708.02 535 1707 535 C1706.71125 535.94875 1706.4225 536.8975 1706.125 537.875 C1705 541 1705 541 1703 543 C1702.3574765 545.06874034 1702.3574765 545.06874034 1702 547 C1700.68 547.33 1699.36 547.66 1698 548 C1697.938125 548.680625 1697.87625 549.36125 1697.8125 550.0625 C1696.73598615 553.95451162 1694.74334968 557.03444754 1692 560 C1691.34 560 1690.68 560 1690 560 C1689.855625 560.78375 1689.71125 561.5675 1689.5625 562.375 C1689 565 1689 565 1688 567 C1687.34 567 1686.68 567 1686 567 C1685.67 568.65 1685.34 570.3 1685 572 C1684.01 572.33 1683.02 572.66 1682 573 C1681.26676204 575.01508358 1681.26676204 575.01508358 1681 577 C1680.34 577 1679.68 577 1679 577 C1678.7525 577.94875 1678.505 578.8975 1678.25 579.875 C1676.82576013 583.43559968 1676.28284113 583.51742659 1673 585 C1672.63837971 586.32594105 1672.30271961 587.65938457 1672 589 C1671.01 589.33 1670.02 589.66 1669 590 C1668.938125 590.680625 1668.87625 591.36125 1668.8125 592.0625 C1667.73598615 595.95451162 1665.74334968 599.03444754 1663 602 C1662.34 602 1661.68 602 1661 602 C1660.896875 602.763125 1660.79375 603.52625 1660.6875 604.3125 C1659.9309017 607.27011154 1659.18227175 607.99230999 1657 610 C1656.649375 610.70125 1656.29875 611.4025 1655.9375 612.125 C1655 614 1655 614 1653 615 C1652.67 615.99 1652.34 616.98 1652 618 C1653.23564697 618.01981934 1654.47129395 618.03963867 1655.74438477 618.06005859 C1660.34972749 618.13640574 1664.95476622 618.22507757 1669.55981445 618.31738281 C1671.549011 618.35555261 1673.53827374 618.39042598 1675.52758789 618.421875 C1678.3949339 618.46778697 1681.26182888 618.52573747 1684.12890625 618.5859375 C1685.01147598 618.59748871 1685.89404572 618.60903992 1686.80335999 618.62094116 C1691.89057293 618.741227 1696.1735574 619.36925176 1701 621 C1701 621.66 1701 622.32 1701 623 C1702.0725 623.103125 1703.145 623.20625 1704.25 623.3125 C1708.00519297 624.00095204 1709.21555319 624.58681276 1712 627 C1713.66279327 628.0064275 1715.32983484 629.00585407 1717 630 C1719.04049422 631.2704964 1721.05017465 632.59431196 1723 634 C1723 634.66 1723 635.32 1723 636 C1724.32 636.33 1725.64 636.66 1727 637 C1727 637.99 1727 638.98 1727 640 C1727.639375 640.103125 1728.27875 640.20625 1728.9375 640.3125 C1729.618125 640.539375 1730.29875 640.76625 1731 641 C1731.33 641.99 1731.66 642.98 1732 644 C1732.99 644.66 1733.98 645.32 1735 646 C1735.67939174 647.99571323 1736.34561559 649.99594773 1737 652 C1737.53625 652.495 1738.0725 652.99 1738.625 653.5 C1740 655 1740 655 1740.1875 658.1875 C1740.125625 659.115625 1740.06375 660.04375 1740 661 C1740.99 661.33 1741.98 661.66 1743 662 C1744.91960362 665.83920723 1744.41722271 670.57892267 1744.62109375 674.8125 C1744.67735002 678.08981351 1744.67735002 678.08981351 1747 680 C1748.14112738 685.19949168 1748.76001736 690.24663677 1746 695 C1745.67 695.33 1745.34 695.66 1745 696 C1744.75408786 699.26516681 1744.61576894 702.52943002 1744.4765625 705.80078125 C1743.96841634 709.21202473 1743.1778974 710.42918297 1741 713 C1740.71125 714.093125 1740.4225 715.18625 1740.125 716.3125 C1738.82810969 720.56341822 1736.92846582 723.67731762 1734 727 C1733.34 727.33 1732.68 727.66 1732 728 C1731.67 728.99 1731.34 729.98 1731 731 C1727.9218986 734.33460985 1724.66729707 737.3238643 1721 740 C1720.34 740 1719.68 740 1719 740 C1718.67 740.99 1718.34 741.98 1718 743 C1715.625 744.5625 1715.625 744.5625 1713 746 C1712.01 746.66 1711.02 747.32 1710 748 C1708 748.66666667 1706 749.33333333 1704 750 C1703.01 750.66 1702.02 751.32 1701 752 C1697.67589121 752.37696079 1694.37266773 752.50573569 1691.03125 752.65625 C1687.82595489 752.78567681 1687.82595489 752.78567681 1685 755 C1681.97689094 755.25197301 1681.97689094 755.25197301 1678.17049104 755.25480902 C1677.46736847 755.25805962 1676.76424589 755.26131022 1676.03981658 755.26465932 C1673.66118576 755.27318403 1671.28280077 755.26735888 1668.90416431 755.26171303 C1667.18330007 755.26489788 1665.46243726 755.26895923 1663.74157694 755.27382231 C1658.9775033 755.28471275 1654.21350159 755.28304709 1649.44941983 755.27947159 C1644.27988123 755.2777732 1639.11036303 755.28761013 1633.94083279 755.29602563 C1624.86899992 755.30918522 1615.79718573 755.31488564 1606.7253437 755.31578636 C1593.23572553 755.31715909 1579.74613522 755.3299226 1566.25652635 755.3450741 C1543.5678579 755.37023267 1520.87919425 755.38608738 1498.19051552 755.39665604 C1475.71636768 755.40715303 1453.24222871 755.42177209 1430.76808739 755.44193649 C1429.72175743 755.44287247 1429.72175743 755.44287247 1428.6542895 755.44382735 C1422.28336232 755.44952854 1415.9124352 755.45528065 1409.54150812 755.46109388 C1393.70297921 755.4755453 1377.86444977 755.48935787 1362.02591991 755.50273705 C1361.30460979 755.50334687 1360.58329966 755.50395669 1359.84013165 755.50458498 C1324.73904612 755.53420485 1289.63795643 755.55646479 1254.53686523 755.578125 C1242.35359696 755.58564715 1230.17032871 755.59320181 1217.98706055 755.60089111 C1217.23146929 755.60136796 1216.47587802 755.60184481 1215.69739006 755.60233611 C1180.58221267 755.62454162 1145.46703994 755.65197011 1110.3518674 755.68074883 C1108.07260591 755.68261671 1105.79334442 755.68448233 1103.51408292 755.6863475 C1088.40949799 755.69871149 1073.30491314 755.71116557 1058.20032833 755.72367998 C1028.14508019 755.74858048 998.08983162 755.7729516 968.03458275 755.79695912 C966.60322242 755.79810246 965.17186209 755.79924618 963.74050176 755.80039027 C878.22396219 755.8687396 792.70741525 755.92619929 678 756 C677.67 769.2 677.34 782.4 677 796 C552.26 796 427.52 796 299 796 C298.67 782.8 298.34 769.6 298 756 C291.73009567 755.99857498 285.46019135 755.99714996 279.00028992 755.99568176 C237.61206461 755.98461139 196.22385333 755.96799305 154.83564758 755.92570496 C154.12978325 755.9249855 153.42391891 755.92426605 152.69666474 755.9235248 C137.35773473 755.90785346 122.01880611 755.89107135 106.67987857 755.87314438 C99.1580866 755.86436024 91.63629436 755.85582166 84.11450195 755.84741211 C83.36597804 755.84657106 82.61745413 755.84573001 81.84624767 755.84486348 C57.56780665 755.81769919 33.28939114 755.80676158 9.01093611 755.80420476 C-15.93042125 755.80149266 -40.871714 755.78247811 -65.81304133 755.74283885 C-69.33275492 755.7372526 -72.85246878 755.73185346 -76.37218285 755.72656822 C-77.41131703 755.72499917 -77.41131703 755.72499917 -78.47144382 755.72339842 C-89.6400261 755.7070161 -100.80854395 755.70790961 -111.97713309 755.71520283 C-123.19499559 755.72216174 -134.41272466 755.7106597 -145.63056127 755.6813371 C-151.71289703 755.66598461 -157.79495808 755.65891385 -163.87730217 755.67340279 C-169.43817835 755.68647297 -174.99852005 755.67682169 -180.55933549 755.64856227 C-182.57821035 755.64240945 -184.59713193 755.6448273 -186.61598317 755.65637074 C-189.34682921 755.67077178 -192.07581598 755.65483374 -194.80655384 755.63085651 C-195.60244987 755.64238724 -196.39834589 755.65391796 -197.21835998 755.6657981 C-199.41497785 755.62740451 -199.41497785 755.62740451 -203 755 C-204.91052788 752.54260272 -204.91052788 752.54260272 -206 750 C-206.53625 749.566875 -207.0725 749.13375 -207.625 748.6875 C-209.93610368 745.85114548 -209.70639593 742.58196963 -210 739 C-210.99 738.67 -211.98 738.34 -213 738 C-213.625 736.07421875 -213.625 736.07421875 -214 733.6875 C-214.67019582 730.01382363 -214.67019582 730.01382363 -216.625 726.875 C-218.71222338 724.0287863 -218.19707708 721.41600267 -218 718 C-218.639375 717.814375 -219.27875 717.62875 -219.9375 717.4375 C-220.9584375 716.7259375 -220.9584375 716.7259375 -222 716 C-222.38749213 713.67504723 -222.71758117 711.3400417 -223 709 C-223.495 708.34 -223.99 707.68 -224.5 707 C-226 705 -226 705 -226.5 701.375 C-226.665 700.26125 -226.83 699.1475 -227 698 C-227.99 697.34 -228.98 696.68 -230 696 C-230.51171875 693.6171875 -230.51171875 693.6171875 -230.6875 690.875 C-230.75324219 689.96492187 -230.81898438 689.05484375 -230.88671875 688.1171875 C-230.92410156 687.41851563 -230.96148437 686.71984375 -231 686 C-231.99 685.67 -232.98 685.34 -234 685 C-234.495 680.545 -234.495 680.545 -235 676 C-235.99 675.67 -236.98 675.34 -238 675 C-238.625 673.0390625 -238.625 673.0390625 -239 670.625 C-239.57761238 666.93068746 -240.35720601 665.57250692 -243 663 C-243.33333333 660.66666667 -243.66666667 658.33333333 -244 656 C-244.49113281 655.52949219 -244.98226562 655.05898438 -245.48828125 654.57421875 C-247.46955999 652.51102668 -247.48347874 651.12799334 -247.6875 648.3125 C-247.75324219 647.50425781 -247.81898438 646.69601562 -247.88671875 645.86328125 C-247.94279297 644.94095703 -247.94279297 644.94095703 -248 644 C-248.99 643.67 -249.98 643.34 -251 643 C-251.33 640.36 -251.66 637.72 -252 635 C-252.99 634.67 -253.98 634.34 -255 634 C-255.495 629.545 -255.495 629.545 -256 625 C-256.66 625 -257.32 625 -258 625 C-257.125 621.125 -257.125 621.125 -256 620 C-257.11375 619.46375 -258.2275 618.9275 -259.375 618.375 C-262.42606805 616.66222739 -262.90695009 616.22597834 -264.3125 612.8125 C-264.6528125 611.4203125 -264.6528125 611.4203125 -265 610 C-265.66 609.67 -266.32 609.34 -267 609 C-267.309375 607.88625 -267.61875 606.7725 -267.9375 605.625 C-268.98610851 602.04739448 -269.49406568 601.39698066 -272 599 C-272.165 598.154375 -272.33 597.30875 -272.5 596.4375 C-272.7756937 593.64137117 -272.7756937 593.64137117 -276 592 C-276.33333333 590 -276.66666667 588 -277 586 C-277.99 585.34 -278.98 584.68 -280 584 C-280.6875 580.375 -280.6875 580.375 -281 577 C-281.99 576.67 -282.98 576.34 -284 576 C-284.0825 574.88625 -284.165 573.7725 -284.25 572.625 C-284.4975 571.42875 -284.745 570.2325 -285 569 C-286.93330603 567.90833725 -286.93330603 567.90833725 -289 567 C-290.125 564 -290.125 564 -291 561 C-291.66 560.34 -292.32 559.68 -293 559 C-294.54849555 555.71718944 -295.87784955 552.7852529 -296.4375 549.1875 C-296.78388052 546.80749096 -296.78388052 546.80749096 -299.0625 545.6875 C-299.701875 545.460625 -300.34125 545.23375 -301 545 C-301 543.02 -301 541.04 -301 539 C-301.61875 538.79375 -302.2375 538.5875 -302.875 538.375 C-305.83839739 536.45750757 -306.01737197 534.29882268 -307 531 C-307.66 530.67 -308.32 530.34 -309 530 C-309.40729228 527.67843403 -309.74438677 525.3431213 -310 523 C-310.66 523 -311.32 523 -312 523 C-312 519.04 -312 515.08 -312 511 C-304.08 511 -296.16 511 -288 511 C-288.01571045 507.96659424 -288.0314209 504.93318848 -288.04760742 501.80786133 C-288.09729947 491.78952842 -288.1304475 481.77119009 -288.15543652 471.75276661 C-288.17109753 465.67812905 -288.19234405 459.60361767 -288.22631836 453.52905273 C-288.25889582 447.66761216 -288.27684973 441.80629302 -288.28463173 435.94476891 C-288.2901781 433.70763932 -288.30100868 431.47051643 -288.31719017 429.23343849 C-288.33894263 426.10184957 -288.34196779 422.97076355 -288.34057617 419.83911133 C-288.351362 418.91266312 -288.36214783 417.9862149 -288.3732605 417.0316925 C-288.34971823 412.14111049 -288.08477559 409.02317285 -285 405 C-284.67 404.34 -284.34 403.68 -284 403 C-279.56996724 401.52332241 -275.63947011 401.57231215 -271.125 402.75 C-269 404 -269 404 -268.37470341 405.80366898 C-267.99191633 408.04738259 -267.87697058 410.11587347 -267.87974548 412.39129639 C-267.87837082 413.26345291 -267.87699615 414.13560944 -267.87557983 415.03419495 C-267.88097275 416.45731239 -267.88097275 416.45731239 -267.88647461 417.90917969 C-267.88632858 418.91438156 -267.88618256 419.91958344 -267.8860321 420.95524597 C-267.88672872 424.27747761 -267.89450942 427.59965316 -267.90234375 430.921875 C-267.90420882 433.22544321 -267.9056323 435.52901182 -267.90663147 437.83258057 C-267.91044963 443.89557999 -267.92027396 449.95855545 -267.93133545 456.02154541 C-267.94156462 462.20837073 -267.94613232 468.39519991 -267.95117188 474.58203125 C-267.96189683 486.72136638 -267.97948799 498.86067745 -268 511 C-255.79 511 -243.58 511 -231 511 C-231.00523682 507.31996826 -231.01047363 503.63993652 -231.01586914 499.84838867 C-231.03241422 487.7105823 -231.04352579 475.57277672 -231.05181217 463.43496227 C-231.05697128 456.07341627 -231.06400666 448.71188095 -231.07543945 441.3503418 C-231.08539804 434.9349898 -231.09185624 428.51964553 -231.09408849 422.10428602 C-231.0953936 418.7065452 -231.09846685 415.3088265 -231.10573006 411.91109276 C-231.11295362 408.12064662 -231.11399038 404.3302468 -231.11352539 400.53979492 C-231.11712067 399.40979065 -231.12071594 398.27978638 -231.12442017 397.11553955 C-231.1230455 396.08488876 -231.12167084 395.05423798 -231.12025452 393.99235535 C-231.12117631 393.09545077 -231.1220981 392.1985462 -231.12304783 391.2744627 C-231 389 -231 389 -230 386 C-226.75657406 383.21992062 -224.7914206 382.05653004 -220.5 381.75 C-215.54488256 383.5196848 -213.37942731 386.36101611 -211 391 C-210.16534712 394.95613788 -210.18158882 398.79962847 -210.22705078 402.83203125 C-210.21110619 404.57479591 -210.21110619 404.57479591 -210.19483948 406.35276794 C-210.1668517 410.17312288 -210.18083282 413.99208999 -210.1953125 417.8125 C-210.1840593 420.46912685 -210.17046979 423.12563907 -210.15377808 425.78222656 C-210.11951878 432.04714158 -210.11548817 438.31169117 -210.12250316 444.57668114 C-210.12900865 451.71347959 -210.10153335 458.8500232 -210.07130075 465.98674583 C-210.00990708 480.65787838 -209.99535551 495.32873531 -210 510 C-196.635 510.495 -196.635 510.495 -183 511 C-183 426.85 -183 342.7 -183 256 C-185.97 256 -188.94 256 -192 256 C-194.12094354 251.75811293 -193.22940069 246.16059282 -193.25 241.5 C-193.270625 240.33339844 -193.29125 239.16679687 -193.3125 237.96484375 C-193.32023437 236.29615234 -193.32023437 236.29615234 -193.328125 234.59375 C-193.3374707 233.56958984 -193.34681641 232.54542969 -193.35644531 231.49023438 C-193.23881836 230.66845703 -193.12119141 229.84667969 -193 229 C-189.32070555 226.54713704 -187.52622093 226.76771122 -183.14453125 226.8046875 C-182.48289474 226.8075174 -181.82125824 226.81034729 -181.13957214 226.81326294 C-179.03036263 226.82444082 -176.92158075 226.84954019 -174.8125 226.875 C-173.38086552 226.88503293 -171.94922436 226.89415824 -170.51757812 226.90234375 C-167.01158023 226.92437205 -163.50583187 226.95888515 -160 227 C-160.00222061 225.90419113 -160.00444122 224.80838226 -160.00672913 223.67936707 C-160.0269801 213.36428543 -160.0419816 203.04920782 -160.05181217 192.73411083 C-160.05703601 187.43072368 -160.06412466 182.12735254 -160.07543945 176.82397461 C-160.08628599 171.70819758 -160.0922806 166.59243597 -160.09487724 161.47664833 C-160.09672829 159.52257354 -160.1003428 157.56849962 -160.10573006 155.61443138 C-160.11296388 152.88250258 -160.11398994 150.15063797 -160.11352539 147.41870117 C-160.11712067 146.60662201 -160.12071594 145.79454285 -160.12442017 144.95785522 C-160.11842067 141.70830577 -160.03515438 139.10546315 -159 136 C-111.48 136 -63.96 136 -15 136 C-13.7230509 139.83084731 -13.86880691 143.42802855 -13.88647461 147.41870117 C-13.88632858 148.27745346 -13.88618256 149.13620575 -13.8860321 150.02098083 C-13.88672921 152.8616691 -13.89451217 155.70229193 -13.90234375 158.54296875 C-13.90420865 160.51166244 -13.90563221 162.48035659 -13.90663147 164.4490509 C-13.91045099 169.63253051 -13.92027648 174.81598214 -13.93133545 179.99945068 C-13.9415617 185.2880414 -13.9461317 190.57663663 -13.95117188 195.86523438 C-13.96189923 206.24350188 -13.9789689 216.62174862 -14 227 C-9.71 227 -5.42 227 -1 227 C-1.00138269 225.26338073 -1.00138269 225.26338073 -1.00279331 223.49167824 C-1.02443421 196.03149405 -1.04093202 168.5713108 -1.05106533 141.11111984 C-1.05231609 137.73391061 -1.05361041 134.35670139 -1.05493164 130.97949219 C-1.05532511 129.97094663 -1.05532511 129.97094663 -1.05572652 128.94202642 C-1.06008213 118.04404442 -1.06796908 107.14606767 -1.0771528 96.24808879 C-1.08649237 85.07225721 -1.09198137 73.89642743 -1.09408849 62.7205919 C-1.09539549 56.44057027 -1.09848064 50.16056057 -1.10573006 43.88054276 C-1.11249129 37.97587075 -1.11461674 32.07121565 -1.11310768 26.16654015 C-1.11338396 23.99365205 -1.11538847 21.82076341 -1.11920547 19.64787865 C-1.12414431 16.69269101 -1.12299755 13.73756813 -1.12025452 10.78237915 C-1.12462378 9.47792262 -1.12462378 9.47792262 -1.12908131 8.14711344 C-1.11412121 2.22824242 -1.11412121 2.22824242 0 0 Z M-152 315 C-152.02684679 317.64590014 -152.04676357 320.29153096 -152.0625 322.9375 C-152.07087891 323.69224609 -152.07925781 324.44699219 -152.08789062 325.22460938 C-152.09652441 327.14994313 -152.05224333 329.07535581 -152 331 C-151.00516798 332.21643292 -151.00516798 332.21643292 -149.05053711 332.11352539 C-147.8015564 332.10567017 -147.8015564 332.10567017 -146.52734375 332.09765625 C-145.17866211 332.09282227 -145.17866211 332.09282227 -143.80273438 332.08789062 C-142.85720703 332.07951172 -141.91167969 332.07113281 -140.9375 332.0625 C-139.5134082 332.05573242 -139.5134082 332.05573242 -138.06054688 332.04882812 C-135.70700469 332.03700128 -133.35349468 332.01906521 -131 332 C-131 326.06 -131 320.12 -131 314 C-134.12505696 313.97311136 -137.24988425 313.95321538 -140.375 313.9375 C-141.26445312 313.92912109 -142.15390625 313.92074219 -143.0703125 313.91210938 C-143.92109375 313.90888672 -144.771875 313.90566406 -145.6484375 313.90234375 C-146.43395996 313.89710693 -147.21948242 313.89187012 -148.02880859 313.88647461 C-150.07772668 313.87426047 -150.07772668 313.87426047 -152 315 Z M-110 314 C-110 319.94 -110 325.88 -110 332 C-103.07 332 -96.14 332 -89 332 C-89 326.06 -89 320.12 -89 314 C-95.93 314 -102.86 314 -110 314 Z M-64 314 C-64 319.94 -64 325.88 -64 332 C-58.39 332 -52.78 332 -47 332 C-47 326.06 -47 320.12 -47 314 C-52.61 314 -58.22 314 -64 314 Z M-27 314 C-27 319.94 -27 325.88 -27 332 C-20.07 332 -13.14 332 -6 332 C-6 326.06 -6 320.12 -6 314 C-12.93 314 -19.86 314 -27 314 Z M281 335 C281 358.76 281 382.52 281 407 C289.94590745 407.52704628 289.94590745 407.52704628 294 406 C294.495 405.01 294.495 405.01 295 404 C297.32243283 402.9316809 299.63033933 401.94972648 302 401 C303.31394167 400.44087588 304.62652393 399.87854262 305.9375 399.3125 C306.948125 398.879375 307.95875 398.44625 309 398 C309 397.34 309 396.68 309 396 C310.258125 395.731875 311.51625 395.46375 312.8125 395.1875 C316.12044235 394.37359503 317.74068519 393.59821204 320 391 C321.33333333 390.66666667 322.66666667 390.33333333 324 390 C324.45375 389.525625 324.9075 389.05125 325.375 388.5625 C327.60958813 386.41385756 330.08644088 385.95007362 333 385 C333.495 384.01 333.495 384.01 334 383 C336.33333333 382.33333333 338.66666667 381.66666667 341 381 C341.495 380.01 341.495 380.01 342 379 C343.11375 378.71125 344.2275 378.4225 345.375 378.125 C349.13182228 376.95908964 350.11494586 376.32656613 352 373 C350.02 372.34 348.04 371.68 346 371 C346 370.34 346 369.68 346 369 C343.36 368.34 340.72 367.68 338 367 C338 366.34 338 365.68 338 365 C336.88625 364.54625 335.7725 364.0925 334.625 363.625 C331 362 331 362 329 360 C328.34 359.855625 327.68 359.71125 327 359.5625 C325 359 325 359 323 356 C322.01 355.835 321.02 355.67 320 355.5 C319.01 355.335 318.02 355.17 317 355 C316.34 354.01 315.68 353.02 315 352 C312.67451993 351.30643577 310.34119555 350.63850788 308 350 C307.67 349.34 307.34 348.68 307 348 C305.845 347.67 304.69 347.34 303.5 347 C302.345 346.67 301.19 346.34 300 346 C299.67 345.34 299.34 344.68 299 344 C297.88625 343.690625 296.7725 343.38125 295.625 343.0625 C292.01476931 342.00432894 291.41740731 341.52251198 289 339 C287.00827818 338.30899447 285.00838196 337.64097297 283 337 C282.34 336.34 281.68 335.68 281 335 Z M773 335 C773 358.76 773 382.52 773 407 C775.97 407 778.94 407 782 407 C782.66 406.01 783.32 405.02 784 404 C786.32548007 403.30643577 788.65880445 402.63850788 791 402 C791.33 401.34 791.66 400.68 792 400 C793.11375 399.690625 794.2275 399.38125 795.375 399.0625 C798.98523069 398.00432894 799.58259269 397.52251198 802 395 C805.1875 393.8125 805.1875 393.8125 808 393 C808 392.34 808 391.68 808 391 C810.31 390.34 812.62 389.68 815 389 C815 388.34 815 387.68 815 387 C816.11375 386.71125 817.2275 386.4225 818.375 386.125 C822.00291092 385.30758671 822.00291092 385.30758671 824 383 C825.093125 382.690625 826.18625 382.38125 827.3125 382.0625 C830.77637676 381.06443382 833.00941362 379.94388115 836 378 C837.24819376 377.3092261 838.49828503 376.62187262 839.75 375.9375 C843.03809009 374.37320591 843.03809009 374.37320591 844 372 C842.2365625 371.13375 842.2365625 371.13375 840.4375 370.25 C837.68621499 368.88163603 835.0151812 367.44611454 832.375 365.875 C829.26978955 364.14988308 826.36024898 363.09403455 823 362 C822.34 361.34 821.68 360.68 821 360 C820.34 359.855625 819.68 359.71125 819 359.5625 C817 359 817 359 815 356 C811.43230448 355.26393501 811.43230448 355.26393501 808 355 C807.505 353.515 807.505 353.515 807 352 C804.67793475 351.29508733 802.34406932 350.62787571 800 350 C799.67 349.34 799.34 348.68 799 348 C797.845 347.67 796.69 347.34 795.5 347 C794.345 346.67 793.19 346.34 792 346 C791.67 345.34 791.34 344.68 791 344 C789.865625 343.690625 788.73125 343.38125 787.5625 343.0625 C784 342 784 342 782 339 C779.67793475 338.29508733 777.34406932 337.62787571 775 337 C774.34 336.34 773.68 335.68 773 335 Z M948 335 C947.34 335.99 946.68 336.98 946 338 C943.67451993 338.69356423 941.34119555 339.36149212 939 340 C938.67 340.66 938.34 341.32 938 342 C936.88625 342.309375 935.7725 342.61875 934.625 342.9375 C931.04739448 343.98610851 930.39698066 344.49406568 928 347 C927.154375 347.165 926.30875 347.33 925.4375 347.5 C922.64137117 347.7756937 922.64137117 347.7756937 921 351 C918.67451993 351.69356423 916.34119555 352.36149212 914 353 C913.67 353.66 913.34 354.32 913 355 C910.66666667 355.66666667 908.33333333 356.33333333 906 357 C905.67 357.66 905.34 358.32 905 359 C903.33927151 359.68132451 901.672233 360.34742127 900 361 C899.34 361.66 898.68 362.32 898 363 C896.01643517 363.71408334 894.01684563 364.38617742 892 365 C892 365.66 892 366.32 892 367 C889.36 367.66 886.72 368.32 884 369 C884 369.66 884 370.32 884 371 C881.525 371.495 881.525 371.495 879 372 C880.42644611 374.85289222 882.18313331 375.53033042 885 377 C887.31691454 377.72166191 889.64848923 378.40059529 892 379 C892 379.66 892 380.32 892 381 C893.11375 381.45375 894.2275 381.9075 895.375 382.375 C899 384 899 384 901 386 C902.96690374 386.67292501 902.96690374 386.67292501 905.125 387.125 C907.043125 387.558125 907.043125 387.558125 909 388 C909 388.66 909 389.32 909 390 C909.61875 390.103125 910.2375 390.20625 910.875 390.3125 C913 391 913 391 915 394 C917.32548007 394.69356423 919.65880445 395.36149212 922 396 C922.33 396.66 922.66 397.32 923 398 C924.155 398.33 925.31 398.66 926.5 399 C927.655 399.33 928.81 399.66 930 400 C930.33 400.66 930.66 401.32 931 402 C932.7015625 402.4640625 932.7015625 402.4640625 934.4375 402.9375 C938 404 938 404 940 407 C942.7427508 407.47114738 945.19558897 407.17805784 948 407 C949.32207726 405.90335295 949.32207726 405.90335295 949.12025452 403.18431091 C949.11803391 401.92522415 949.11581329 400.66613739 949.11352539 399.36889648 C949.11367142 398.67624695 949.11381744 397.98359741 949.1139679 397.2699585 C949.11326874 394.97030554 949.10547628 392.67073263 949.09765625 390.37109375 C949.09579208 388.78068588 949.09436817 387.19027743 949.09336853 385.59986877 C949.08954329 381.4060407 949.07971295 377.21224705 949.06866455 373.01843262 C949.05845057 368.74211086 949.05387094 364.46578356 949.04882812 360.18945312 C949.03809069 351.79295292 949.02101419 343.39648074 949 335 C948.67 335 948.34 335 948 335 Z M449 340 C448.67 340.99 448.34 341.98 448 343 C445.98177083 343.16276042 443.96354167 343.32552083 441.9453125 343.48828125 C439.60480784 343.87393036 439.60480784 343.87393036 438 347 C436.01276732 347.70381157 434.01222047 348.3711811 432 349 C431.34 349.66 430.68 350.32 430 351 C427.375 351.625 427.375 351.625 425 352 C425 352.66 425 353.32 425 354 C423.906875 354.268125 422.81375 354.53625 421.6875 354.8125 C418.12955621 355.95827851 417.40111277 356.48974574 415 359 C413.7315625 359.2475 413.7315625 359.2475 412.4375 359.5 C409.64137117 359.7756937 409.64137117 359.7756937 408 363 C406.01276732 363.70381157 404.01222047 364.3711811 402 365 C401.34 365.66 400.68 366.32 400 367 C398.824375 367.33 397.64875 367.66 396.4375 368 C395.303125 368.33 394.16875 368.66 393 369 C392.67 369.66 392.34 370.32 392 371 C390.35636866 371.72159424 388.68949614 372.39351421 387 373 C387.99 373.33 388.98 373.66 390 374 C390.33 374.99 390.66 375.98 391 377 C392.63877036 377.76921874 394.28640025 378.52495388 395.97265625 379.18359375 C398.04837509 380.01948053 400.00921441 380.97938283 402 382 C408.23867184 385.49563349 408.23867184 385.49563349 415 387 C415.33 387.99 415.66 388.98 416 390 C417.98 390.33 419.96 390.66 422 391 C422.33 391.99 422.66 392.98 423 394 C425.32206525 394.70491267 427.65593068 395.37212429 430 396 C430.33 396.66 430.66 397.32 431 398 C432.11375 398.309375 433.2275 398.61875 434.375 398.9375 C438.00470824 400.00138 438.52907386 400.52907386 441 403 C444.10839021 403.7269226 444.10839021 403.7269226 447 404 C447.33 404.99 447.66 405.98 448 407 C450.97 407 453.94 407 457 407 C457 384.23 457 361.46 457 338 C454.23026468 338 451.58064961 339.12442245 449 340 Z M860 381 C859.38125 381.680625 859.38125 381.680625 858.75 382.375 C856.43172035 384.52768825 853.97736108 385.02912139 851 386 C850.67 386.66 850.34 387.32 850 388 C846.5 389 846.5 389 843 390 C842.67 390.66 842.34 391.32 842 392 C838.5 393 838.5 393 835 394 C834.67 394.66 834.34 395.32 834 396 C832.329375 396.4640625 832.329375 396.4640625 830.625 396.9375 C827.01476931 397.99567106 826.41740731 398.47748802 824 401 C822.0040278 401.67863055 820.00431449 402.34641919 818 403 C817.67 403.66 817.34 404.32 817 405 C815.02 405.99 815.02 405.99 813 407 C844.68 407 876.36 407 909 407 C906.32357511 404.81509993 906.32357511 404.81509993 904 405 C903.505 403.515 903.505 403.515 903 402 C900.67793475 401.29508733 898.34406932 400.62787571 896 400 C895.505 399.01 895.505 399.01 895 398 C893.11235097 397.31527335 893.11235097 397.31527335 890.9375 396.875 C889.83728516 396.62363281 889.83728516 396.62363281 888.71484375 396.3671875 C888.14894531 396.24601562 887.58304688 396.12484375 887 396 C887 395.34 887 394.68 887 394 C885.88625 393.54625 884.7725 393.0925 883.625 392.625 C880 391 880 391 878 389 C875.67724823 388.59952556 873.34260643 388.2602896 871 388 C870.505 386.515 870.505 386.515 870 385 C867.69 384.67 865.38 384.34 863 384 C862.505 382.515 862.505 382.515 862 381 C861.34 381 860.68 381 860 381 Z M369 382 C368.67 382.66 368.34 383.32 368 384 C364.5 385 364.5 385 361 386 C360.67 386.66 360.34 387.32 360 388 C358.15234375 388.8515625 358.15234375 388.8515625 355.9375 389.625 C354.83728516 390.01558594 354.83728516 390.01558594 353.71484375 390.4140625 C353.14894531 390.60742188 352.58304688 390.80078125 352 391 C352 391.66 352 392.32 352 393 C349.36 393.33 346.72 393.66 344 394 C344 394.99 344 395.98 344 397 C341.69 397.33 339.38 397.66 337 398 C336.67 398.99 336.34 399.98 336 401 C333.68152126 401.7166207 331.34680297 402.38242027 329 403 C328.34 403.66 327.68 404.32 327 405 C326.195625 405.28875 325.39125 405.5775 324.5625 405.875 C321.51682097 406.96184817 321.51682097 406.96184817 319 411 C352.66 411 386.32 411 421 411 C417.10786793 406.04519815 417.10786793 406.04519815 412 404 C411.505 403.01 411.505 403.01 411 402 C409.845 401.67 408.69 401.34 407.5 401 C406.345 400.67 405.19 400.34 404 400 C403.505 399.01 403.505 399.01 403 398 C401.845 397.67 400.69 397.34 399.5 397 C398.345 396.67 397.19 396.34 396 396 C395.505 395.01 395.505 395.01 395 394 C393.10466658 393.53476937 393.10466658 393.53476937 390.9375 393.375 C389.638125 393.25125 388.33875 393.1275 387 393 C386.505 391.02 386.505 391.02 386 389 C384.865625 388.71125 383.73125 388.4225 382.5625 388.125 C381.386875 387.75375 380.21125 387.3825 379 387 C378.505 386.01 378.505 386.01 378 385 C376.13507598 384.61004898 376.13507598 384.61004898 374 384.5 C371.8125 384.34375 371.8125 384.34375 370 384 C369.505 383.01 369.505 383.01 369 382 Z M781 423 C780.979375 437.334375 780.95875 451.66875 780.9375 466.4375 C780.928396 470.97040771 780.91929199 475.50331543 780.90991211 480.17358398 C780.90656852 484.22248039 780.90656852 484.22248039 780.90455627 488.27137756 C780.90301659 490.08050278 780.89949118 491.88962695 780.89442444 493.69874573 C780.887148 496.43256423 780.88609255 499.16631981 780.88647461 501.90014648 C780.8828765 502.71159591 780.87927839 503.52304533 780.87557125 504.35908413 C780.54041574 507.9772285 780.54041574 507.9772285 782 511 C784.03761187 511.09678239 786.07863712 511.12186965 788.11854553 511.12025452 C788.76460123 511.12110894 789.41065693 511.12196337 790.07629007 511.12284368 C792.25669817 511.12450024 794.43703055 511.11897429 796.61743164 511.11352539 C798.17420958 511.11324353 799.73098764 511.11340123 801.2877655 511.1139679 C805.52725204 511.11425592 809.76671054 511.10835846 814.00619054 511.10139394 C818.4318142 511.09516115 822.85743843 511.09455666 827.2830658 511.09336853 C835.66953978 511.09025499 844.0560008 511.0820413 852.44246906 511.07201904 C863.77092492 511.05877356 875.09938431 511.05335818 886.42784595 511.04751682 C904.28524036 511.03810142 922.14260739 511.01818266 940 511 C940 481.96 940 452.92 940 423 C887.53 423 835.06 423 781 423 Z M290 424 C290 452.71 290 481.42 290 511 C318.05761578 511.02911446 318.05761578 511.02911446 346.11523438 511.04882812 C357.55005337 511.05477151 368.98486501 511.06177426 380.41967773 511.07543945 C388.74602007 511.08538514 397.07235648 511.09185315 405.39870459 511.09408849 C409.81024857 511.0953958 414.22177557 511.09848288 418.63331413 511.10573006 C422.78070387 511.11248846 426.92806953 511.11461733 431.07546425 511.11310768 C432.6021373 511.11338409 434.12881112 511.11539028 435.65547943 511.11920547 C437.73083459 511.12413994 439.80609742 511.12299923 441.88145447 511.12025452 C443.04567901 511.12117631 444.20990355 511.1220981 445.40940762 511.12304783 C447.92978839 511.29446567 447.92978839 511.29446567 449 510 C449.1003999 507.4295357 449.13617264 504.88591831 449.12939453 502.31494141 C449.13114685 501.5100679 449.13289917 500.7051944 449.13470459 499.87593079 C449.13912479 497.20111976 449.13618398 494.52637426 449.1328125 491.8515625 C449.13348562 489.99929797 449.13445572 488.14703352 449.13571167 486.29476929 C449.13718898 482.40581423 449.13503352 478.51688209 449.13037109 474.62792969 C449.12468172 469.63865134 449.12794758 464.64942688 449.13394356 459.66015053 C449.13755505 455.83236281 449.13640773 452.00458788 449.13381577 448.17679977 C449.13314772 446.33716195 449.13397068 444.49752298 449.13629532 442.65788651 C449.13883058 440.08650889 449.13496849 437.51521874 449.12939453 434.94384766 C449.13243088 433.79821602 449.13243088 433.79821602 449.13552856 432.62944031 C449.12286736 429.48166169 449.00317127 427.00951382 448 424 C395.86 424 343.72 424 290 424 Z " fill="#000000" transform="translate(312,0)"/>
<path d="M0 0 C1.02704513 0.00331015 2.05409025 0.00662029 3.11225796 0.01003075 C4.2914732 0.00171227 5.47068844 -0.00660622 6.68563747 -0.01517677 C7.98081295 0.00122856 9.27598843 0.0176339 10.61041164 0.03453636 C11.98690392 0.03430969 13.36339733 0.03189619 14.73988247 0.02745628 C18.47969791 0.02174292 22.21873581 0.04706366 25.95840287 0.0781312 C29.86788598 0.10564616 33.77736963 0.1056697 37.68693447 0.10884666 C44.25173328 0.11805408 50.81624097 0.14559924 57.38091946 0.18590355 C66.6461451 0.24273512 75.91122416 0.2650519 85.17659676 0.28118825 C91.5866897 0.29363593 97.9967603 0.31431859 104.40682578 0.33656836 C105.96319813 0.34193371 107.51957129 0.34706994 109.07594514 0.35198069 C113.51150377 0.36626866 117.94697844 0.3856742 122.38247395 0.41345787 C124.37160457 0.42488896 126.36076085 0.431538 128.3499136 0.4380703 C129.52630901 0.44667076 130.70270443 0.45527122 131.91474819 0.46413231 C133.45475034 0.47249076 133.45475034 0.47249076 135.02586365 0.48101807 C137.45001125 0.61803246 137.45001125 0.61803246 139.45001125 1.61803246 C140.71215813 5.01923347 140.57924802 8.43636283 140.58282375 12.02818871 C140.58411282 13.26504417 140.58540188 14.50189964 140.58673 15.77623558 C140.58286282 17.06465355 140.57899563 18.35307152 140.57501125 19.68053246 C140.57887844 20.97281761 140.58274563 22.26510277 140.58673 23.59654808 C140.58479641 25.44989769 140.58479641 25.44989769 140.58282375 27.34068871 C140.58169582 28.47256615 140.58056789 29.60444359 140.57940578 30.77062035 C140.45001125 33.61803246 140.45001125 33.61803246 139.45001125 36.61803246 C136.82619599 37.92994009 134.89211689 37.74392884 131.95271206 37.7450161 C130.20074017 37.74924583 130.20074017 37.74924583 128.4133749 37.75356102 C127.12552593 37.75153679 125.83767696 37.74951256 124.51080227 37.74742699 C123.14593363 37.74878146 121.78106535 37.75056166 120.41619778 37.75273705 C116.70341419 37.75730629 112.99065832 37.75552378 109.27787423 37.75235796 C105.39685219 37.74983123 101.51583257 37.75217282 97.63481045 37.75374413 C91.1154427 37.75556512 84.59608627 37.75316157 78.07672024 37.74840355 C70.53546668 37.74296334 62.99424016 37.74472211 55.45298725 37.75022995 C48.98416142 37.75476579 42.51534374 37.75540925 36.04651684 37.75279129 C32.18044144 37.75123082 28.31437876 37.75102843 24.44830418 37.75432777 C20.81303928 37.75721322 17.1778093 37.75521834 13.54254818 37.74943352 C11.56909133 37.74747703 9.59563154 37.75045427 7.62217617 37.75356102 C6.45137508 37.7507412 5.280574 37.74792137 4.07429409 37.7450161 C3.05462331 37.74463907 2.03495253 37.74426205 0.98438263 37.7438736 C-1.54998875 37.61803246 -1.54998875 37.61803246 -4.54998875 36.61803246 C-6.3514464 31.21365951 -5.77734483 25.39835079 -5.79998875 19.74303246 C-5.82061375 18.46299339 -5.84123875 17.18295433 -5.86248875 15.86412621 C-5.87022312 14.01367699 -5.87022312 14.01367699 -5.87811375 12.12584496 C-5.88745945 10.9980764 -5.89680515 9.87030785 -5.90643406 8.70836449 C-5.41148605 4.41723306 -4.50100195 1.09089316 0 0 Z " fill="#020202" transform="translate(157.54998874664307,85.38196754455566)"/>
<path d="M0 0 C2.475 0.495 2.475 0.495 5 1 C5 85.81 5 170.62 5 258 C3.68 258.33 2.36 258.66 1 259 C0 258 0 258 -0.1241985 256.22149795 C-0.12381878 255.43813491 -0.12343906 254.65477187 -0.12304783 253.84767056 C-0.12503888 252.94696345 -0.12702993 252.04625634 -0.12908131 251.11825508 C-0.12616847 250.11730326 -0.12325563 249.11635144 -0.12025452 248.08506775 C-0.12110894 247.03065682 -0.12196337 245.97624588 -0.12284368 244.8898831 C-0.12450163 241.32753218 -0.11897199 237.7652275 -0.11352539 234.20288086 C-0.11324356 231.66089377 -0.11340117 229.1189066 -0.1139679 226.57691956 C-0.11419622 221.08918091 -0.11134471 215.60145738 -0.10573006 210.11372185 C-0.09761738 202.17929198 -0.09500008 194.24486786 -0.09374207 186.31043429 C-0.09155118 173.43864239 -0.0848901 160.56685682 -0.07543945 147.69506836 C-0.06626628 135.18823274 -0.05918499 122.68139884 -0.05493164 110.17456055 C-0.05466892 109.40417841 -0.05440619 108.63379628 -0.05413551 107.84006923 C-0.05283051 103.97544949 -0.05156679 100.11082974 -0.05032361 96.24620998 C-0.03994985 64.16413539 -0.02233054 32.08206857 0 0 Z " fill="#383838" transform="translate(129,254)"/>
<path d="M0 0 C1.74162415 -0.00422974 1.74162415 -0.00422974 3.51843262 -0.00854492 C5.44628601 -0.00550858 5.44628601 -0.00550858 7.41308594 -0.00241089 C8.77120002 -0.00376491 10.12931374 -0.00554485 11.48742676 -0.00772095 C15.18567295 -0.01229513 18.88389136 -0.01050579 22.58213806 -0.00734186 C26.44408241 -0.00481818 30.30602431 -0.00715582 34.16796875 -0.00872803 C40.65462676 -0.0105497 47.1412734 -0.00814348 53.62792969 -0.00338745 C61.13796016 0.00205517 68.6479635 0.00029251 76.15799332 -0.00521386 C82.59449624 -0.00974505 89.03099096 -0.0103955 95.46749496 -0.00777519 C99.3167541 -0.00621245 103.16600046 -0.00601856 107.01525879 -0.00931168 C110.63326799 -0.01219049 114.25124205 -0.01021452 117.86924744 -0.00441742 C119.83832755 -0.00245427 121.80741061 -0.00544365 123.77648926 -0.00854492 C124.93757202 -0.0057251 126.09865479 -0.00290527 127.29492188 0 C128.81808014 0.00056554 128.81808014 0.00056554 130.37200928 0.0011425 C132.64746094 0.12698364 132.64746094 0.12698364 133.64746094 1.12698364 C133.77246094 3.62698364 133.77246094 3.62698364 133.64746094 6.12698364 C132.64746094 7.12698364 132.64746094 7.12698364 130.46292019 7.25003147 C129.49042859 7.24910968 128.51793699 7.24818789 127.51597595 7.24723816 C126.40393295 7.24861282 125.29188995 7.24998749 124.14614868 7.25140381 C122.91544647 7.24780853 121.68474426 7.24421326 120.41674805 7.24050903 C119.12913071 7.24065506 117.84151337 7.24080109 116.51487732 7.24095154 C112.97371334 7.2412395 109.43258295 7.235343 105.8914268 7.22837758 C102.19451106 7.22214381 98.49759462 7.22154023 94.80067444 7.22035217 C87.79542195 7.21723893 80.79018499 7.20902563 73.78493935 7.19900268 C65.81167218 7.18784134 57.83840429 7.18233104 49.86513126 7.17730725 C33.45923179 7.16684301 17.05334896 7.14904324 0.64746094 7.12698364 C0.64746094 13.72698364 0.64746094 20.32698364 0.64746094 27.12698364 C-0.67253906 27.45698364 -1.99253906 27.78698364 -3.35253906 28.12698364 C-4.34253906 27.46698364 -5.33253906 26.80698364 -6.35253906 26.12698364 C-6.70898438 23.62088013 -6.70898438 23.62088013 -6.68066406 20.49807739 C-6.67550781 19.38110474 -6.67035156 18.26413208 -6.66503906 17.11331177 C-6.64441406 15.94219849 -6.62378906 14.77108521 -6.60253906 13.56448364 C-6.59738281 12.38950317 -6.59222656 11.21452271 -6.58691406 10.00393677 C-6.49446784 0.00241135 -6.49446784 0.00241135 0 0 Z " fill="#191919" transform="translate(275.3525390625,360.8730163574219)"/>
<path d="M0 0 C0.77632153 -0.00467997 1.55264305 -0.00935994 2.35248947 -0.01418173 C4.96205316 -0.02617805 7.57109618 -0.0166566 10.18066406 -0.00723267 C12.04813952 -0.01129631 13.91561258 -0.01663703 15.78308105 -0.02316284 C20.86151497 -0.03686686 25.93976653 -0.03152507 31.01820374 -0.02202559 C36.32594301 -0.01444495 41.63366638 -0.02147015 46.94140625 -0.02618408 C55.85582287 -0.0316463 64.770165 -0.0244378 73.68457031 -0.01016235 C83.99962204 0.00616503 94.31449589 0.00087686 104.6295433 -0.01564157 C113.47630209 -0.02924317 122.32300724 -0.03118259 131.1697731 -0.02332556 C136.45773485 -0.01864174 141.74561292 -0.01804362 147.03356934 -0.02793503 C152.00432181 -0.03658313 156.97484434 -0.03062233 161.9455719 -0.01325226 C163.77295041 -0.00927586 165.60034819 -0.01044107 167.42771912 -0.01704025 C169.91626923 -0.02520049 172.40407579 -0.01500167 174.89257812 0 C175.62107342 -0.00669217 176.34956871 -0.01338433 177.10013962 -0.02027929 C180.02939976 0.01413123 181.97203865 0.04032235 184.39335632 1.77942467 C185.74664296 3.83779365 185.84355757 5.19906126 185.88769531 7.65438843 C185.92733398 8.89188843 185.92733398 8.89188843 185.96777344 10.15438843 C185.98130859 11.01290405 185.99484375 11.87141968 186.00878906 12.75595093 C186.05778932 20.30080131 186.05778932 20.30080131 188.44628906 27.38095093 C190.88346164 27.11060459 190.88346164 27.11060459 193.44628906 26.38095093 C194.43628906 24.89595093 194.43628906 24.89595093 195.44628906 23.38095093 C196.10628906 23.38095093 196.76628906 23.38095093 197.44628906 23.38095093 C197.44628906 25.36095093 197.44628906 27.34095093 197.44628906 29.38095093 C196.33253906 29.83470093 195.21878906 30.28845093 194.07128906 30.75595093 C190.48429898 32.10561079 190.48429898 32.10561079 188.44628906 34.38095093 C185.88378906 34.56845093 185.88378906 34.56845093 183.44628906 34.38095093 C176.59468747 27.52934933 181.79212671 15.06440513 181.44628906 5.38095093 C87.89128906 4.88595093 87.89128906 4.88595093 -7.55371094 4.38095093 C-7.55371094 14.28095093 -7.55371094 24.18095093 -7.55371094 34.38095093 C-9.53371094 34.38095093 -11.51371094 34.38095093 -13.55371094 34.38095093 C-13.55371094 33.39095093 -13.55371094 32.40095093 -13.55371094 31.38095093 C-12.56371094 31.38095093 -11.57371094 31.38095093 -10.55371094 31.38095093 C-10.56942139 30.54845825 -10.58513184 29.71596558 -10.60131836 28.85824585 C-10.65247736 25.76647237 -10.69007574 22.67491475 -10.71850586 19.58285522 C-10.74099427 17.58767392 -10.77911292 15.5926888 -10.81738281 13.5977478 C-10.82705078 12.34413452 -10.83671875 11.09052124 -10.84667969 9.79891968 C-10.86239014 8.64158325 -10.87810059 7.48424683 -10.89428711 6.2918396 C-10.55371094 3.38095093 -10.55371094 3.38095093 -9.50453186 1.72282982 C-6.52597294 -0.32598219 -3.48915606 -0.03205238 0 0 Z " fill="#363636" transform="translate(1312.5537109375,479.6190490722656)"/>
<path d="M0 0 C53.46 0 106.92 0 162 0 C162.33 1.65 162.66 3.3 163 5 C109.87 4.67 56.74 4.34 2 4 C2 4.66 2 5.32 2 6 C1.01 5.67 0.02 5.34 -1 5 C-0.67 3.35 -0.34 1.7 0 0 Z " fill="#565656" transform="translate(600,420)"/>
<path d="M0 0 C1.50298346 0.00138269 1.50298346 0.00138269 3.03633022 0.00279331 C4.18202984 0.00141865 5.32772945 0.00004398 6.50814724 -0.00137234 C8.41030499 0.00402058 8.41030499 0.00402058 10.35089016 0.00952244 C11.69092208 0.00980431 13.03095415 0.00964657 14.37098598 0.00907993 C18.01958415 0.00879196 21.66814971 0.01468863 25.31674027 0.02165389 C29.12576493 0.02788749 32.93479026 0.02849123 36.74381924 0.0296793 C43.96156731 0.0327926 51.17930031 0.04100597 58.39704174 0.05102879 C66.61214234 0.06218997 74.82724364 0.06770039 83.04234993 0.07272422 C99.94590528 0.08318858 116.84944593 0.10078799 133.75298977 0.12304783 C133.75298977 1.11304783 133.75298977 2.10304783 133.75298977 3.12304783 C89.53298977 3.12304783 45.31298977 3.12304783 -0.24701023 3.12304783 C-0.24701023 9.72304783 -0.24701023 16.32304783 -0.24701023 23.12304783 C-1.23701023 23.12304783 -2.22701023 23.12304783 -3.24701023 23.12304783 C-3.27588535 19.47723096 -3.29376608 15.83144319 -3.30951023 12.18554783 C-3.31788914 11.14462986 -3.32626804 10.10371189 -3.33490086 9.03125095 C-3.33973484 7.54721775 -3.33973484 7.54721775 -3.34466648 6.03320408 C-3.3499033 5.11676121 -3.35514011 4.20031834 -3.36053562 3.25610447 C-3.20300089 0.2961455 -2.96156306 0.16217723 0 0 Z " fill="#2E2E2E" transform="translate(274.24701023101807,362.8769521713257)"/>
<path d="M0 0 C1.32 0.33 2.64 0.66 4 1 C4 34.99 4 68.98 4 104 C4.99 104 5.98 104 7 104 C7 104.99 7 105.98 7 107 C5.00045254 107.04254356 2.99958364 107.04080783 1 107 C0 106 0 106 -0.12304783 104.22151089 C-0.12166514 103.0503729 -0.12166514 103.0503729 -0.12025452 101.85557556 C-0.12162918 100.96230057 -0.12300385 100.06902557 -0.12442017 99.14868164 C-0.12082489 98.16109863 -0.11722961 97.17351562 -0.11352539 96.15600586 C-0.11367142 95.12198135 -0.11381744 94.08795685 -0.1139679 93.02259827 C-0.11326827 89.58665914 -0.10547358 86.15077347 -0.09765625 82.71484375 C-0.09579225 80.33972707 -0.09436826 77.96461 -0.09336853 75.5894928 C-0.08954197 69.32423856 -0.0797105 63.05900733 -0.06866455 56.79376221 C-0.0584534 50.4061311 -0.05387155 44.01849629 -0.04882812 37.63085938 C-0.03808836 25.08722974 -0.02120127 12.54361609 0 0 Z " fill="#656565" transform="translate(40,407)"/>
<path d="M0 0 C0.99 0.33 1.98 0.66 3 1 C3.04626156 14.39497605 3.08183768 27.78993321 3.10362434 41.18497276 C3.11407879 47.40426828 3.12826821 53.62350929 3.15087891 59.84277344 C3.17254815 65.84035404 3.1845561 71.8378821 3.18975449 77.83549881 C3.19346091 80.12812757 3.20069821 82.42075333 3.21146011 84.71335983 C3.22589636 87.91492771 3.22798125 91.11627612 3.22705078 94.31787109 C3.23424133 95.27380661 3.24143188 96.22974213 3.24884033 97.21464539 C3.246091 98.08405258 3.24334167 98.95345978 3.24050903 99.84921265 C3.24235262 100.60692648 3.24419621 101.36464031 3.24609566 102.14531517 C3 104 3 104 1 106 C-1.625 106.125 -1.625 106.125 -4 106 C-4 105.01 -4 104.02 -4 103 C-3.01 102.505 -3.01 102.505 -2 102 C-1.9845388 100.14957344 -1.9845388 100.14957344 -1.96876526 98.26176453 C-1.87112505 86.65161009 -1.7683999 75.04151037 -1.66066074 63.43144512 C-1.6054318 57.46220957 -1.55201176 51.49296912 -1.50268555 45.52368164 C-1.45504169 39.76596048 -1.40269875 34.00829966 -1.34705925 28.25065041 C-1.32663582 26.05097768 -1.30792272 23.8512884 -1.29092598 21.65158653 C-1.26688183 18.57715227 -1.2368271 15.50283237 -1.20532227 12.4284668 C-1.1995668 11.51352951 -1.19381134 10.59859222 -1.18788147 9.65592957 C-1.17809265 8.81880432 -1.16830383 7.98167908 -1.15821838 7.1191864 C-1.15176583 6.39189174 -1.14531328 5.66459707 -1.1386652 4.91526318 C-1 3 -1 3 0 0 Z " fill="#292929" transform="translate(1061,408)"/>
<path d="M0 0 C1.23556641 0.01740234 1.23556641 0.01740234 2.49609375 0.03515625 C3.32238281 0.04417969 4.14867187 0.05320312 5 0.0625 C5.63808594 0.07410156 6.27617188 0.08570313 6.93359375 0.09765625 C5.94359375 1.58265625 5.94359375 1.58265625 4.93359375 3.09765625 C37.93359375 3.09765625 70.93359375 3.09765625 104.93359375 3.09765625 C103.94359375 1.61265625 103.94359375 1.61265625 102.93359375 0.09765625 C108.55859375 -0.15234375 108.55859375 -0.15234375 111.93359375 2.09765625 C111.55859375 4.03515625 111.55859375 4.03515625 110.93359375 6.09765625 C108.56129983 7.28380321 107.13235886 7.2234162 104.48582458 7.22463989 C103.08291168 7.22886963 103.08291168 7.22886963 101.6516571 7.23318481 C100.62248672 7.23116058 99.59331635 7.22913635 98.53295898 7.22705078 C97.45162689 7.2288031 96.3702948 7.23055542 95.25619507 7.23236084 C91.66817641 7.236776 88.0802067 7.23384273 84.4921875 7.23046875 C82.00879405 7.23114184 79.52540067 7.2321119 77.04200745 7.23336792 C71.16420795 7.23503379 65.28642635 7.23152465 59.40862948 7.22621715 C54.71357452 7.22246062 50.01854051 7.22379166 45.32348633 7.22802734 C38.86325025 7.23380636 32.40303449 7.23474105 25.94279671 7.23147202 C23.47351133 7.23080257 21.0042251 7.23163177 18.53494072 7.23395157 C15.09154818 7.23647648 11.64822158 7.23263991 8.20483398 7.22705078 C6.65804207 7.23008713 6.65804207 7.23008713 5.08000183 7.23318481 C4.14754639 7.23036499 3.21509094 7.22754517 2.25437927 7.22463989 C1.43934653 7.22426287 0.62431379 7.22388584 -0.21541691 7.22349739 C-2.06640625 7.09765625 -2.06640625 7.09765625 -3.06640625 6.09765625 C-3.19140625 3.59765625 -3.19140625 3.59765625 -3.06640625 1.09765625 C-2.06640625 0.09765625 -2.06640625 0.09765625 0 0 Z " fill="#494949" transform="translate(627.06640625,406.90234375)"/>
<path d="M0 0 C24.75565069 -0.02332606 49.51129974 -0.04097773 74.26695919 -0.05181217 C85.76057743 -0.05697575 97.25418886 -0.06401963 108.74780273 -0.07543945 C118.76175187 -0.08538439 128.77569608 -0.09185297 138.78965002 -0.09408849 C144.09545443 -0.09539593 149.40124471 -0.09848381 154.7070446 -0.10573006 C159.69490771 -0.11248728 164.68275081 -0.11461757 169.67061806 -0.11310768 C171.50690189 -0.11338414 173.34318635 -0.11539102 175.17946625 -0.11920547 C177.67520616 -0.12413808 180.17086924 -0.1229999 182.66661072 -0.12025452 C183.40297805 -0.12316736 184.13934539 -0.1260802 184.89802688 -0.12908131 C189.88587879 -0.11412121 189.88587879 -0.11412121 191 1 C191.08758003 2.99964982 191.10696576 5.0023611 191.09765625 7.00390625 C191.09443359 8.21884766 191.09121094 9.43378906 191.08789062 10.68554688 C191.07951172 11.96494141 191.07113281 13.24433594 191.0625 14.5625 C191.05798828 15.84576172 191.05347656 17.12902344 191.04882812 18.45117188 C191.03699545 21.63416022 191.02051068 24.81705762 191 28 C191.66 28 192.32 28 193 28 C193 26.02 193 24.04 193 22 C193.99 22.66 194.98 23.32 196 24 C198.09291157 23.91428339 198.09291157 23.91428339 200 23 C200.99 21.515 200.99 21.515 202 20 C202.66 20 203.32 20 204 20 C204 21.98 204 23.96 204 26 C202.88625 26.45375 201.7725 26.9075 200.625 27.375 C197.03800992 28.72465986 197.03800992 28.72465986 195 31 C192.4375 31.1875 192.4375 31.1875 190 31 C183.1483984 24.1483984 188.34583765 11.6834542 188 2 C125.96 1.67 63.92 1.34 0 1 C0 0.67 0 0.34 0 0 Z " fill="#1F1F1F" transform="translate(1306,483)"/>
<path d="M0 0 C0.33 0.66 0.66 1.32 1 2 C63.04 2 125.08 2 189 2 C189 2.33 189 2.66 189 3 C126.96 3.33 64.92 3.66 1 4 C0.67 13.9 0.34 23.8 0 34 C-1.98 34 -3.96 34 -6 34 C-6 33.01 -6 32.02 -6 31 C-5.01 31 -4.02 31 -3 31 C-3.01571045 30.16750732 -3.0314209 29.33501465 -3.04760742 28.47729492 C-3.09876642 25.38552144 -3.1363648 22.29396382 -3.16479492 19.2019043 C-3.18728333 17.20672299 -3.22540198 15.21173787 -3.26367188 13.21679688 C-3.27333984 11.96318359 -3.28300781 10.70957031 -3.29296875 9.41796875 C-3.3086792 8.26063232 -3.32438965 7.1032959 -3.34057617 5.91088867 C-3 3 -3 3 -1.48168945 1.09887695 C-0.99273193 0.73624756 -0.50377441 0.37361816 0 0 Z " fill="#3F3F3F" transform="translate(1305,480)"/>
<path d="M0 0 C0.33 0 0.66 0 1 0 C1 33.99 1 67.98 1 103 C-0.98 103.495 -0.98 103.495 -3 104 C-3 103.34 -3 102.68 -3 102 C-2.34 102 -1.68 102 -1 102 C-1.00222061 100.73688492 -1.00444122 99.47376984 -1.00672913 98.17237854 C-1.02695836 86.29676161 -1.04197108 74.42114814 -1.05181217 62.54551792 C-1.05704156 56.43943631 -1.0641402 50.33336856 -1.07543945 44.22729492 C-1.08626637 38.33994853 -1.09227642 32.45261551 -1.09487724 26.56525993 C-1.09673185 24.31367723 -1.10035313 22.06209531 -1.10573006 19.81051826 C-1.11293789 16.66866573 -1.11399105 13.52686917 -1.11352539 10.38500977 C-1.11712067 9.44418045 -1.12071594 8.50335114 -1.12442017 7.53401184 C-1.11405216 1.11405216 -1.11405216 1.11405216 0 0 Z " fill="#757575" transform="translate(570,409)"/>
<path d="M0 0 C0.33 0 0.66 0 1 0 C1 33.99 1 67.98 1 103 C0.01 103 -0.98 103 -2 103 C-1.89263091 89.86572347 -1.78002472 76.73150342 -1.66066074 63.59733009 C-1.60540631 57.49915021 -1.55198229 51.40096556 -1.50268555 45.30273438 C-1.45507917 39.42182503 -1.40273774 33.54097544 -1.34705925 27.66013718 C-1.32661878 25.41218928 -1.30790855 23.164225 -1.29092598 20.91624832 C-1.26691941 17.77695006 -1.23685974 14.63776549 -1.20532227 11.49853516 C-1.1995668 10.56130112 -1.19381134 9.62406708 -1.18788147 8.65843201 C-1.17809265 7.80585312 -1.16830383 6.95327423 -1.15821838 6.07485962 C-1.15176583 5.33189447 -1.14531328 4.58892933 -1.1386652 3.82345009 C-1 2 -1 2 0 0 Z " fill="#5E5E5E" transform="translate(1061,409)"/>
<path d="M0 0 C44.88 0 89.76 0 136 0 C136 0.33 136 0.66 136 1 C92.11 1.33 48.22 1.66 3 2 C3 8.6 3 15.2 3 22 C2.01 22 1.02 22 0 22 C0 14.74 0 7.48 0 0 Z " fill="#3A3A3A" transform="translate(271,364)"/>
<path d="M0 0 C2.31 0 4.62 0 7 0 C6.67 0.66 6.34 1.32 6 2 C39 2 72 2 106 2 C106 1.67 106 1.34 106 1 C107.65 1 109.3 1 111 1 C111 1.99 111 2.98 111 4 C74.04 4 37.08 4 -1 4 C-0.67 2.68 -0.34 1.36 0 0 Z " fill="#8F8F8F" transform="translate(626,408)"/>
<path d="M0 0 C2.31 0 4.62 0 7 0 C7 0.99 7 1.98 7 3 C5.68 3.33 4.36 3.66 3 4 C3.33 9.28 3.66 14.56 4 20 C4.99 20.33 5.98 20.66 7 21 C7 21.99 7 22.98 7 24 C4.69 24 2.38 24 0 24 C0 16.08 0 8.16 0 0 Z " fill="#262626" transform="translate(157,311)"/>
<path d="M0 0 C1.2065625 0.0309375 1.2065625 0.0309375 2.4375 0.0625 C2.7675 1.3825 3.0975 2.7025 3.4375 4.0625 C5.1390625 4.0315625 5.1390625 4.0315625 6.875 4 C10.4375 4.0625 10.4375 4.0625 11.4375 5.0625 C11.47830783 7.06208364 11.48004356 9.06295254 11.4375 11.0625 C10.4475 10.7325 9.4575 10.4025 8.4375 10.0625 C8.4375 9.4025 8.4375 8.7425 8.4375 8.0625 C7.32375 7.93875 6.21 7.815 5.0625 7.6875 C1.4375 7.0625 1.4375 7.0625 -0.5625 5.0625 C-0.8925 5.7225 -1.2225 6.3825 -1.5625 7.0625 C-2.2225 7.0625 -2.8825 7.0625 -3.5625 7.0625 C-3.60504356 5.06295254 -3.60330783 3.06208364 -3.5625 1.0625 C-2.5625 0.0625 -2.5625 0.0625 0 0 Z " fill="#161616" transform="translate(594.5625,331.9375)"/>
<path d="M0 0 C0.99 0 1.98 0 3 0 C3 10.23 3 20.46 3 31 C1.02 31 -0.96 31 -3 31 C-3 30.01 -3 29.02 -3 28 C-1.35 28.33 0.3 28.66 2 29 C2 19.76 2 10.52 2 1 C1.34 0.67 0.68 0.34 0 0 Z " fill="#3E3E3E" transform="translate(1302,483)"/>
<path d="M0 0 C0.99 0 1.98 0 3 0 C3 0.66 3 1.32 3 2 C2.34 2 1.68 2 1 2 C1.14053872 4.62538284 1.28718947 7.25017427 1.4375 9.875 C1.47681641 10.62136719 1.51613281 11.36773437 1.55664062 12.13671875 C1.71573624 16.19986864 1.71573624 16.19986864 3 20 C1.68 19.67 0.36 19.34 -1 19 C-1.02683987 16.02077407 -1.04676037 13.04178705 -1.0625 10.0625 C-1.07087891 9.21236328 -1.07925781 8.36222656 -1.08789062 7.48632812 C-1.09111328 6.67744141 -1.09433594 5.86855469 -1.09765625 5.03515625 C-1.10289307 4.2862915 -1.10812988 3.53742676 -1.11352539 2.76586914 C-1 1 -1 1 0 0 Z " fill="#5E5E5E" transform="translate(159,313)"/>
<path d="M0 0 C2.00720923 0.28674418 4.0085944 0.61866701 6 1 C5.67 1.99 5.34 2.98 5 4 C4.01 4 3.02 4 2 4 C2 5.32 2 6.64 2 8 C0.68 7.34 -0.64 6.68 -2 6 C-1.125 1.125 -1.125 1.125 0 0 Z " fill="#292929" transform="translate(2054,477)"/>
<path d="M0 0 C1.134375 0.020625 2.26875 0.04125 3.4375 0.0625 C3.4375 1.3825 3.4375 2.7025 3.4375 4.0625 C2.1175 4.0625 0.7975 4.0625 -0.5625 4.0625 C-0.8925 5.0525 -1.2225 6.0425 -1.5625 7.0625 C-2.2225 7.0625 -2.8825 7.0625 -3.5625 7.0625 C-3.94383299 5.0710944 -4.27575582 3.06970923 -4.5625 1.0625 C-3.5625 0.0625 -3.5625 0.0625 0 0 Z " fill="#303030" transform="translate(1235.5625,343.9375)"/>
<path d="M0 0 C1.98 0 3.96 0 6 0 C7.125 4.75 7.125 4.75 6 7 C5.01 6.67 4.02 6.34 3 6 C3 5.34 3 4.68 3 4 C1.68 4 0.36 4 -1 4 C-0.67 2.68 -0.34 1.36 0 0 Z " fill="#2C2C2C" transform="translate(616,344)"/>
<path d="M0 0 C2.64 0 5.28 0 8 0 C8.625 1.875 8.625 1.875 9 4 C6.23776722 6.76223278 3.79293383 6.57856291 0 7 C0.66 6.34 1.32 5.68 2 5 C2 4.01 2 3.02 2 2 C1.34 1.34 0.68 0.68 0 0 Z " fill="#161616" transform="translate(736,407)"/>
<path d="M0 0 C0 1.98 0 3.96 0 6 C-1.98 6 -3.96 6 -6 6 C-6.33 4.02 -6.66 2.04 -7 0 C-2.25 -1.125 -2.25 -1.125 0 0 Z " fill="#131313" transform="translate(625,408)"/>
<path d="M0 0 C2.31 0.33 4.62 0.66 7 1 C7 2.98 7 4.96 7 7 C6.01 7.33 5.02 7.66 4 8 C3.896875 7.38125 3.79375 6.7625 3.6875 6.125 C3.12474627 3.63473516 3.12474627 3.63473516 0 2 C0 1.34 0 0.68 0 0 Z " fill="#303030" transform="translate(82,694)"/>
<path d="M0 0 C0.66 0 1.32 0 2 0 C2.33 0.66 2.66 1.32 3 2 C5.02463255 2.65213292 5.02463255 2.65213292 7 3 C6.67 4.32 6.34 5.64 6 7 C4.33388095 7.042721 2.66617115 7.04063832 1 7 C0 6 0 6 -0.0625 2.9375 C-0.041875 1.968125 -0.02125 0.99875 0 0 Z " fill="#303030" transform="translate(1128,341)"/>
<path d="M0 0 C1.98 0 3.96 0 6 0 C5.8125 1.875 5.8125 1.875 5 4 C2.4375 5.25 2.4375 5.25 0 6 C-1.125 2.25 -1.125 2.25 0 0 Z " fill="#1A1A1A" transform="translate(1995,749)"/>
<path d="M0 0 C1.4540625 0.0309375 1.4540625 0.0309375 2.9375 0.0625 C1.9375 3.0625 1.9375 3.0625 -0.0625 4.0625 C-0.3925 5.0525 -0.7225 6.0425 -1.0625 7.0625 C-2.0525 7.0625 -3.0425 7.0625 -4.0625 7.0625 C-4.10504356 5.06295254 -4.10330783 3.06208364 -4.0625 1.0625 C-3.0625 0.0625 -3.0625 0.0625 0 0 Z " fill="#292929" transform="translate(1965.0625,610.9375)"/>
<path d="M0 0 C1.99954746 -0.04254356 4.00041636 -0.04080783 6 0 C7 1 7 1 7.0625 4.0625 C7.041875 5.031875 7.02125 6.00125 7 7 C6.01 7 5.02 7 4 7 C3.67 6.01 3.34 5.02 3 4 C2.01 3.34 1.02 2.68 0 2 C0 1.34 0 0.68 0 0 Z " fill="#2E2E2E" transform="translate(36,590)"/>
<path d="M0 0 C1.2065625 0.0309375 1.2065625 0.0309375 2.4375 0.0625 C2.4375 1.0525 2.4375 2.0425 2.4375 3.0625 C1.4475 3.0625 0.4575 3.0625 -0.5625 3.0625 C-0.8925 4.3825 -1.2225 5.7025 -1.5625 7.0625 C-2.5525 6.7325 -3.5425 6.4025 -4.5625 6.0625 C-3.48963568 0.08511307 -3.48963568 0.08511307 0 0 Z " fill="#333333" transform="translate(2019.5625,531.9375)"/>
<path d="M0 0 C0.99 0 1.98 0 3 0 C3.33 0.66 3.66 1.32 4 2 C4.99 2.33 5.98 2.66 7 3 C7 3.99 7 4.98 7 6 C4.69 6 2.38 6 0 6 C0 4.02 0 2.04 0 0 Z " fill="#282828" transform="translate(1223,391)"/>
<path d="M0 0 C1.67542976 0.28604898 3.34385343 0.61781233 5 1 C4.67 2.65 4.34 4.3 4 6 C2.35 6 0.7 6 -1 6 C-1.042721 4.33388095 -1.04063832 2.66617115 -1 1 C-0.67 0.67 -0.34 0.34 0 0 Z " fill="#4B4B4B" transform="translate(696,370)"/>
<path d="M0 0 C2.31 0 4.62 0 7 0 C7 0.99 7 1.98 7 3 C4.73783745 4.54779543 2.44775434 5.77612283 0 7 C0 4.69 0 2.38 0 0 Z " fill="#303030" transform="translate(711,361)"/>
<path d="M0 0 C2.31 0 4.62 0 7 0 C7 0.66 7 1.32 7 2 C5.68 2.33 4.36 2.66 3 3 C3 4.32 3 5.64 3 7 C2.01 6.67 1.02 6.34 0 6 C0 4.02 0 2.04 0 0 Z " fill="#292929" transform="translate(2036,503)"/>
<path d="M0 0 C1.4540625 0.0309375 1.4540625 0.0309375 2.9375 0.0625 C2.6075 0.7225 2.2775 1.3825 1.9375 2.0625 C0.6175 2.0625 -0.7025 2.0625 -2.0625 2.0625 C-2.3925 3.7125 -2.7225 5.3625 -3.0625 7.0625 C-0.7525 6.4025 1.5575 5.7425 3.9375 5.0625 C4.5975 6.3825 5.2575 7.7025 5.9375 9.0625 C2.52650832 9.0625 -0.69338314 8.57104594 -4.0625 8.0625 C-4.10491723 5.72955225 -4.10342937 3.39547433 -4.0625 1.0625 C-3.0625 0.0625 -3.0625 0.0625 0 0 Z " fill="#161616" transform="translate(698.0625,368.9375)"/>
<path d="M0 0 C0.04254356 1.99954746 0.04080783 4.00041636 0 6 C-1 7 -1 7 -3.5625 7.0625 C-4.7690625 7.0315625 -4.7690625 7.0315625 -6 7 C-6 4 -6 4 -4.125 1.8125 C-2 0 -2 0 0 0 Z " fill="#323232" transform="translate(1510,503)"/>
<path d="M0 0 C1.2065625 0.0309375 1.2065625 0.0309375 2.4375 0.0625 C2.4375 3.0625 2.4375 3.0625 0.5625 5.25 C-1.5625 7.0625 -1.5625 7.0625 -3.5625 7.0625 C-3.60504356 5.06295254 -3.60330783 3.06208364 -3.5625 1.0625 C-2.5625 0.0625 -2.5625 0.0625 0 0 Z " fill="#161616" transform="translate(1218.5625,352.9375)"/>
<path d="M0 0 C1.4540625 0.0309375 1.4540625 0.0309375 2.9375 0.0625 C2.9375 1.0525 2.9375 2.0425 2.9375 3.0625 C2.0403125 3.2171875 2.0403125 3.2171875 1.125 3.375 C-1.34493264 4.15126455 -2.38501235 5.13338921 -4.0625 7.0625 C-4.10504356 5.06295254 -4.10330783 3.06208364 -4.0625 1.0625 C-3.0625 0.0625 -3.0625 0.0625 0 0 Z " fill="#393939" transform="translate(1132.0625,398.9375)"/>
<path d="M0 0 C1.98 0 3.96 0 6 0 C6 1.98 6 3.96 6 6 C5.01 5.67 4.02 5.34 3 5 C3 4.34 3 3.68 3 3 C1.68 3 0.36 3 -1 3 C-0.67 2.01 -0.34 1.02 0 0 Z " fill="#383838" transform="translate(720,399)"/>
<path d="M0 0 C0.66 0 1.32 0 2 0 C2.042721 1.66611905 2.04063832 3.33382885 2 5 C1 6 1 6 -2.0625 6.0625 C-3.5165625 6.0315625 -3.5165625 6.0315625 -5 6 C-5 5.01 -5 4.02 -5 3 C-3.68 3 -2.36 3 -1 3 C-0.67 2.01 -0.34 1.02 0 0 Z " fill="#3C3C3C" transform="translate(637,387)"/>
<path d="M0 0 C0.99 0 1.98 0 3 0 C3.309375 0.78375 3.61875 1.5675 3.9375 2.375 C4.92875038 4.92330128 4.92875038 4.92330128 6 7 C4.02 7 2.04 7 0 7 C0 4.69 0 2.38 0 0 Z " fill="#2D2D2D" transform="translate(2053,674)"/>
<path d="M0 0 C1.65 0.33 3.3 0.66 5 1 C5 2.98 5 4.96 5 7 C4.01 7 3.02 7 2 7 C2 5.68 2 4.36 2 3 C1.01 2.67 0.02 2.34 -1 2 C-0.67 1.34 -0.34 0.68 0 0 Z " fill="#373737" transform="translate(13,544)"/>
<path d="M0 0 C1.65 0 3.3 0 5 0 C5.33 1.65 5.66 3.3 6 5 C5.01 5.33 4.02 5.66 3 6 C2.67 5.34 2.34 4.68 2 4 C1.01 3.67 0.02 3.34 -1 3 C-0.67 2.01 -0.34 1.02 0 0 Z " fill="#161616" transform="translate(633,353)"/>
<path d="M0 0 C1.32 0 2.64 0 4 0 C4 1.65 4 3.3 4 5 C3.34 5 2.68 5 2 5 C1.67 5.66 1.34 6.32 1 7 C0.34 7 -0.32 7 -1 7 C-1.04254356 5.00045254 -1.04080783 2.99958364 -1 1 C-0.67 0.67 -0.34 0.34 0 0 Z " fill="#454545" transform="translate(592,332)"/>
<path d="M0 0 C2.0625 0.4375 2.0625 0.4375 4 1 C3.34 3.31 2.68 5.62 2 8 C1.01 7.67 0.02 7.34 -1 7 C-1.04254356 5.00045254 -1.04080783 2.99958364 -1 1 C-0.67 0.67 -0.34 0.34 0 0 Z " fill="#404040" transform="translate(2054,694)"/>
<path d="M0 0 C0.66 1.32 1.32 2.64 2 4 C1.01 4.99 0.02 5.98 -1 7 C-1.99 6.67 -2.98 6.34 -4 6 C-4.33 5.01 -4.66 4.02 -5 3 C-3.35 2.01 -1.7 1.02 0 0 Z " fill="#111111" transform="translate(1558,470)"/>
<path d="M0 0 C0.99 0.33 1.98 0.66 3 1 C3 1.66 3 2.32 3 3 C3.99 3 4.98 3 6 3 C5.67 3.99 5.34 4.98 5 6 C3.35 5.67 1.7 5.34 0 5 C0 3.35 0 1.7 0 0 Z " fill="#454545" transform="translate(1232,395)"/>
<path d="M0 0 C1.32 0.33 2.64 0.66 4 1 C4 1.99 4 2.98 4 4 C3.34 4 2.68 4 2 4 C2 4.66 2 5.32 2 6 C0.68 5.34 -0.64 4.68 -2 4 C-1.34 2.68 -0.68 1.36 0 0 Z " fill="#171717" transform="translate(654,390)"/>
<path d="M0 0 C0.66 0 1.32 0 2 0 C2.042721 1.66611905 2.04063832 3.33382885 2 5 C1 6 1 6 -1.5625 6.0625 C-2.7690625 6.0315625 -2.7690625 6.0315625 -4 6 C-4 5.01 -4 4.02 -4 3 C-3.01 2.67 -2.02 2.34 -1 2 C-0.67 1.34 -0.34 0.68 0 0 Z " fill="#2D2D2D" transform="translate(645,383)"/>
<path d="M0 0 C1.2065625 0.0309375 1.2065625 0.0309375 2.4375 0.0625 C2.4375 1.0525 2.4375 2.0425 2.4375 3.0625 C1.4475 3.3925 0.4575 3.7225 -0.5625 4.0625 C-0.8925 4.7225 -1.2225 5.3825 -1.5625 6.0625 C-2.2225 6.0625 -2.8825 6.0625 -3.5625 6.0625 C-3.605221 4.39638095 -3.60313832 2.72867115 -3.5625 1.0625 C-2.5625 0.0625 -2.5625 0.0625 0 0 Z " fill="#2D2D2D" transform="translate(1227.5625,348.9375)"/>
<path d="M0 0 C1.65 0.33 3.3 0.66 5 1 C5 2.65 5 4.3 5 6 C4.34 6 3.68 6 3 6 C2.67 5.34 2.34 4.68 2 4 C1.01 3.67 0.02 3.34 -1 3 C-0.67 2.01 -0.34 1.02 0 0 Z " fill="#282828" transform="translate(625,349)"/>
<path d="M0 0 C0.66 0 1.32 0 2 0 C1.25 4.75 1.25 4.75 -1 7 C-3.625 7.125 -3.625 7.125 -6 7 C-6.33 6.34 -6.66 5.68 -7 5 C-5.35 5 -3.7 5 -2 5 C-1.34 3.35 -0.68 1.7 0 0 Z " fill="#141414" transform="translate(1502,507)"/>
<path d="M0 0 C1.67542976 0.28604898 3.34385343 0.61781233 5 1 C4.67 1.99 4.34 2.98 4 4 C1.9375 4.6875 1.9375 4.6875 0 5 C-0.5625 3.0625 -0.5625 3.0625 -1 1 C-0.67 0.67 -0.34 0.34 0 0 Z " fill="#282828" transform="translate(679,379)"/>
<path d="M0 0 C2.475 0.495 2.475 0.495 5 1 C5 2.65 5 4.3 5 6 C4.01 6 3.02 6 2 6 C2 4.68 2 3.36 2 2 C1.34 2 0.68 2 0 2 C0 1.34 0 0.68 0 0 Z " fill="#2F2F2F" transform="translate(100,737)"/>
<path d="M0 0 C1.65 0 3.3 0 5 0 C4.67 0.99 4.34 1.98 4 3 C1.4375 4.1875 1.4375 4.1875 -1 5 C-0.67 3.35 -0.34 1.7 0 0 Z " fill="#3F3F3F" transform="translate(2042,724)"/>
<path d="M0 0 C3.39914975 1.13304992 4.05254451 2.12518475 6 5 C4.02 5.99 4.02 5.99 2 7 C2 6.01 2 5.02 2 4 C1.34 4 0.68 4 0 4 C0 2.68 0 1.36 0 0 Z " fill="#151515" transform="translate(0,519)"/>
<path d="M0 0 C2.0625 0.4375 2.0625 0.4375 4 1 C4 1.66 4 2.32 4 3 C3.34 3 2.68 3 2 3 C1.67 4.32 1.34 5.64 1 7 C0.34 5.02 -0.32 3.04 -1 1 C-0.67 0.67 -0.34 0.34 0 0 Z " fill="#141414" transform="translate(2008,545)"/>
<path d="M0 0 C1.65 0 3.3 0 5 0 C4.67 0.99 4.34 1.98 4 3 C3.34 3 2.68 3 2 3 C1.67 3.66 1.34 4.32 1 5 C0.34 4.67 -0.32 4.34 -1 4 C-0.67 2.68 -0.34 1.36 0 0 Z " fill="#191919" transform="translate(2062,466)"/>
<path d="M0 0 C1.65 0 3.3 0 5 0 C5.33 1.65 5.66 3.3 6 5 C5.34 5 4.68 5 4 5 C4 4.34 4 3.68 4 3 C2.68 2.67 1.36 2.34 0 2 C0 1.34 0 0.68 0 0 Z " fill="#353535" transform="translate(599,337)"/>
<path d="M0 0 C1.65 0 3.3 0 5 0 C4.67 1.65 4.34 3.3 4 5 C3.34 5 2.68 5 2 5 C2 4.01 2 3.02 2 2 C1.34 2 0.68 2 0 2 C0 1.34 0 0.68 0 0 Z " fill="#2D2D2D" transform="translate(29,575)"/>
<path d="M0 0 C2.31 0 4.62 0 7 0 C6.67 0.66 6.34 1.32 6 2 C4.35 2 2.7 2 1 2 C1 2.66 1 3.32 1 4 C0.34 4 -0.32 4 -1 4 C-0.67 2.68 -0.34 1.36 0 0 Z " fill="#787878" transform="translate(626,408)"/>
<path d="M0 0 C1.65 0 3.3 0 5 0 C5 1.65 5 3.3 5 5 C2 4 2 4 0.8125 1.9375 C0.544375 1.298125 0.27625 0.65875 0 0 Z " fill="#3A3A3A" transform="translate(104,746)"/>
<path d="M0 0 C0.33 1.65 0.66 3.3 1 5 C0.01 5.33 -0.98 5.66 -2 6 C-2 5.01 -2 4.02 -2 3 C-2.66 3 -3.32 3 -4 3 C-4 2.34 -4 1.68 -4 1 C-2 0 -2 0 0 0 Z " fill="#161616" transform="translate(62,632)"/>
<path d="M0 0 C1.32 0 2.64 0 4 0 C4 0.66 4 1.32 4 2 C3.34 2 2.68 2 2 2 C2 2.99 2 3.98 2 5 C1.01 4.67 0.02 4.34 -1 4 C-0.67 2.68 -0.34 1.36 0 0 Z " fill="#3C3C3C" transform="translate(2000,558)"/>
<path d="M0 0 C2 2 2 2 2.125 4.625 C2.08375 5.40875 2.0425 6.1925 2 7 C0.68 7.33 -0.64 7.66 -2 8 C-2 7.34 -2 6.68 -2 6 C-1.34 6 -0.68 6 0 6 C0 4.02 0 2.04 0 0 Z " fill="#262626" transform="translate(1499,505)"/>
<path d="M0 0 C0.66 0 1.32 0 2 0 C1.67 1.65 1.34 3.3 1 5 C-0.32 4.67 -1.64 4.34 -3 4 C-3 3.34 -3 2.68 -3 2 C-2.01 2 -1.02 2 0 2 C0 1.34 0 0.68 0 0 Z " fill="#4A4A4A" transform="translate(661,375)"/>
</svg>
