<?xml version="1.0" encoding="UTF-8"?>
<svg version="1.1" xmlns="http://www.w3.org/2000/svg" width="1105" height="387">
<path d="M0 0 C3.75178016 0.02278924 7.50242454 0.00928432 11.25416565 -0.0138092 C26.50960838 -0.09297833 41.28971189 -0.05047202 56.00537109 4.52148438 C56.00537109 5.51148438 56.00537109 6.50148438 56.00537109 7.52148438 C52.37537109 7.52148438 48.74537109 7.52148438 45.00537109 7.52148438 C44.88291016 9.17664063 44.76044922 10.83179688 44.63427734 12.53710938 C43.99982054 20.15059101 42.98068463 27.70519498 41.94287109 35.27148438 C41.75444069 36.66207155 41.56628805 38.05269639 41.37841797 39.44335938 C40.92345132 42.80311309 40.46571681 46.16246421 40.00537109 49.52148438 C38.59570337 49.99819184 37.18542567 50.47309577 35.77490234 50.94726562 C34.98962158 51.21192627 34.20434082 51.47658691 33.39526367 51.74926758 C28.58105924 53.30482265 24.10707967 54.52148438 19.00537109 54.52148438 C19.00537109 89.17148438 19.00537109 123.82148437 19.00537109 159.52148438 C15.70537109 159.52148438 12.40537109 159.52148438 9.00537109 159.52148438 C9.00537109 160.51148438 9.00537109 161.50148437 9.00537109 162.52148438 C29.46537109 162.52148438 49.92537109 162.52148438 71.00537109 162.52148438 C71.00537109 156.91148437 71.00537109 151.30148438 71.00537109 145.52148438 C115.88537109 145.52148438 160.76537109 145.52148438 207.00537109 145.52148438 C207.00537109 136.94148437 207.00537109 128.36148438 207.00537109 119.52148438 C216.19353444 119.39080086 225.3817011 119.26035642 234.56987381 119.13033295 C238.83629822 119.06994845 243.1027211 119.00945915 247.36914062 118.94873047 C251.48640349 118.89012875 255.60367017 118.83180216 259.72093964 118.77366638 C261.29180795 118.75143738 262.86267487 118.72910921 264.43354034 118.7066803 C266.63358708 118.67528483 268.83363852 118.6442418 271.03369141 118.61328125 C272.28611633 118.59551636 273.53854126 118.57775146 274.82891846 118.55944824 C279.4246908 118.50452116 284.01459231 118.54417943 288.60986328 118.61328125 C289.26393661 118.62303482 289.91800995 118.63278839 290.59190369 118.64283752 C292.7453555 118.67502006 294.8988007 118.70762495 297.05224609 118.74023438 C298.54868532 118.76268068 300.04512494 118.78510056 301.54156494 118.80749512 C305.47394199 118.8664149 309.40631355 118.92569324 313.33868408 118.98504639 C317.35387858 119.04558613 321.36907817 119.10578658 325.38427734 119.16601562 C333.25798028 119.28417324 341.13167745 119.40270967 349.00537109 119.52148438 C349.00537109 118.86148438 349.00537109 118.20148438 349.00537109 117.52148438 C349.99537109 117.52148438 350.98537109 117.52148438 352.00537109 117.52148438 C352.00537109 118.18148437 352.00537109 118.84148437 352.00537109 119.52148438 C363.55537109 119.52148438 375.10537109 119.52148438 387.00537109 119.52148438 C387.00537109 118.86148438 387.00537109 118.20148438 387.00537109 117.52148438 C387.99537109 117.52148438 388.98537109 117.52148438 390.00537109 117.52148438 C390.00537109 118.18148437 390.00537109 118.84148437 390.00537109 119.52148438 C423.00537109 119.52148438 456.00537109 119.52148438 490.00537109 119.52148438 C490.00537109 118.86148438 490.00537109 118.20148438 490.00537109 117.52148438 C490.99537109 117.52148438 491.98537109 117.52148438 493.00537109 117.52148438 C493.00537109 118.18148437 493.00537109 118.84148437 493.00537109 119.52148438 C494.04467773 119.49119141 495.08398438 119.46089844 496.15478516 119.4296875 C500.01625929 119.31728874 503.87775508 119.20564965 507.73925781 119.09423828 C509.4095112 119.04594258 511.07975868 118.99744175 512.75 118.94873047 C515.1528167 118.87869001 517.55565381 118.80939085 519.95849609 118.74023438 C520.70343323 118.7183606 521.44837036 118.69648682 522.21588135 118.6739502 C527.8385426 118.51323344 533.44507045 118.53462702 539.06884766 118.61328125 C540.12310944 118.62791161 540.12310944 118.62791161 541.19866943 118.64283752 C543.51444874 118.67503973 545.83022234 118.70763507 548.14599609 118.74023438 C549.75453661 118.76267886 551.36307747 118.78509878 552.97161865 118.80749512 C557.19991394 118.86643329 561.42820449 118.92570512 565.65649414 118.98504639 C569.97330448 119.04557095 574.29011922 119.10578002 578.60693359 119.16601562 C587.07308376 119.2841964 595.53922895 119.40272966 604.00537109 119.52148438 C604.00537109 118.86148438 604.00537109 118.20148438 604.00537109 117.52148438 C604.99537109 117.52148438 605.98537109 117.52148438 607.00537109 117.52148438 C607.00537109 118.84148437 607.00537109 120.16148438 607.00537109 121.52148438 C608.01962158 121.49119141 609.03387207 121.46089844 610.07885742 121.4296875 C613.8415395 121.31742342 617.6042387 121.20574268 621.36694336 121.09423828 C622.99552882 121.04589497 624.6241096 120.99739342 626.25268555 120.94873047 C628.59341232 120.87881544 630.93415537 120.80946931 633.27490234 120.74023438 C634.00312698 120.7183606 634.73135162 120.69648682 635.48164368 120.6739502 C640.49337494 120.52649725 645.49528141 120.52460619 650.50878906 120.53735352 C657.20285525 120.55375348 663.89692061 120.56495336 670.59100151 120.57329655 C674.64075682 120.5785195 678.69049114 120.58561227 682.74023438 120.59692383 C686.65996634 120.60780058 690.57967809 120.61377081 694.49942398 120.61636162 C695.99131718 120.61820581 697.4832093 120.62180703 698.97509384 120.62721443 C701.06447486 120.63448949 703.15377239 120.63547264 705.24316406 120.63500977 C706.43102509 120.63723038 707.61888611 120.63945099 708.84274292 120.64173889 C711.69037756 120.53346156 714.23901014 120.17787078 717.00537109 119.52148438 C717.82759663 115.22542705 718.12307905 111.18181835 718.10302734 106.81054688 C718.09980469 105.56660156 718.09658203 104.32265625 718.09326172 103.04101562 C718.08488281 101.75582031 718.07650391 100.470625 718.06787109 99.14648438 C718.06110352 97.18388672 718.06110352 97.18388672 718.05419922 95.18164062 C718.04244703 91.96154157 718.02601653 88.74153667 718.00537109 85.52148438 C718.66537109 85.52148438 719.32537109 85.52148438 720.00537109 85.52148438 C720.02599609 84.53148438 720.04662109 83.54148437 720.06787109 82.52148438 C720.80108647 77.30396624 724.2207697 73.9525349 728.00537109 70.52148438 C731.47427809 68.58535024 732.94352303 68.52148438 737.00537109 68.52148438 C737.00537109 67.86148438 737.00537109 67.20148438 737.00537109 66.52148438 C737.66537109 66.52148438 738.32537109 66.52148438 739.00537109 66.52148438 C739.00537109 68.50148438 739.00537109 70.48148437 739.00537109 72.52148438 C739.99537109 72.52148438 740.98537109 72.52148438 742.00537109 72.52148438 C742.00537109 70.54148437 742.00537109 68.56148438 742.00537109 66.52148438 C742.99537109 66.85148437 743.98537109 67.18148437 745.00537109 67.52148438 C746.58530324 67.61420545 748.16881572 67.65216823 749.75146484 67.65429688 C750.67121094 67.65558594 751.59095703 67.656875 752.53857422 67.65820312 C753.49699219 67.65433594 754.45541016 67.65046875 755.44287109 67.64648438 C756.39742187 67.65035156 757.35197266 67.65421875 758.33544922 67.65820312 C759.25648438 67.65691406 760.17751953 67.655625 761.12646484 67.65429688 C762.38608032 67.65260498 762.38608032 67.65260498 763.67114258 67.65087891 C765.91295597 67.52660727 767.85432563 67.14545176 770.00537109 66.52148438 C770.00537109 67.18148437 770.00537109 67.84148437 770.00537109 68.52148438 C770.68599609 68.17085938 771.36662109 67.82023437 772.06787109 67.45898438 C775.75874504 66.28104588 778.18524617 66.9466088 782.00537109 67.52148438 C784.4078136 67.60947985 786.81225614 67.65206292 789.21630859 67.65429688 C789.86991364 67.6552536 790.52351868 67.65621033 791.19692993 67.65719604 C792.56325376 67.65787091 793.92958093 67.6560655 795.29589844 67.65185547 C797.39574222 67.64644477 799.49537716 67.65185035 801.59521484 67.65820312 C802.91392578 67.65691406 804.23263672 67.655625 805.59130859 67.65429688 C806.79835449 67.65316895 808.00540039 67.65204102 809.24902344 67.65087891 C811.91561764 67.83562812 811.91561764 67.83562812 813.00537109 66.52148438 C815.67622318 66.3731037 817.95038432 66.50941411 820.56787109 67.08398438 C823.10806501 67.53991662 824.58429597 67.32850942 827.00537109 66.52148438 C827.00537109 67.18148437 827.00537109 67.84148437 827.00537109 68.52148438 C831.46527282 68.61584755 835.91966344 68.60849376 840.38037109 68.58398438 C842.25789063 68.62555664 842.25789063 68.62555664 844.17333984 68.66796875 C851.11442955 68.57711679 855.32448018 67.9894362 860.57958984 63.25195312 C862.07619718 61.69537666 863.55429839 60.12059407 865.00537109 58.52148438 C866.00853301 57.61246125 867.02484139 56.71729556 868.06396484 55.84960938 C868.84900391 55.16382813 869.63404297 54.47804687 870.44287109 53.77148438 C871.24595703 53.07539062 872.04904297 52.37929688 872.87646484 51.66210938 C875.07465734 49.45181674 876.41127369 47.17986256 878.00537109 44.52148438 C878.66537109 44.52148438 879.32537109 44.52148438 880.00537109 44.52148438 C880.33537109 43.20148437 880.66537109 41.88148437 881.00537109 40.52148438 C882.65537109 40.85148437 884.30537109 41.18148437 886.00537109 41.52148438 C886.00537109 42.51148438 886.00537109 43.50148437 886.00537109 44.52148438 C886.66537109 44.52148438 887.32537109 44.52148438 888.00537109 44.52148438 C888.06724609 45.47023437 888.12912109 46.41898438 888.19287109 47.39648438 C888.46099609 48.42773438 888.72912109 49.45898438 889.00537109 50.52148438 C891.46792794 51.97439711 891.46792794 51.97439711 894.00537109 52.52148438 C894.00537109 53.18148437 894.00537109 53.84148438 894.00537109 54.52148438 C891.69537109 54.85148437 889.38537109 55.18148437 887.00537109 55.52148438 C887.09274396 58.56447028 887.19967735 61.60466803 887.31787109 64.64648438 C887.34042969 65.50242187 887.36298828 66.35835938 887.38623047 67.24023438 C887.60609658 72.43706968 888.34396546 75.93906415 891.00537109 80.52148438 C891.58280405 82.1131265 892.12895636 83.7167841 892.63037109 85.33398438 C893.38558088 88.18345413 893.38558088 88.18345413 895.00537109 90.52148438 C895.33537109 87.22148438 895.66537109 83.92148438 896.00537109 80.52148438 C901.61537109 80.52148438 907.22537109 80.52148438 913.00537109 80.52148438 C913.16899222 83.98176821 913.28703492 87.43415692 913.38037109 90.89648438 C913.45578125 92.34474609 913.45578125 92.34474609 913.53271484 93.82226562 C913.66294922 100.29057278 912.58129131 104.93772775 909.09896851 110.41879272 C905.7316429 113.80074543 902.56206847 113.72601432 897.93997192 113.80691528 C896.76788177 113.77717621 895.59579163 113.74743713 894.38818359 113.71679688 C893.17589081 113.72484344 891.96359802 113.73289001 890.71456909 113.74118042 C886.85153302 113.75615282 882.99297033 113.70224116 879.13037109 113.64648438 C876.50797469 113.64454234 873.88557083 113.64709431 871.26318359 113.65429688 C864.84291444 113.6621211 858.4249449 113.61342903 852.00537109 113.52148438 C852.01697266 114.14796875 852.02857422 114.77445312 852.04052734 115.41992188 C852.0540625 116.64582031 852.0540625 116.64582031 852.06787109 117.89648438 C852.07947266 118.70859375 852.09107422 119.52070312 852.10302734 120.35742188 C852.00537109 122.52148438 852.00537109 122.52148438 851.00537109 124.52148438 C854.63537109 124.52148438 858.26537109 124.52148438 862.00537109 124.52148438 C862.17983913 130.71030649 862.30610486 136.89766376 862.38989258 143.08837891 C862.42485824 145.18921885 862.47244907 147.28989143 862.53344727 149.39013672 C863.15922654 171.50801578 863.15922654 171.50801578 855.00537109 181.52148438 C854.18708695 182.69465595 853.37037146 183.8689254 852.55615234 185.04492188 C851.81751953 185.9859375 851.07888672 186.92695313 850.31787109 187.89648438 C849.90851318 188.41903809 849.49915527 188.9415918 849.07739258 189.47998047 C835.13764468 207.09548697 835.13764468 207.09548697 830.00537109 211.52148438 C829.34537109 211.52148438 828.68537109 211.52148438 828.00537109 211.52148438 C828.00537109 212.18148437 828.00537109 212.84148437 828.00537109 213.52148438 C825.98091833 215.29705389 823.95253312 216.94964681 821.81787109 218.58398438 C821.18147705 219.07495605 820.54508301 219.56592773 819.8894043 220.07177734 C817.93669932 221.56685868 815.97391508 223.04733504 814.00537109 224.52148438 C813.18117676 225.14047607 813.18117676 225.14047607 812.34033203 225.77197266 C779.07458538 250.47683454 740.95981282 256.6945033 700.46138 256.65278625 C698.52087795 256.65449191 696.58037624 256.65664319 694.63987511 256.65919751 C690.44638901 256.66376526 686.25291761 256.66522115 682.05942917 256.66423225 C675.23478879 256.66262978 668.41016285 256.66786193 661.58552551 256.67385864 C651.68034685 256.68194771 641.77517074 256.68690695 631.8699894 256.69014931 C616.22037808 256.69565857 600.5707884 256.71256631 584.92118835 256.73149109 C582.25312832 256.73465575 579.58506828 256.73781345 576.91700822 256.74095708 C576.25316168 256.74173974 575.58931513 256.74252239 574.90535203 256.74332877 C573.56026412 256.74491429 572.21517621 256.74649911 570.8700883 256.74808325 C569.52015161 256.74967452 568.17021492 256.75126877 566.82027824 256.75286599 C550.92763178 256.77166567 535.03498383 256.78876945 519.14233398 256.80444336 C518.10010391 256.80547674 518.10010391 256.80547674 517.03681868 256.806531 C494.46617758 256.82883204 471.89554313 256.84064347 449.32489278 256.84810992 C425.44293221 256.85608831 401.56102579 256.87901563 377.67909306 256.91676778 C363.38205717 256.93882108 349.08512031 256.94844882 334.78806826 256.94226744 C325.00508057 256.93910145 315.22217777 256.95036584 305.43921635 256.97316185 C299.79008771 256.98587055 294.14114813 256.99194998 288.49201202 256.98074532 C283.32649995 256.97063089 278.16135617 256.97871323 272.9958879 257.00160827 C271.12212435 257.00663202 269.24832815 257.00481916 267.37458018 256.9956756 C264.83746737 256.98426297 262.30162969 256.99719386 259.76459217 257.016469 C258.66053532 257.00268467 258.66053532 257.00268467 257.53417429 256.98862186 C254.07115888 257.04070331 252.35163354 257.23199386 249.65263718 259.48847264 C248.83724047 260.49481345 248.83724047 260.49481345 248.00537109 261.52148438 C245.88989258 262.5546875 245.88989258 262.5546875 243.62646484 263.30273438 C242.37651733 263.7271582 242.37651733 263.7271582 241.10131836 264.16015625 C240.22403076 264.44439453 239.34674316 264.72863281 238.44287109 265.02148438 C236.62736372 265.62443834 234.81225536 266.22859513 232.99755859 266.83398438 C231.6957666 267.26517578 231.6957666 267.26517578 230.36767578 267.70507812 C227.54260944 268.68141358 224.81565607 269.84735667 222.06787109 271.02148438 C216.96999246 272.91725799 212.63863633 272.3972605 207.31005859 271.75195312 C202.05660146 271.38557727 197.12265006 272.40582536 192.00537109 273.52148438 C192.00537109 274.18148438 192.00537109 274.84148437 192.00537109 275.52148438 C190.18005859 275.86179687 190.18005859 275.86179687 188.31787109 276.20898438 C181.09737034 277.81605508 174.3188752 280.6975029 167.52270508 283.57128906 C158.65895462 287.31185698 149.68787506 290.73809619 140.69287109 294.14648438 C138.41993122 295.00830842 136.14722769 295.87073296 133.87519836 296.73495483 C132.47550335 297.26732954 131.07530174 297.79837516 129.67448425 298.32778931 C126.48013999 299.54241597 123.33040061 300.81178481 120.21166992 302.20654297 C117.00537109 303.52148438 117.00537109 303.52148438 114.00537109 303.52148438 C114.00537109 304.18148438 114.00537109 304.84148437 114.00537109 305.52148438 C113.34150391 305.71484375 112.67763672 305.90820312 111.99365234 306.10742188 C106.47007074 307.73037492 106.47007074 307.73037492 101.06787109 309.70898438 C99.00537109 310.52148438 99.00537109 310.52148438 96.00537109 310.52148438 C96.00537109 311.18148438 96.00537109 311.84148437 96.00537109 312.52148438 C93.03537109 313.51148438 90.06537109 314.50148438 87.00537109 315.52148438 C87.33537109 318.49148438 87.66537109 321.46148437 88.00537109 324.52148438 C86.68537109 324.52148438 85.36537109 324.52148438 84.00537109 324.52148438 C82.24153228 325.15062433 80.49277231 325.82264143 78.75537109 326.52148438 C73.69151569 328.30218078 69.25935861 328.72235605 63.94287109 328.52148438 C57.85386518 328.29740665 53.11703187 329.02366694 47.53271484 331.54882812 C45.00537109 332.52148438 45.00537109 332.52148438 41.90771484 332.87011719 C37.28923782 333.64101913 33.35618645 335.14966863 29.04052734 336.91601562 C28.1821376 337.2596666 27.32374786 337.60331757 26.43934631 337.9573822 C24.60013387 338.69431301 22.76225141 339.43457036 20.92559814 340.17785645 C16.0928548 342.13300102 11.25003714 344.06286952 6.40771484 345.99414062 C5.43870239 346.38121185 4.46968994 346.76828308 3.47131348 347.16708374 C-8.81840475 352.06458069 -21.21478712 356.66976432 -33.62255859 361.2578125 C-38.25201227 362.99268451 -42.85348836 364.79754275 -47.45214844 366.61230469 C-49.99462891 367.52148438 -49.99462891 367.52148438 -51.99462891 367.52148438 C-52.32462891 368.51148438 -52.65462891 369.50148438 -52.99462891 370.52148438 C-55.93603516 371.90820313 -55.93603516 371.90820313 -59.55712891 373.20898438 C-60.75466797 373.64597656 -61.95220703 374.08296875 -63.18603516 374.53320312 C-64.11287109 374.85933594 -65.03970703 375.18546875 -65.99462891 375.52148438 C-65.33462891 376.18148438 -64.67462891 376.84148437 -63.99462891 377.52148438 C-63.79931641 379.90429688 -63.79931641 379.90429688 -63.86962891 382.64648438 C-63.88767578 383.5565625 -63.90572266 384.46664063 -63.92431641 385.40429688 C-63.94751953 386.10296875 -63.97072266 386.80164063 -63.99462891 387.52148438 C-69.18668276 387.54646835 -74.37870051 387.56447686 -79.57080078 387.57641602 C-81.3318747 387.58140079 -83.09294458 387.58819103 -84.85400391 387.59692383 C-107.86963494 387.70807886 -107.86963494 387.70807886 -113.99462891 386.52148438 C-116.19515485 384.32095843 -116.3875681 383.47006541 -116.99462891 380.52148438 C-117.32451137 379.18729307 -117.65736197 377.85382814 -117.99462891 376.52148438 C-115.53892716 375.18309705 -113.08032974 373.85062205 -110.61962891 372.52148438 C-109.92095703 372.13992188 -109.22228516 371.75835937 -108.50244141 371.36523438 C-103.22119141 368.52148438 -103.22119141 368.52148438 -100.99462891 368.52148438 C-100.99462891 366.54148437 -100.99462891 364.56148438 -100.99462891 362.52148438 C-99.11962891 361.45898438 -99.11962891 361.45898438 -96.99462891 360.52148438 C-96.33462891 360.85148437 -95.67462891 361.18148438 -94.99462891 361.52148438 C-94.99462891 362.18148438 -94.99462891 362.84148437 -94.99462891 363.52148438 C-90.15844582 362.18051448 -85.41846953 360.69014144 -80.68212891 359.02148438 C-79.46912109 358.59867187 -78.25611328 358.17585938 -77.00634766 357.74023438 C-73.94054261 356.7275463 -73.94054261 356.7275463 -71.99462891 354.52148438 C-70.11198715 353.87031224 -68.20443931 353.29034126 -66.28759766 352.74804688 C-58.79799056 350.52121242 -51.57173366 347.75980276 -44.30712891 344.89648438 C-42.95397834 344.36723965 -41.60062176 343.83852138 -40.24707031 343.31030273 C-37.49806289 342.23729165 -34.7497858 341.1624413 -32.00195312 340.08642578 C-25.9677641 337.72651747 -19.91870341 335.40543665 -13.86962891 333.08398438 C-11.86700857 332.3144952 -9.86440378 331.54496559 -7.86181641 330.77539062 C-6.90887695 330.40945801 -5.9559375 330.04352539 -4.97412109 329.66650391 C-2.86501506 328.85597397 -0.75633275 328.04434108 1.35205078 327.23193359 C2.47256836 326.80025879 3.59308594 326.36858398 4.74755859 325.92382812 C5.83423828 325.50464111 6.92091797 325.0854541 8.04052734 324.65356445 C10.39392605 323.75495528 12.75357037 322.88526949 15.12255859 322.02929688 C21.25589266 319.74256351 27.1345922 316.81216034 33.04833984 314.01757812 C37.69204876 311.86499228 41.8326416 309.95689932 47.00537109 309.52148438 C47.00537109 308.86148437 47.00537109 308.20148438 47.00537109 307.52148438 C47.99537109 307.52148438 48.98537109 307.52148438 50.00537109 307.52148438 C50.21162109 306.63460938 50.41787109 305.74773437 50.63037109 304.83398438 C52.40610142 300.55608859 54.25572676 299.17748244 58.00537109 296.52148438 C58.66537109 296.52148438 59.32537109 296.52148438 60.00537109 296.52148438 C60.00537109 295.53148437 60.00537109 294.54148437 60.00537109 293.52148438 C60.66537109 293.52148438 61.32537109 293.52148438 62.00537109 293.52148438 C62.34568359 291.91273438 62.34568359 291.91273438 62.69287109 290.27148438 C64.19295796 285.98552191 65.01852167 284.64214896 69.00537109 282.52148438 C73.48762696 281.73241211 76.85758727 281.89768882 80.88037109 284.08398438 C83.00537109 286.52148438 83.00537109 286.52148438 84.44287109 290.20898438 C85.64364239 293.68423392 85.64364239 293.68423392 88.50537109 294.64648438 C93.54004917 294.46667444 98.30386508 293.33961362 103.00537109 291.52148438 C103.33537109 290.86148437 103.66537109 290.20148438 104.00537109 289.52148438 C105.72363463 288.82757025 107.44204304 288.13400958 109.16162109 287.44335938 C111.9969203 286.02570977 113.87547126 283.82887586 116.00537109 281.52148438 C119.04398053 279.49574475 121.3429572 278.72982898 124.82958984 277.73242188 C131.99370752 275.58685844 138.8823273 272.93300526 145.81787109 270.14648438 C148.27063319 269.17161248 150.72375654 268.197649 153.17724609 267.22460938 C154.34707031 266.75990234 155.51689453 266.29519531 156.72216797 265.81640625 C164.09001694 262.91046701 171.49075517 260.02635635 179.00537109 257.52148438 C178.35978298 257.52240617 177.71419487 257.52332796 177.04904348 257.52427769 C138.80361338 257.57787227 100.5583728 257.58990891 62.31292303 257.54782474 C57.72285718 257.54280999 53.13279104 257.53814318 48.54272461 257.53369141 C47.62890804 257.53279927 46.71509147 257.53190714 45.77358349 257.53098798 C30.96855729 257.51736444 16.16368591 257.53194079 1.35868023 257.55690134 C-13.82766168 257.5818785 -29.01377531 257.57663783 -44.20010215 257.54322529 C-53.57437178 257.52355633 -62.94802083 257.52758193 -72.32225148 257.56172067 C-78.74669405 257.58286124 -85.17067897 257.57470412 -91.59507813 257.5433256 C-95.30437333 257.52607935 -99.01249006 257.52192587 -102.72172546 257.55250359 C-106.74089928 257.58529931 -110.75725895 257.55648483 -114.77641296 257.52148438 C-115.95247894 257.54089616 -117.12854491 257.56030794 -118.34024924 257.58030796 C-126.03816732 257.44141597 -126.03816732 257.44141597 -128.79637778 254.78854942 C-130.10479583 252.73988593 -131.08006835 250.76973019 -131.99462891 248.52148438 C-132.54546143 247.44463379 -133.09629395 246.3677832 -133.66381836 245.25830078 C-134.14036865 244.22366699 -134.61691895 243.1890332 -135.10791016 242.12304688 C-135.63320312 240.98480469 -136.15849609 239.8465625 -136.69970703 238.67382812 C-137.23015625 237.50980469 -137.76060547 236.34578125 -138.30712891 235.14648438 C-138.85691406 233.95925781 -139.40669922 232.77203125 -139.97314453 231.54882812 C-143.99462891 222.78648826 -143.99462891 222.78648826 -143.99462891 220.52148438 C-144.81608398 220.41642578 -145.63753906 220.31136719 -146.48388672 220.203125 C-150.58213062 219.40741589 -154.27228789 218.09124789 -158.16650391 216.61523438 C-159.31194672 216.18809143 -159.31194672 216.18809143 -160.48052979 215.75231934 C-162.90382326 214.84709561 -165.32417592 213.93427212 -167.74462891 213.02148438 C-169.38637946 212.40773072 -171.02830489 211.7944446 -172.67041016 211.18164062 C-184.60800764 206.71479501 -184.60800764 206.71479501 -186.99462891 205.52148438 C-187.57299805 203.42358398 -187.57299805 203.42358398 -188.02978516 200.67382812 C-188.19929687 199.67544922 -188.36880859 198.67707031 -188.54345703 197.6484375 C-188.71296875 196.59591797 -188.88248047 195.54339844 -189.05712891 194.45898438 C-189.23050781 193.43353516 -189.40388672 192.40808594 -189.58251953 191.3515625 C-190.8814959 183.57263502 -192.14701489 175.93145057 -192.05712891 168.02148438 C-192.04810547 166.97992188 -192.03908203 165.93835938 -192.02978516 164.86523438 C-192.01818359 164.09179688 -192.00658203 163.31835938 -191.99462891 162.52148438 C-191.00462891 162.52148438 -190.01462891 162.52148438 -188.99462891 162.52148438 C-188.49962891 160.54148438 -188.49962891 160.54148438 -187.99462891 158.52148438 C-184.04370832 158.44739037 -180.09305596 158.39291031 -176.14160156 158.35668945 C-174.13543517 158.33416187 -172.12946364 158.29604867 -170.12353516 158.2578125 C-168.86669922 158.24814453 -167.60986328 158.23847656 -166.31494141 158.22851562 C-165.15236816 158.21280518 -163.98979492 158.19709473 -162.79199219 158.1809082 C-161.8688623 158.29329834 -160.94573242 158.40568848 -159.99462891 158.52148438 C-159.33462891 159.51148438 -158.67462891 160.50148437 -157.99462891 161.52148438 C-157.66462891 146.01148438 -157.33462891 130.50148437 -156.99462891 114.52148438 C-152.37462891 114.52148438 -147.75462891 114.52148438 -142.99462891 114.52148438 C-142.87869385 113.33184082 -142.76275879 112.14219727 -142.64331055 110.91650391 C-142.20919165 106.46222731 -141.77490763 102.00796682 -141.34057617 97.55371094 C-141.15335731 95.63346787 -140.966182 93.71322055 -140.77905273 91.79296875 C-140.50858086 89.01756667 -140.23794737 86.24218039 -139.96728516 83.46679688 C-139.84378441 82.19897873 -139.84378441 82.19897873 -139.7177887 80.9055481 C-139.55806214 79.26831324 -139.39553823 77.63134851 -139.23001099 75.99468994 C-139.06500371 74.26092618 -138.9219037 72.52500331 -138.7951355 70.7880249 C-138.72489166 69.89939758 -138.65464783 69.01077026 -138.58227539 68.09521484 C-138.5257933 67.29308563 -138.46931122 66.49095642 -138.41111755 65.66452026 C-137.72804793 62.14979606 -135.81958104 60.53930733 -132.99462891 58.52148438 C-132.00462891 58.52148438 -131.01462891 58.52148438 -129.99462891 58.52148438 C-130.32462891 57.86148438 -130.65462891 57.20148437 -130.99462891 56.52148438 C-131.06458904 54.81445702 -131.07903044 53.10480435 -131.05712891 51.39648438 C-131.04810547 50.48640625 -131.03908203 49.57632813 -131.02978516 48.63867188 C-131.01818359 47.94 -131.00658203 47.24132813 -130.99462891 46.52148438 C-128.1867066 47.82256906 -126.40994812 49.02089921 -123.99462891 51.08398438 C-121.25518832 53.30977985 -120.256333 53.89585579 -116.99462891 54.52148438 C-115.24638401 67.4909674 -114.02379692 80.48767542 -112.86962891 93.52148438 C-112.68629071 95.56838228 -112.50269859 97.61525746 -112.31884766 99.66210938 C-111.87405436 104.6149428 -111.43444669 109.56819673 -110.99462891 114.52148438 C-99.77462891 114.52148438 -88.55462891 114.52148438 -76.99462891 114.52148438 C-76.99462891 131.68148437 -76.99462891 148.84148437 -76.99462891 166.52148438 C-71.05462891 166.52148438 -65.11462891 166.52148438 -58.99462891 166.52148438 C-58.99462891 164.21148437 -58.99462891 161.90148437 -58.99462891 159.52148438 C-62.29462891 159.52148438 -65.59462891 159.52148438 -68.99462891 159.52148438 C-69.01774757 142.71924566 -69.03560796 125.91701326 -69.04644108 109.11476231 C-69.05160409 101.31372601 -69.05864687 93.51269977 -69.07006836 85.71166992 C-69.08001505 78.91472124 -69.0864823 72.11777984 -69.0887174 65.32082409 C-69.09002453 61.71970306 -69.09311054 58.11860285 -69.10035896 54.51748848 C-69.10837255 50.50391835 -69.10862005 46.49038473 -69.1081543 42.47680664 C-69.11174957 41.27415665 -69.11534485 40.07150665 -69.11904907 38.83241272 C-69.11767441 37.74561218 -69.11629974 36.65881165 -69.11488342 35.53907776 C-69.11580522 34.58870919 -69.11672701 33.63834063 -69.11767673 32.65917301 C-68.99462891 30.52148438 -68.99462891 30.52148438 -67.99462891 29.52148438 C-65.70311473 29.43357462 -63.40890366 29.41454399 -61.11572266 29.42382812 C-60.08572899 29.42595055 -60.08572899 29.42595055 -59.03492737 29.42811584 C-56.8339509 29.43372958 -54.63307482 29.44628431 -52.43212891 29.45898438 C-50.94319808 29.46399761 -49.45426566 29.46856082 -47.96533203 29.47265625 C-44.30836085 29.48285416 -40.65160774 29.50242658 -36.99462891 29.52148438 C-36.99462891 22.26148437 -36.99462891 15.00148437 -36.99462891 7.52148438 C-40.29462891 7.52148438 -43.59462891 7.52148438 -46.99462891 7.52148438 C-46.99462891 6.53148437 -46.99462891 5.54148437 -46.99462891 4.52148438 C-31.56420648 -0.27253929 -15.98533182 -0.09839636 0 0 Z M739.00537109 74.52148438 C739.00537109 76.50148438 739.00537109 78.48148437 739.00537109 80.52148438 C737.35537109 80.19148438 735.70537109 79.86148438 734.00537109 79.52148438 C731.85701145 81.76891643 731.85701145 81.76891643 730.00537109 84.52148438 C730.22254461 86.72948966 730.22254461 86.72948966 731.00537109 88.52148438 C730.67537109 88.85148437 730.34537109 89.18148437 730.00537109 89.52148438 C729.91677264 92.16438589 729.89013747 94.78099752 729.90771484 97.42382812 C729.90912979 98.21672745 729.91054474 99.00962677 729.91200256 99.82655334 C729.91761761 102.37073475 729.9301659 104.91482943 729.94287109 107.45898438 C729.94788474 109.17187373 729.95244788 110.88476446 729.95654297 112.59765625 C729.96779412 116.90562932 729.98592687 121.21354123 730.00537109 125.52148438 C730.00537109 133.18815104 730.00537109 140.85481771 730.00537109 148.52148438 C734.04342975 147.15881794 736.54905228 145.38056927 739.63037109 142.45898438 C744.07299869 138.34126537 748.65479481 134.46955502 753.36474609 130.66210938 C754.23615234 129.95570313 755.10755859 129.24929687 756.00537109 128.52148438 C757.55285034 127.5227832 757.55285034 127.5227832 759.1315918 126.50390625 C761.09746034 124.85059642 761.90158661 123.93066662 762.53823853 121.42059326 C762.71659079 118.81503879 762.70615924 116.27260179 762.62646484 113.66210938 C762.62034683 112.71712585 762.61422882 111.77214233 762.60792542 110.79852295 C762.58103113 107.78841605 762.51186768 104.78088957 762.44287109 101.77148438 C762.42134444 99.731146 762.40243441 97.69077822 762.38623047 95.65039062 C763.04222758 87.0054185 763.04222758 87.0054185 761.00537109 79.52148438 C758.36961566 79.42124312 755.76582865 79.38273416 753.13037109 79.39648438 C752.03015625 79.39068359 752.03015625 79.39068359 750.90771484 79.38476562 C747.68103871 79.390643 745.08693688 79.49429578 742.00537109 80.52148438 C742.00537109 78.54148437 742.00537109 76.56148438 742.00537109 74.52148438 C741.01537109 74.52148438 740.02537109 74.52148438 739.00537109 74.52148438 Z M766.00537109 79.52148438 C765.98246596 85.76949523 765.9625377 92.01736153 765.95043945 98.26538086 C765.94539811 100.39266452 765.93856518 102.51994469 765.92993164 104.6472168 C765.9178573 107.69776263 765.91214095 110.74826283 765.90771484 113.79882812 C765.90255356 114.75611313 765.89739227 115.71339813 765.89207458 116.69969177 C765.89199905 117.58052933 765.89192352 118.46136688 765.8918457 119.36889648 C765.88962509 120.14833115 765.88740448 120.92776581 765.88511658 121.7308197 C765.80965723 123.54514973 765.80965723 123.54514973 767.00537109 124.52148438 C769.21187765 124.62160839 771.42159496 124.65229617 773.63037109 124.65429688 C774.29246582 124.6552536 774.95456055 124.65621033 775.63671875 124.65719604 C777.0389007 124.65787764 778.4410858 124.65602479 779.84326172 124.65185547 C781.99632823 124.64650684 784.14918612 124.65180107 786.30224609 124.65820312 C787.66162156 124.65754234 789.02099689 124.65626117 790.38037109 124.65429688 C791.62560547 124.65316895 792.87083984 124.65204102 794.15380859 124.65087891 C796.9044254 124.84720564 796.9044254 124.84720564 798.00537109 123.52148438 C798.09815439 122.13988323 798.12284152 120.753604 798.11889648 119.36889648 C798.11882095 118.48805893 798.11874542 117.60722137 798.1186676 116.69969177 C798.11350632 115.74240677 798.10834503 114.78512177 798.10302734 113.79882812 C798.1016124 112.8236171 798.10019745 111.84840607 798.09873962 110.84364319 C798.09312242 107.71539295 798.08056702 104.58721314 798.06787109 101.45898438 C798.06285831 99.34375103 798.05829502 97.22851657 798.05419922 95.11328125 C798.0439964 89.91596637 798.02442441 84.71880462 798.00537109 79.52148438 C787.44537109 79.52148438 776.88537109 79.52148438 766.00537109 79.52148438 Z M802.00537109 79.52148438 C802.00537109 91.07148437 802.00537109 102.62148437 802.00537109 114.52148438 C803.32537109 113.53148437 804.64537109 112.54148438 806.00537109 111.52148438 C806.91029297 111.28300781 807.81521484 111.04453125 808.74755859 110.79882812 C813.5084285 108.93215611 816.52686127 105.6373526 820.13037109 102.08398438 C821.5271929 100.72945167 822.92557971 99.37653057 824.32568359 98.02539062 C824.93686035 97.4254126 825.54803711 96.82543457 826.17773438 96.20727539 C828.00537109 94.52148438 828.00537109 94.52148438 830.23535156 92.92749023 C830.81945801 92.4635083 831.40356445 91.99952637 832.00537109 91.52148438 C832.00537109 90.86148438 832.00537109 90.20148438 832.00537109 89.52148438 C832.66537109 89.52148438 833.32537109 89.52148438 834.00537109 89.52148438 C834.00537109 88.86148438 834.00537109 88.20148438 834.00537109 87.52148438 C834.66537109 87.52148438 835.32537109 87.52148438 836.00537109 87.52148438 C836.33537109 85.21148437 836.66537109 82.90148437 837.00537109 80.52148438 C838.98537109 80.52148438 840.96537109 80.52148438 843.00537109 80.52148438 C843.00537109 80.19148438 843.00537109 79.86148438 843.00537109 79.52148438 C829.47537109 79.52148438 815.94537109 79.52148438 802.00537109 79.52148438 Z M639.00537109 131.52148438 C639.00537109 132.18148437 639.00537109 132.84148437 639.00537109 133.52148438 C638.34537109 133.19148437 637.68537109 132.86148438 637.00537109 132.52148438 C634.75416367 132.43575043 632.50037807 132.4143625 630.24755859 132.42382812 C629.58450714 132.42524307 628.92145569 132.42665802 628.23831177 132.42811584 C626.11895247 132.43371684 623.99969851 132.44626937 621.88037109 132.45898438 C620.4441747 132.46399925 619.00797666 132.46856218 617.57177734 132.47265625 C614.04960765 132.48368655 610.52749965 132.50095179 607.00537109 132.52148438 C607.00537109 133.51148438 607.00537109 134.50148437 607.00537109 135.52148438 C606.22096425 135.27779117 606.22096425 135.27779117 605.4207108 135.02917486 C602.35575016 134.3849378 599.49378519 134.39744104 596.35993576 134.39843655 C595.69010115 134.3972827 595.02026654 134.39612886 594.33013391 134.39494005 C592.07559427 134.39228378 589.82112539 134.39678742 587.56658936 134.40122986 C585.93796562 134.40079395 584.30934195 134.39991869 582.68071866 134.39864069 C578.19752705 134.3963995 573.71435923 134.40041192 569.23117065 134.40541875 C564.39956665 134.40972843 559.56796403 134.40827646 554.73635864 134.40751648 C546.36265494 134.40699157 537.98895901 134.4101349 529.61525726 134.41575432 C517.5082194 134.42387382 505.40118531 134.426485 493.29414502 134.42774231 C473.65231199 134.42993212 454.01048312 134.43659029 434.36865234 134.44604492 C415.28597026 134.45522087 396.20328931 134.46230081 377.12060547 134.46655273 C375.94478011 134.46681546 374.76895474 134.46707818 373.55749831 134.46734887 C367.65885678 134.46865388 361.76021524 134.4699176 355.8615737 134.47116077 C306.90950329 134.48153117 257.9574374 134.49914756 209.00537109 134.52148438 C209.00537109 138.15148437 209.00537109 141.78148437 209.00537109 145.52148438 C349.25537109 145.52148438 489.50537109 145.52148438 634.00537109 145.52148438 C634.00537109 151.13148438 634.00537109 156.74148437 634.00537109 162.52148438 C644.49736249 162.61182474 654.98909591 162.68522289 665.48138809 162.72873306 C670.35329885 162.74961493 675.22492991 162.77794352 680.09667969 162.82324219 C684.79752098 162.86667857 689.4980931 162.89061696 694.19911957 162.90099335 C695.99331653 162.9083887 697.78749863 162.92283005 699.58158112 162.9444046 C702.09328637 162.97340975 704.60387708 162.97744167 707.11572266 162.97558594 C707.85875137 162.98996704 708.60178009 163.00434814 709.36732483 163.01916504 C712.82827487 162.99146587 714.67459761 162.77298569 717.46612549 160.65046692 C719.38461849 157.9969345 719.52071729 156.46052945 719.53662109 153.20507812 C719.54177734 152.19380859 719.54693359 151.18253906 719.55224609 150.140625 C719.53677734 149.09068359 719.52130859 148.04074219 719.50537109 146.95898438 C719.52083984 145.90517578 719.53630859 144.85136719 719.55224609 143.765625 C719.54708984 142.75564453 719.54193359 141.74566406 719.53662109 140.70507812 C719.52985352 139.32147095 719.52985352 139.32147095 719.52294922 137.90991211 C719.21032483 135.44048885 719.21032483 135.44048885 717.4067688 133.89448547 C714.16397251 132.04041405 711.79318949 132.15413557 708.06542969 132.16503906 C707.37555466 132.16299469 706.68567963 132.16095032 705.97489929 132.15884399 C703.70093032 132.15584256 701.42769104 132.17429063 699.15380859 132.19335938 C697.57248107 132.19641779 695.99115086 132.19829328 694.40982056 132.19903564 C691.09944311 132.20363442 687.7893095 132.21804585 684.47900391 132.24023438 C680.23067942 132.26856265 675.98254655 132.279451 671.73413658 132.28391647 C668.47083614 132.2880676 665.2075746 132.29788176 661.94429398 132.30979156 C660.37735938 132.31549717 658.81042105 132.32025491 657.24348068 132.32405853 C655.05776097 132.33091373 652.8721944 132.34454137 650.68652344 132.36035156 C648.81932144 132.37059357 648.81932144 132.37059357 646.91439819 132.38104248 C644.06728388 132.32237696 644.06728388 132.32237696 642.00537109 133.52148438 C642.00537109 132.86148438 642.00537109 132.20148438 642.00537109 131.52148438 C641.01537109 131.52148438 640.02537109 131.52148438 639.00537109 131.52148438 Z " fill="#020202" transform="translate(191.99462890625,-0.521484375)"/>
<path d="M0 0 C3.96 0 7.92 0 12 0 C12.33 0.66 12.66 1.32 13 2 C9.04 1.67 5.08 1.34 1 1 C1.33 11.89 1.66 22.78 2 34 C3.485 33.505 3.485 33.505 5 33 C4.690625 33.598125 4.38125 34.19625 4.0625 34.8125 C2.61867621 37.7850784 1.77208986 40.80134201 1 44 C0.67 44 0.34 44 0 44 C0 29.48 0 14.96 0 0 Z " fill="#262626" transform="translate(993,78)"/>
<path d="M0 0 C1.65 0 3.3 0 5 0 C5 0.33 5 0.66 5 1 C7.97 1.495 7.97 1.495 11 2 C11 9.59 11 17.18 11 25 C10.67 25 10.34 25 10 25 C10 17.74 10 10.48 10 3 C6.7 3 3.4 3 0 3 C0 2.01 0 1.02 0 0 Z " fill="#B2B2B2" transform="translate(145,4)"/>
<path d="M0 0 C0.99 1.485 0.99 1.485 2 3 C2.99 2.67 3.98 2.34 5 2 C4.690625 2.598125 4.38125 3.19625 4.0625 3.8125 C2.61867621 6.7850784 1.77208986 9.80134201 1 13 C0.67 13 0.34 13 0 13 C0 8.71 0 4.42 0 0 Z " fill="#323232" transform="translate(993,109)"/>
<path d="M0 0 C1.21236328 0.02707031 1.21236328 0.02707031 2.44921875 0.0546875 C3.37154297 0.08949219 3.37154297 0.08949219 4.3125 0.125 C4.3125 0.455 4.3125 0.785 4.3125 1.125 C3.075 1.2075 1.8375 1.29 0.5625 1.375 C-3.43560336 1.84827372 -5.06711179 3.00069098 -7.6875 6.125 C-8.3475 6.125 -9.0075 6.125 -9.6875 6.125 C-7.58496928 1.27300604 -5.24222142 -0.15194845 0 0 Z " fill="#484848" transform="translate(265.6875,281.875)"/>
<path d="M0 0 C1.65 0 3.3 0 5 0 C5 0.33 5 0.66 5 1 C7.97 1.495 7.97 1.495 11 2 C11 2.33 11 2.66 11 3 C7.37 3 3.74 3 0 3 C0 2.01 0 1.02 0 0 Z " fill="#727272" transform="translate(145,4)"/>
</svg>
