<?xml version="1.0" encoding="UTF-8"?>
<svg version="1.1" xmlns="http://www.w3.org/2000/svg" width="1804" height="1049">
<path d="M0 0 C8.1910629 0.60873247 16.21576534 1.76456279 24.3125 3.125 C27.04760915 3.5777098 29.78343079 4.02597945 32.51953125 4.47265625 C33.25402496 4.59263474 33.98851868 4.71261322 34.74526978 4.83622742 C43.97492617 6.33413529 53.22264279 7.71365912 62.46868896 9.10598755 C89.74796478 13.21421957 89.74796478 13.21421957 103.26586914 15.65258789 C111.30620607 17.09127073 119.37921331 18.2809998 127.46557617 19.43041992 C134.75722954 20.47849797 142.02059239 21.65830528 149.28515625 22.87890625 C161.84299039 24.98875717 174.4183258 26.97556699 187 28.9375 C189.25115452 29.28937218 191.50229365 29.64134285 193.75341797 29.9934082 C198.17243186 30.68436107 202.59154497 31.37467381 207.01074219 32.06445312 C212.09351865 32.85801666 217.17580721 33.65463993 222.2578125 34.453125 C224.88017989 34.86476494 227.50258695 35.27615095 230.125 35.6875 C231.36467529 35.88206787 232.60435059 36.07663574 233.8815918 36.27709961 C240.35886897 37.28948132 246.83900454 38.27834378 253.32421875 39.23828125 C270.62746303 41.80494384 287.8244729 44.66442555 305 48 C305 47.34 305 46.68 305 46 C311.83152041 46.50084247 318.65613105 47.04841795 325.4765625 47.68359375 C344.99204681 49.49988159 364.50332637 50.90072395 384.08068848 51.85675049 C387.22807547 52.01119158 390.37526137 52.16942417 393.52246094 52.32763672 C484.67117278 56.86827125 575.92313596 58.54502318 810.1875 61.25 C811.4841584 61.2496664 812.7808168 61.24933281 814.11676788 61.24898911 C821.47905154 61.24644098 828.84125438 61.23610633 836.20350456 61.21339226 C838.3638877 61.20675011 840.52427458 61.2012001 842.68466377 61.19696236 C854.81951593 61.16832245 866.91808556 60.89164576 879.04184532 60.36687851 C887.23467141 60.01514615 895.41819691 59.81790388 903.61779213 59.73963928 C905.92747008 59.7175377 908.23705935 59.69066683 910.54667664 59.66296387 C915.46857796 59.60472504 920.39053015 59.5520695 925.3125 59.5 C960.38573322 59.12569617 995.36743285 58.51899005 1030.375 56.1875 C1033.12028186 56.00853241 1035.8656819 55.83140943 1038.61108398 55.65429688 C1042.85015294 55.38032259 1047.08915491 55.10541268 1051.32792664 54.82687378 C1060.30361225 54.23714351 1069.28029399 53.66673826 1078.25821686 53.11214256 C1106.57029642 51.36182161 1134.84337652 49.40214158 1163.09716797 46.87826538 C1176.19556806 45.70948866 1189.29879922 44.59668405 1202.4014492 43.47678185 C1207.73193746 43.02113876 1213.06229577 42.56400215 1218.39257812 42.10595703 C1230.72932181 41.04623994 1243.06621477 39.98961157 1255.40625 38.96875 C1268.29578436 37.90071588 1281.17975481 36.77180131 1294.0625 35.625 C1295.27324188 35.51739349 1296.48398376 35.40978699 1297.73141479 35.29891968 C1314.94788037 33.76501694 1332.14765535 32.11663096 1349.33764648 30.3112793 C1358.47537363 29.35244749 1367.61480677 28.47741363 1376.77148438 27.71801758 C1385.63316368 26.97271165 1394.47322716 26.03510333 1403.31713867 25.10522461 C1410.51991381 24.35097489 1417.72362667 23.63913569 1424.9375 23 C1450.55568019 20.71516049 1476.12784129 17.94942357 1501.7043457 15.24511719 C1523.32397967 12.95943691 1544.94609909 10.70078359 1566.578125 8.53515625 C1600.69413229 5.15245424 1600.69413229 5.15245424 1634.73730469 1.11743164 C1635.90293945 0.96781982 1637.06857422 0.81820801 1638.26953125 0.6640625 C1639.24510986 0.53467285 1640.22068848 0.4052832 1641.22583008 0.27197266 C1644.16728691 -0.01640039 1647.0463319 -0.0464027 1650 0 C1652.18009828 5.73505921 1654.18996615 11.4794847 1655.89453125 17.375 C1656.36922852 19.00695312 1656.36922852 19.00695312 1656.85351562 20.671875 C1657.49194776 22.88753358 1658.11959696 25.10632815 1658.73632812 27.328125 C1660.75402427 34.18098434 1663.3753459 39.69307825 1667.38354492 45.60644531 C1669.28027223 48.41501117 1670.79270159 51.31802345 1672.25 54.375 C1673.62997531 57.25124067 1675.0035421 60.00577661 1676.671875 62.7265625 C1678 65 1678 65 1678 67 C1678.56847656 66.855625 1679.13695312 66.71125 1679.72265625 66.5625 C1689.46752169 64.21982784 1695.79486864 65.17948575 1704.75 69.25 C1708.65112449 72.28420794 1710.62229561 75.62313295 1711.38671875 80.43359375 C1711.60039018 85.27435678 1711.18409944 89.36851799 1708.46875 93.4609375 C1704.93499892 97.16385752 1700.35939803 99.89079925 1695.21484375 100.12890625 C1694.11849609 100.06509766 1694.11849609 100.06509766 1693 100 C1693.6496875 101.423125 1693.6496875 101.423125 1694.3125 102.875 C1696.62035983 108.26000627 1699 114.09901325 1699 120 C1690.3356267 121.34843237 1681.66881485 122.6804262 1673 124 C1672.09427246 124.13841309 1671.18854492 124.27682617 1670.25537109 124.41943359 C1657.26851341 126.38948042 1644.23945059 127.94353966 1631.19238281 129.44921875 C1621.69931507 130.54748797 1612.22349649 131.74221068 1602.75 133 C1589.09433694 134.79640689 1575.41783444 136.27231878 1561.71772766 137.67996216 C1560.49620247 137.8055098 1560.49620247 137.8055098 1559.25 137.93359375 C1558.42489426 138.01833954 1557.59978851 138.10308533 1556.74967957 138.19039917 C1550.47559578 138.83847617 1544.20608704 139.52355442 1537.9375 140.22265625 C1512.17357083 143.09096637 1486.39795109 145.59773818 1460.56713867 147.78253174 C1458.09998032 147.99153044 1455.63297289 148.20221654 1453.16601562 148.41357422 C1415.95749441 151.59591354 1378.73205935 154.36678906 1341.45922852 156.67993164 C1337.37016717 156.933778 1333.28131351 157.19062653 1329.19262695 157.45043945 C1307.16431695 158.85003651 1285.13644109 160.15330434 1263.0859375 161.15234375 C1261.74259307 161.21350215 1261.74259307 161.21350215 1260.37211037 161.27589607 C1246.40254952 161.90583724 1232.43277226 162.32415425 1218.45374203 162.6697607 C1210.95862607 162.85657718 1203.4704571 163.13501001 1195.98046875 163.46875 C1195.0183548 163.51157608 1194.05624084 163.55440216 1193.06497192 163.598526 C1192.08511322 163.64214767 1191.10525452 163.68576935 1190.09570312 163.73071289 C1160.94430926 165.0255785 1131.80061902 165.57509605 1102.62457275 165.94140625 C1097.63038209 166.00428393 1092.63623773 166.07054514 1087.64208984 166.13671875 C1077.35352881 166.27258942 1067.06489332 166.4018999 1056.77621078 166.52820969 C1054.06577659 166.56168756 1051.35535184 166.59585442 1048.64492798 166.63015747 C1002.87594753 167.20456823 957.14312285 166.95497251 911.3770591 166.22231978 C906.58223817 166.14599787 901.78736239 166.07442421 896.99243164 166.00537109 C862.93409097 165.51386022 828.90643765 164.6905124 794.87022018 163.33173656 C782.36801664 162.84261713 769.86089367 162.55513729 757.35224056 162.29012299 C751.22124023 162.15493315 745.10984608 161.91143719 738.98828125 161.53515625 C731.37940519 161.06927329 723.77309476 160.84298824 716.15294838 160.64448547 C695.89130584 160.1088661 675.67537544 158.93668701 655.4442749 157.73010254 C650.759913 157.4516228 646.07526094 157.17812125 641.390625 156.90429688 C634.96870884 156.52851133 628.54687277 156.15141322 622.12514877 155.77235794 C612.10024883 155.18071144 602.07498863 154.59572307 592.04908371 154.02134514 C590.61322405 153.93906998 589.17737394 153.85662788 587.74153519 153.77398872 C578.7594689 153.25735476 569.7760358 152.77756767 560.79086304 152.31913757 C544.05256011 151.46193607 527.35593834 150.2128248 510.65054321 148.86480713 C494.23401569 147.54031054 477.81291178 146.34851403 461.37991333 145.24743652 C437.5890092 143.6531571 413.83970769 141.77799045 390.09266663 139.63079834 C383.44072022 139.03175393 376.78497072 138.5018993 370.125 138 C358.78080209 137.13331239 347.4704446 135.95448709 336.15313721 134.796875 C323.94482315 133.55146156 311.73457951 132.45149798 299.5 131.5 C272.89301909 129.42161917 246.36140162 126.61215796 219.83612061 123.68490601 C207.08055954 122.28060052 194.31386208 121.08431144 181.52392578 120.03881836 C173.88583019 119.40032948 166.32030929 118.53798799 158.72851562 117.48632812 C152.48140076 116.67148706 146.21100896 116.13039164 139.9375 115.5625 C131.05675974 114.7378086 122.20391856 113.84254194 113.375 112.5625 C103.89727315 111.19518306 94.395788 110.13611524 84.875 109.125 C81.64971248 108.78150407 78.4244556 108.43772136 75.19921875 108.09375 C74.37109177 108.00545425 73.54296478 107.91715851 72.68974304 107.82618713 C31.72431828 103.44713382 -9.15238752 98.35912931 -50 93 C-50 95.64 -50 98.28 -50 101 C4.21209967 107.63948944 58.43223373 114.20968339 112.72119141 120.19335938 C121.1956529 121.12808038 129.66892387 122.06898042 138.13671875 123.0625 C154.59210596 124.99004188 171.05301248 126.71188652 187.54974365 128.24926758 C200.14875291 129.42384185 212.73407413 130.68464075 225.3125 132.0625 C226.07913971 132.14627899 226.84577942 132.23005798 227.63565063 132.31637573 C231.36723421 132.72426041 235.09868834 133.13331542 238.83007812 133.54296875 C257.56623656 135.59813903 276.30400959 137.43055239 295.09399414 138.91040039 C302.25371247 139.48017036 309.38899001 140.1344115 316.5234375 140.96484375 C327.96805296 142.28735538 339.45205755 143.11948094 350.9375 144 C375.07949979 145.85387385 375.07949979 145.85387385 385.73046875 147.03125 C395.92546202 148.15545481 406.14140604 148.8340275 416.375 149.5 C427.15560948 150.20434868 437.91953769 150.95231624 448.671875 152.01171875 C457.54975353 152.88633635 466.4270759 153.56967016 475.3288269 154.14724731 C480.010012 154.45106735 484.69052671 154.76494988 489.37109375 155.078125 C490.93045403 155.18218407 490.93045403 155.18218407 492.52131653 155.28834534 C501.7986493 155.91110869 511.07322848 156.57007475 520.34765625 157.234375 C562.18073464 160.25501447 562.18073464 160.25501447 604.05322266 162.64691162 C610.33165329 162.95758135 616.60714477 163.31394292 622.8828125 163.67578125 C658.90896497 165.74773188 694.94641106 167.48994551 731 169 C731.76159424 169.03199745 732.52318848 169.0639949 733.30786133 169.09696198 C790.52368794 171.49877654 847.7432088 172.99939713 905 174 C905.87246368 174.01530762 906.74492737 174.03061523 907.64382935 174.04638672 C970.95111668 175.15350348 1034.23463159 175.51898555 1097.54199219 174.17529297 C1103.58414013 174.0471135 1109.62644496 173.9310598 1115.66894531 173.82080078 C1167.23094413 172.87614975 1218.69943006 171.09426131 1270.19985867 168.40597248 C1276.33889404 168.08556681 1282.47819739 167.77077979 1288.61767578 167.45898438 C1298.04409843 166.97989251 1307.47012362 166.49349073 1316.89585876 166.00106049 C1319.26562674 165.87744507 1321.63543527 165.75463116 1324.00524902 165.63189697 C1339.88135347 164.80682116 1355.72813798 163.85701868 1371.56665039 162.46435547 C1376.81268786 162.00592032 1382.06161694 161.63113056 1387.31640625 161.2890625 C1388.14768036 161.2349118 1388.97895447 161.18076111 1389.8354187 161.12496948 C1391.53288744 161.01495954 1393.23037716 160.90527297 1394.92788696 160.79589844 C1428.89186448 158.59277008 1462.80526954 155.65171162 1496.66796875 152.234375 C1499.29147483 151.97070605 1501.91524945 151.70981515 1504.5390625 151.44921875 C1526.11053793 149.30514882 1547.67148493 147.13890723 1569.18212891 144.44506836 C1578.26179796 143.31223485 1587.34791855 142.31415893 1596.44830322 141.36553955 C1615.85572815 139.33736046 1635.17713346 136.77319262 1654.5110321 134.14389038 C1664.77152005 132.75232741 1675.04126087 131.43446016 1685.3125 130.125 C1686.16890076 130.01568146 1687.02530151 129.90636292 1687.90765381 129.79373169 C1692.6048993 129.19421558 1697.30234029 128.59626143 1702 128 C1713.20366598 163.54586419 1713.38526728 196.34675955 1696.125 229.8125 C1695.64113768 230.5961047 1695.15727535 231.3797094 1694.65875053 232.1870597 C1692.92748919 234.97746094 1692.92748919 234.97746094 1691.70991707 238.08062285 C1689.66092933 241.9814329 1687.84973151 244.74981128 1684 247 C1675.67890228 249.25596293 1666.6975906 248.59944894 1658.14535344 248.47339523 C1654.49383005 248.43292074 1650.84274926 248.46246582 1647.1911518 248.48299623 C1640.77447106 248.50943661 1634.35911525 248.49121025 1627.942572 248.44393361 C1618.35492465 248.37352274 1608.76812648 248.3723928 1599.18027342 248.3850271 C1582.90016182 248.40448741 1566.62062272 248.36734263 1550.340662 248.29917145 C1533.94905603 248.23075495 1517.55769436 248.18817305 1501.16594505 248.17803192 C1500.13561904 248.17737961 1499.10529303 248.17672729 1498.04374501 248.17605521 C1492.79591437 248.17285723 1487.54808359 248.17009347 1482.30025262 248.16748796 C1444.51563944 248.14788019 1406.73132291 248.07088535 1368.9468689 247.962677 C1331.65279562 247.8560381 1294.35880166 247.77415591 1257.06460571 247.72555542 C1255.90760051 247.72403702 1254.75059532 247.72251863 1253.55852935 247.72095422 C1241.84430019 247.70560206 1230.13007046 247.69073383 1218.41584026 247.67619795 C1193.6927244 247.64549216 1168.96961399 247.6111109 1144.24650574 247.57481384 C1143.07860155 247.57310345 1141.91069735 247.57139307 1140.70740213 247.56963085 C1086.28211117 247.4896555 1031.85692396 247.36945242 977.43172097 247.24437047 C908.94718032 247.08698747 840.46270162 246.94849488 771.97802734 246.86523438 C771.05730668 246.86411193 770.13658602 246.86298948 769.18796474 246.86183302 C747.50093724 246.8354181 725.81390816 246.81049216 704.12687809 246.78629514 C671.63758679 246.75002864 639.1482995 246.7103453 606.65901352 246.66961337 C604.18318135 246.66651104 601.70734916 246.6634173 599.23151697 246.66032448 C522.27494694 246.56406803 445.31847241 246.42600112 8.07495117 245.30493164 C6.99450687 245.30125979 6.99450687 245.30125979 5.89223541 245.29751377 C-21.4052001 245.20464177 -48.70259415 245.10144525 -76 245 C-76 203.75 -76 162.5 -76 120 C-72.93466836 118.46733418 -69.73245728 118.89723529 -66.375 118.9375 C-65.31539062 118.94426758 -65.31539062 118.94426758 -64.234375 118.95117188 C-62.48954725 118.96296125 -60.744763 118.98089676 -59 119 C-59.33 118.01 -59.66 117.02 -60 116 C-61.25554688 115.84144531 -62.51109375 115.68289063 -63.8046875 115.51953125 C-84.11635681 112.76736597 -84.11635681 112.76736597 -91.625 105.4375 C-93.65182138 100.37044656 -93.80453879 95.38533624 -93 90 C-89.95516796 84.00441782 -85.63106532 80.69392937 -79.3190918 78.58349609 C-71.58781728 76.63826543 -63.12085396 78.35208306 -55.375 79.5 C-54.37082031 79.64308594 -53.36664063 79.78617188 -52.33203125 79.93359375 C-49.88705792 80.28287565 -47.44318049 80.63842724 -45 81 C-44.73832031 79.989375 -44.47664063 78.97875 -44.20703125 77.9375 C-43.10054101 74.08648949 -41.50810289 70.56146113 -39.6875 67 C-39.34847656 66.3299292 -39.00945313 65.6598584 -38.66015625 64.96948242 C-31.11995929 50.27961006 -22.78620012 35.97549102 -14 22 C-12.62372778 19.75077796 -11.24874403 17.50076706 -9.875 15.25 C-6.69909445 10.08444611 -3.40595375 5.01605416 0 0 Z M306 53 C306 58.94 306 64.88 306 71 C320.54197335 72.73612571 335.07844809 73.87312829 349.6875 74.875 C354.75400309 75.22647927 359.82036867 75.5799165 364.88671875 75.93359375 C366.80784988 76.06717033 366.80784988 76.06717033 368.76779175 76.20344543 C376.68809144 76.75726702 384.60453024 77.34797645 392.51953125 77.97265625 C462.03648886 83.41296065 531.80592822 86.51461531 601.49365234 88.81707764 C605.30005997 88.9429301 609.10635542 89.0716956 612.91259766 89.20245361 C647.3568257 90.38353944 681.8032398 91.25298637 716.26188701 91.87611347 C720.91979315 91.96074286 725.57759718 92.04972619 730.23536837 92.14147443 C750.16688009 92.53383754 770.09720792 92.85785269 790.03193474 93.0317049 C798.63403983 93.10779845 807.23403274 93.20894533 815.83483887 93.37924194 C823.18180552 93.52430733 830.52682166 93.6129108 837.87524432 93.63013542 C841.65830505 93.64059699 845.43644149 93.67690702 849.21813393 93.78291321 C863.84491087 94.83323621 863.84491087 94.83323621 877.24323654 90.49359512 C880.89265154 86.84053894 883.11478711 82.68646317 885.12359428 77.96970558 C886.33285344 75.25191808 887.96508541 72.91650008 889.6875 70.5 C890.45963062 69.33419151 891.2311035 68.16794405 892 67 C890.7423584 67.06058594 889.4847168 67.12117187 888.18896484 67.18359375 C803.12384101 71.17694785 717.78504055 68.81892228 547.67016602 64.67773438 C534.64953219 64.23738722 521.6327062 63.86128024 508.60708618 63.6109314 C446.64773182 62.40195724 384.51102339 59.56286828 322.76513672 54.31542969 C317.17892504 53.84743685 311.5897886 53.42292476 306 53 Z " fill="#040404" transform="translate(93,744)"/>
<path d="M0 0 C1.98 0 3.96 0 6 0 C6.32151007 15.16648442 6.63327656 30.33315895 6.9375 45.5 C6.96054577 46.64883793 6.98359154 47.79767586 7.00733566 48.98132706 C7.76905024 87.10090873 8.29957755 125.21802813 8.64594078 163.34348106 C8.69051296 168.24331527 8.73563345 173.14314416 8.78125 178.04296875 C8.78990711 178.97725079 8.79856422 179.91153282 8.80748367 180.87412643 C8.9611315 197.22492973 9.25559522 213.5694029 9.62915039 229.91671753 C10.2630675 258.27215533 10.09176112 286.63936419 10 315 C10.99 315.33 11.98 315.66 13 316 C13.39401607 327.23188641 13.78537892 338.46386195 14.17345428 349.69595528 C14.35377878 354.91274621 14.53498045 360.12950345 14.71826172 365.34619141 C14.89545742 370.39062264 15.07025109 375.43513215 15.24345398 380.479702 C15.30958908 382.39401025 15.37655621 384.30828997 15.44441223 386.22253799 C15.54008737 388.92579177 15.63266758 391.62913653 15.72460938 394.33251953 C15.75266159 395.10505066 15.78071381 395.87758179 15.80961609 396.67352295 C16.04618668 403.79329257 16 410.86137321 16 418 C47.68 418 79.36 418 112 418 C112 414.04 112 410.08 112 406 C117.61 406 123.22 406 129 406 C129 409.96 129 413.92 129 418 C148.14 418 167.28 418 187 418 C187 417.34 187 416.68 187 416 C196.70010455 416.97772937 206.28224768 418.31087641 215.875 420.0625 C216.83164551 420.2368457 217.78829102 420.41119141 218.77392578 420.59082031 C222.27679585 421.24395111 225.61511658 421.87170553 229 423 C229.9504511 425.31215508 230.74143877 427.5627036 231.5 429.9375 C234.63934197 438.97496869 239.35481972 446.64122842 244.50488281 454.65625 C247.08082154 458.69429896 249.56775395 462.78649231 252.0625 466.875 C252.52744873 467.63022949 252.99239746 468.38545898 253.47143555 469.16357422 C253.90496338 469.8701416 254.33849121 470.57670898 254.78515625 471.3046875 C255.16551025 471.92327637 255.54586426 472.54186523 255.93774414 473.17919922 C258.08821101 476.86529022 259.25023477 479.39529135 259.24050903 483.73297119 C259.24463303 485.15479706 259.24463303 485.15479706 259.24884033 486.60534668 C259.24164978 487.63824829 259.23445923 488.6711499 259.22705078 489.73535156 C259.22734283 490.82833557 259.22763489 491.92131958 259.22793579 493.04742432 C259.2265419 496.66190516 259.21097766 500.27618014 259.1953125 503.890625 C259.19158259 506.3959746 259.18873551 508.90132566 259.18673706 511.40667725 C259.17987972 517.32812712 259.16411502 523.2495109 259.14403808 529.17092681 C259.11948006 536.57487555 259.10874607 543.97883345 259.09765625 551.3828125 C259.07620315 564.58857923 259.0424491 577.79428493 259 591 C259.73506649 590.9952897 260.47013298 590.9905794 261.22747421 590.98572636 C300.98065218 590.73529699 340.68885208 591.18235996 380.43237305 592.0765686 C404.35265766 592.61402327 428.26994878 593.08109818 452.1953125 593.3203125 C453.30384079 593.33140863 454.41236908 593.34250477 455.55448914 593.35393715 C466.2881017 593.45968827 477.0217824 593.55356186 487.75560951 593.63459015 C491.67561243 593.66477899 495.59558583 593.69808504 499.51556015 593.73176193 C502.17899233 593.7531479 504.84242035 593.7693948 507.50588989 593.78530884 C516.04897337 593.85005606 524.49475434 594.09137744 533 595 C533.03147521 606.62498791 533.05127383 618.24997521 533.0625 629.875 C533.06335602 630.75498657 533.06421204 631.63497314 533.06509399 632.54162598 C533.09034748 662.03096451 532.88679139 691.5132549 532.5 721 C532.48804218 721.91205956 532.47608437 722.82411911 532.46376419 723.76381683 C532.31774026 734.84266945 532.1633533 745.92138943 532 757 C532.61875 756.505 533.2375 756.01 533.875 755.5 C536 754 536 754 538 754 C538.33 753.01 538.66 752.02 539 751 C540.71164088 749.41284209 542.49327819 747.90010614 544.3125 746.4375 C545.27800781 745.65246094 546.24351562 744.86742187 547.23828125 744.05859375 C549.4693301 742.395563 551.46742245 741.11289037 554 740 C554 739.34 554 738.68 554 738 C555.69903023 736.48259024 557.46072723 735.034872 559.25 733.625 C563.23326314 730.56883686 563.23326314 730.56883686 566.58477402 726.88699722 C570.3065433 723.97920791 573.8440753 724.45991092 578.44049072 724.51898193 C579.89119481 724.51385538 579.89119481 724.51385538 581.37120605 724.50862527 C584.62049105 724.50202278 587.86895483 724.52406209 591.11816406 724.54589844 C593.44384746 724.5470264 595.76953228 724.54639406 598.09521484 724.54412842 C604.41721457 724.54297835 610.73891219 724.56653529 617.06084156 724.59442425 C622.99579334 724.61686087 628.93073321 724.62091467 634.86572167 724.62503174 C646.6211502 724.63378634 658.3764677 724.66040634 670.13183594 724.69824219 C681.55110112 724.73495804 692.97033615 724.76327186 704.38964844 724.78027344 C705.0935285 724.78132433 705.79740856 724.78237523 706.52261832 724.78345796 C710.05377641 724.78867811 713.58493471 724.79373295 717.11609316 724.79870558 C746.41080036 724.84017274 775.705399 724.91092298 805 725 C805.00410889 725.70084717 805.00821777 726.40169434 805.01245117 727.1237793 C805.04543372 730.31253205 805.11608332 733.49938605 805.1875 736.6875 C805.19330078 737.79029297 805.19910156 738.89308594 805.20507812 740.02929688 C805.1802662 746.69799727 805.1802662 746.69799727 808.41040039 752.21875 C812.2617125 754.86786598 815.38935244 755.27696469 820 755 C825.44382451 753.15115394 828.18200011 750.05875165 831.0703125 745.19921875 C832.20818938 742.50751839 832.41717561 740.15954143 832.625 737.25 C832.69976563 736.26515625 832.77453125 735.2803125 832.8515625 734.265625 C832.90054688 733.51796875 832.94953125 732.7703125 833 732 C833.99 732.33 834.98 732.66 836 733 C838.87105001 740.25317898 839.13939814 747.79987098 836.03125 755.0234375 C832.23334128 762.30276255 827.68074794 766.88762736 820 770 C810.57927055 772.35893863 801.64497712 771.32248856 793 767 C793 766.34 793 765.68 793 765 C792.443125 764.773125 791.88625 764.54625 791.3125 764.3125 C789 763 789 763 787.05647278 760.45918274 C782.50803118 756.79958886 778.46459212 757.29464116 772.78393555 757.34057617 C771.65179123 757.33009247 770.51964691 757.31960876 769.35319519 757.30880737 C765.61409203 757.28002484 761.875913 757.2863532 758.13671875 757.29296875 C755.54310443 757.27985578 752.94950032 757.2645528 750.35591125 757.24714661 C744.22904107 757.21131567 738.10248625 757.19755947 731.97552377 757.1945222 C724.9984084 757.18982986 718.02151517 757.15690104 711.04449785 757.12162435 C696.6963276 757.04970953 682.34833799 757.0169034 668 757 C668 769.87 668 782.74 668 796 C663.17393533 796.80434411 658.56601009 797.25695294 653.703125 797.46484375 C652.49112427 797.52124275 652.49112427 797.52124275 651.25463867 797.57878113 C648.58658155 797.70210253 645.91832664 797.82016355 643.25 797.9375 C639.39578467 798.10960333 635.54163307 798.28309631 631.6875 798.45703125 C630.70412659 798.50104065 629.72075317 798.54505005 628.70758057 798.59039307 C622.48940148 798.87285723 616.27607065 799.20501638 610.0625 799.57421875 C586.09990947 800.96116938 562.19141027 801.17083976 538.19628906 801.01416016 C536.92319885 801.0074379 535.65010864 801.00071564 534.33843994 800.99378967 C532.00096006 800.98048693 529.66349757 800.96247623 527.32611084 800.93772888 C519.5338174 800.89232744 511.78375215 801.1592493 503.99975586 801.4934082 C489.8242045 802.08550353 475.66261512 802.14748365 461.47667122 802.13421178 C458.59994077 802.1322929 455.72321648 802.1339947 452.84648621 802.13566166 C444.35018012 802.14055365 435.85389673 802.13605288 427.35759354 802.12877274 C422.53688841 802.1247208 417.71618376 802.12291004 412.89547729 802.12130737 C360.5924944 802.10161742 308.29698853 801.84293395 256 801 C254.62072775 800.9780754 253.24145529 800.9561635 251.86218262 800.93426514 C243.72033264 800.80353529 235.57881749 800.66052464 227.4375 800.5 C226.51462189 800.48212433 225.59174377 800.46424866 224.64089966 800.4458313 C222.11335384 800.39509285 219.58597965 800.33936477 217.05859375 800.28125 C216.39117157 800.26770981 215.72374939 800.25416962 215.03610229 800.24021912 C206.67637915 800.03121033 198.35823927 799.46434663 190 799 C190 774.25 190 749.5 190 724 C169.21 724 148.42 724 127 724 C127 748.09 127 772.18 127 797 C107.72769549 797 88.55775068 796.83358281 69.3125 796.125 C68.05817169 796.08053741 66.80384338 796.03607483 65.51150513 795.99026489 C48.00565254 795.36912755 30.52676377 794.55810231 13.046875 793.4296875 C6.59561116 793.01757172 0.14797708 792.77120929 -6.3125 792.5625 C-66.06029213 790.46985393 -66.06029213 790.46985393 -77 785 C-77 785.99 -77 786.98 -77 788 C-78.6254308 787.85904936 -80.25034051 787.71207913 -81.875 787.5625 C-82.77992188 787.48128906 -83.68484375 787.40007813 -84.6171875 787.31640625 C-87 787 -87 787 -89 786 C-89.19775097 652.20145161 -89.19775097 652.20145161 -88.59428024 613.31222916 C-88.5624779 611.24856574 -88.53259408 609.18488088 -88.50296021 607.1211853 C-88.44770509 603.44000179 -88.38454329 599.75909009 -88.31640625 596.078125 C-88.29968872 595.03999161 -88.28297119 594.00185822 -88.26574707 592.93226624 C-88.24580688 592.01521408 -88.2258667 591.09816193 -88.20532227 590.15332031 C-88.18200584 588.97301239 -88.18200584 588.97301239 -88.15821838 587.76885986 C-88 586 -88 586 -87 585 C-83.97192956 584.8396444 -80.96414546 584.74039552 -77.93359375 584.68359375 C-77.02497086 584.66281265 -76.11634796 584.64203156 -75.18019104 584.62062073 C-72.26604054 584.55502328 -69.35179696 584.4961932 -66.4375 584.4375 C-64.46678709 584.39432446 -62.49608374 584.35071049 -60.52539062 584.30664062 C-55.68369012 584.19933157 -50.84189563 584.09809325 -46 584 C-46.18828369 582.87102295 -46.37656738 581.7420459 -46.57055664 580.57885742 C-47.79826962 573.21575064 -49.02523968 565.85252915 -50.24609375 558.48828125 C-50.44187012 557.30927246 -50.63764648 556.13026367 -50.83935547 554.91552734 C-51.251931 552.43030708 -51.6636636 549.94494678 -52.07470703 547.45947266 C-53.09262767 541.33123757 -54.1322376 535.20924406 -55.24609375 529.09765625 C-55.43695557 528.04215576 -55.62781738 526.98665527 -55.82446289 525.89916992 C-56.18236468 523.93317018 -56.54706657 521.96839199 -56.91967773 520.00512695 C-57.07766846 519.13460693 -57.23565918 518.26408691 -57.3984375 517.3671875 C-57.53942871 516.61550293 -57.68041992 515.86381836 -57.82568359 515.08935547 C-58 513 -58 513 -57 509 C-5.85 509 45.3 509 98 509 C98 508.01 98 507.02 98 506 C67.97 506 37.94 506 7 506 C5.57877804 501.73633411 7.45966206 499.0595446 9.25 495.1875 C9.56324219 494.48818359 9.87648438 493.78886719 10.19921875 493.06835938 C12.03578815 488.99513803 13.97406693 484.98308447 16 481 C12.78697266 481.6945049 12.78697266 481.6945049 11.5703125 484.58984375 C11.09335937 485.69457031 10.61640625 486.79929687 10.125 487.9375 C8.2182038 492.25037819 6.29414676 496.53060027 4.1875 500.75 C3.78917969 501.54921875 3.39085937 502.3484375 2.98046875 503.171875 C2 505 2 505 1 506 C-0.7492872 506.09365006 -2.50236254 506.11744438 -4.25415039 506.11352539 C-5.37523697 506.11344986 -6.49632355 506.11337433 -7.65138245 506.11329651 C-9.48103798 506.10555458 -9.48103798 506.10555458 -11.34765625 506.09765625 C-12.58921982 506.0962413 -13.83078339 506.09482635 -15.10997009 506.09336853 C-18.41605491 506.08870591 -21.72207146 506.07971497 -25.02813721 506.06866455 C-28.3996115 506.05844827 -31.77109283 506.05387045 -35.14257812 506.04882812 C-41.76173775 506.03777395 -48.38086493 506.02101736 -55 506 C-54.38855205 502.65994983 -53.87486737 500.36985565 -51.78515625 497.66796875 C-51.34623047 497.09755859 -50.90730469 496.52714844 -50.45507812 495.93945312 C-49.99552734 495.36130859 -49.53597656 494.78316406 -49.0625 494.1875 C-48.60681641 493.59001953 -48.15113281 492.99253906 -47.68164062 492.37695312 C-46.50855732 490.87410116 -45.25943053 489.4312663 -44 488 C-43.34 488 -42.68 488 -42 488 C-41.690625 487.38125 -41.38125 486.7625 -41.0625 486.125 C-40.375 484.75 -39.6875 483.375 -39 482 C-38.87962039 479.96839528 -38.82260878 477.9329256 -38.79467773 475.89794922 C-38.7647599 473.97618362 -38.7647599 473.97618362 -38.73423767 472.01559448 C-38.71725331 470.61196006 -38.70037451 469.20832437 -38.68359375 467.8046875 C-38.6630246 466.37264403 -38.64202814 464.94060663 -38.62062073 463.50857544 C-38.56539597 459.73733437 -38.51598853 455.96603848 -38.46777344 452.19470215 C-38.40873488 447.67087296 -38.3425047 443.14714408 -38.27747345 438.62339783 C-38.17945882 431.74899309 -38.09060646 424.87452436 -38 418 C-28.76 418 -19.52 418 -10 418 C-10 411.4 -10 404.8 -10 398 C-18.36081807 396.99402148 -26.72208409 395.99183608 -35.08383942 394.99367905 C-36.44055341 394.83171101 -37.79725819 394.66966568 -39.15395355 394.50754166 C-57.98229436 392.25800958 -76.81375515 390.07740967 -95.68798828 388.24316406 C-102.58828961 387.56055719 -109.27202696 386.71570805 -116 385 C-116 384.34 -116 383.68 -116 383 C-116.78246094 383.01160156 -117.56492187 383.02320313 -118.37109375 383.03515625 C-119.88896484 383.04869141 -119.88896484 383.04869141 -121.4375 383.0625 C-122.44683594 383.07410156 -123.45617187 383.08570313 -124.49609375 383.09765625 C-127 383 -127 383 -128 382 C-128.08748207 380.07332493 -128.10697334 378.14348139 -128.09765625 376.21484375 C-128.09443359 375.04501953 -128.09121094 373.87519531 -128.08789062 372.66992188 C-128.07951172 371.43822266 -128.07113281 370.20652344 -128.0625 368.9375 C-128.05798828 367.70193359 -128.05347656 366.46636719 -128.04882812 365.19335938 C-128.03699608 362.12885883 -128.02051173 359.06445279 -128 356 C-129.30988892 356.00785522 -129.30988892 356.00785522 -130.64624023 356.01586914 C-133.87589273 356.03287751 -137.10552245 356.04543369 -140.33520508 356.05493164 C-141.73495228 356.0599708 -143.1346942 356.06680216 -144.53442383 356.07543945 C-146.54245777 356.0875232 -148.55052957 356.09269807 -150.55859375 356.09765625 C-151.76829834 356.10289307 -152.97800293 356.10812988 -154.22436523 356.11352539 C-157 356 -157 356 -158 355 C-158 351.7 -158 348.4 -158 345 C-124.67 345 -91.34 345 -57 345 C-57 348.3 -57 351.6 -57 355 C-58 356 -58 356 -60.86743164 356.11352539 C-62.11903076 356.10828857 -63.37062988 356.10305176 -64.66015625 356.09765625 C-65.65685585 356.09553383 -65.65685585 356.09553383 -66.6736908 356.09336853 C-68.80333899 356.08775518 -70.93288339 356.07520054 -73.0625 356.0625 C-74.50325369 356.05748671 -75.94400903 356.05292351 -77.38476562 356.04882812 C-80.92324958 356.03863076 -84.46150813 356.0190583 -88 356 C-88 362.6 -88 369.2 -88 376 C-61.93 376 -35.86 376 -9 376 C-9 369.07 -9 362.14 -9 355 C-8.88430582 349.95376439 -8.75062275 344.91781284 -8.5625 339.875 C-8.52318359 338.67875 -8.48386719 337.4825 -8.44335938 336.25 C-8.19045686 329.13760316 -7.73422069 322.0791487 -7 315 C-6.01 315 -5.02 315 -4 315 C-4.00458221 313.72999146 -4.00916443 312.45998291 -4.0138855 311.15148926 C-4.11456439 280.26806824 -3.85253589 249.40805977 -3.25921631 218.53060913 C-3.01919483 206.02715368 -2.79857919 193.52334449 -2.578125 181.01953125 C-2.55442735 179.68151664 -2.53072918 178.34350204 -2.50703049 177.00548744 C-1.8691695 140.9030665 -1.38966331 104.79834882 -0.90841961 68.69356155 C-0.87490507 66.18038106 -0.84132208 63.66720149 -0.80771637 61.15402222 C-0.53515768 40.76939142 -0.26553925 20.38472351 0 0 Z M-31 425 C-31 430.28 -31 435.56 -31 441 C-24.4 441 -17.8 441 -11 441 C-10.67 435.72 -10.34 430.44 -10 425 C-16.93 425 -23.86 425 -31 425 Z M16 425 C16 430.28 16 435.56 16 441 C47.68 441 79.36 441 112 441 C112 435.72 112 430.44 112 425 C80.32 425 48.64 425 16 425 Z M129 425 C129 430.28 129 435.56 129 441 C135.49210334 441.02488569 141.98417836 441.04294733 148.47631836 441.05493164 C150.68075037 441.05993255 152.88517911 441.06673542 155.08959961 441.07543945 C158.27458508 441.08769217 161.45952635 441.09327089 164.64453125 441.09765625 C165.61582474 441.10281754 166.58711823 441.10797882 167.58784485 441.11329651 C174.1183918 441.11382117 180.50307757 440.6698575 187 440 C187 435.05 187 430.1 187 425 C167.86 425 148.72 425 129 425 Z M-31 449 C-31 452.96 -31 456.92 -31 461 C-24.4 461 -17.8 461 -11 461 C-11 457.04 -11 453.08 -11 449 C-17.6 449 -24.2 449 -31 449 Z M17 449 C17 452.96 17 456.92 17 461 C48.35 461 79.7 461 112 461 C112 457.04 112 453.08 112 449 C80.65 449 49.3 449 17 449 Z M129 449 C129 452.96 129 456.92 129 461 C144.51 461 160.02 461 176 461 C176 457.04 176 453.08 176 449 C160.49 449 144.98 449 129 449 Z M-31 469 C-31 471.97 -31 474.94 -31 478 C-24.73 478 -18.46 478 -12 478 C-12 475.03 -12 472.06 -12 469 C-18.27 469 -24.54 469 -31 469 Z M17 469 C17.33 471.64 17.66 474.28 18 477 C49.02 477 80.04 477 112 477 C112 474.36 112 471.72 112 469 C80.65 469 49.3 469 17 469 Z M129 469 C129 471.64 129 474.28 129 477 C144.51 477 160.02 477 176 477 C176 474.36 176 471.72 176 469 C160.49 469 144.98 469 129 469 Z M-36 521 C-34.1999237 527.60027977 -32.40805095 534.06737877 -30.22265625 540.52734375 C-29.97003525 541.28237686 -29.71741425 542.03740997 -29.45713806 542.81532288 C-28.66178954 545.1903541 -27.86226385 547.56395244 -27.0625 549.9375 C-26.53161681 551.52008697 -26.00101622 553.10276877 -25.47070312 554.68554688 C-24.45086087 557.72820102 -23.42951649 560.77034327 -22.40673828 563.81201172 C-20.59411936 569.20456456 -18.7964365 574.60203297 -17 580 C-10.73 580 -4.46 580 2 580 C2 560.53 2 541.06 2 521 C-10.54 521 -23.08 521 -36 521 Z M65 521 C65 540.47 65 559.94 65 580 C80.51 580 96.02 580 112 580 C112 560.53 112 541.06 112 521 C96.49 521 80.98 521 65 521 Z M129 521 C129 540.47 129 559.94 129 580 C144.51 580 160.02 580 176 580 C176 560.53 176 541.06 176 521 C160.49 521 144.98 521 129 521 Z M190 521 C190 540.47 190 559.94 190 580 C198.25 580 206.5 580 215 580 C215 560.53 215 541.06 215 521 C206.75 521 198.5 521 190 521 Z M9 549 C9 561.21 9 573.42 9 586 C10.32 586 11.64 586 13 586 C13 574.78 13 563.56 13 552 C26.53 552 40.06 552 54 552 C54 563.55 54 575.1 54 587 C55.32 587 56.64 587 58 587 C58 574.46 58 561.92 58 549 C41.83 549 25.66 549 9 549 Z M-80 592 C-80 597.61 -80 603.22 -80 609 C-77.24657128 611.75342872 -69.47442889 610.45118854 -65.52734375 610.51489258 C-64.0158488 610.54649008 -62.50460021 610.59420369 -60.99414062 610.65844727 C-52.50940954 611.27967881 -52.50940954 611.27967881 -44.79882812 608.49560547 C-43.07229267 606.13479665 -42.36728922 604.92926861 -42 602 C-42.66 599.03 -43.32 596.06 -44 593 C-55.88 592.67 -67.76 592.34 -80 592 Z M9 594 C9 599.61 9 605.22 9 611 C10.32 611 11.64 611 13 611 C13 605.39 13 599.78 13 594 C11.68 594 10.36 594 9 594 Z M54 594 C54 599.94 54 605.88 54 612 C55.32 612 56.64 612 58 612 C58 606.06 58 600.12 58 594 C56.68 594 55.36 594 54 594 Z M259 598 C259 603.61 259 609.22 259 615 C282.59611164 615.92098713 306.1970964 616.44865671 329.80566406 616.92993164 C334.08046976 617.01723036 338.3551976 617.10742957 342.62988281 617.20043945 C370.7581078 617.8118969 398.8651161 618.12843938 427 618 C427 612.06 427 606.12 427 600 C401.80131346 599.21476908 376.60929527 598.73817268 351.40003204 598.46757126 C348.58395832 598.43705526 345.7679002 598.40534729 342.95184326 598.37332153 C314.9669289 598.05630984 286.98688114 597.8602209 259 598 Z M462 601 C462 606.61 462 612.22 462 618 C469.31733545 618.95149063 476.53591662 619.20985147 483.91015625 619.31640625 C485.72222816 619.3475779 485.72222816 619.3475779 487.57090759 619.37937927 C491.40138473 619.44437039 495.23192601 619.50352365 499.0625 619.5625 C501.67123039 619.60573326 504.27995448 619.64934903 506.88867188 619.69335938 C513.25905009 619.79999961 519.62949236 619.90140692 526 620 C526 614.06 526 608.12 526 602 C494.00490021 601.10953631 494.00490021 601.10953631 462 601 Z M-80 616 C-80 622.93 -80 629.86 -80 637 C-71.93447944 638.01163406 -71.93447944 638.01163406 -64 637 C-60.12402254 633.57211242 -58.15511167 629.65162717 -56 625 C-54.68 622.36 -53.36 619.72 -52 617 C-65.86 616.505 -65.86 616.505 -80 616 Z M9 618 C9 624.93 9 631.86 9 639 C10.32 639 11.64 639 13 639 C13 632.07 13 625.14 13 618 C11.68 618 10.36 618 9 618 Z M54 619 C54 625.93 54 632.86 54 640 C55.32 640 56.64 640 58 640 C58 633.07 58 626.14 58 619 C56.68 619 55.36 619 54 619 Z M259 622 C259 629.26 259 636.52 259 644 C264.89643994 644.85517669 264.89643994 644.85517669 270.73086548 645.18945312 C271.60416 645.20621094 272.47745453 645.22296875 273.37721252 645.24023438 C274.78111488 645.26053711 274.78111488 645.26053711 276.21337891 645.28125 C277.21810745 645.29929687 278.222836 645.31734375 279.25801086 645.3359375 C282.58080514 645.39466373 285.90366809 645.44727224 289.2265625 645.5 C291.571734 645.54058329 293.91689792 645.58160697 296.26205444 645.62304688 C302.4587215 645.73159779 308.65546044 645.83522422 314.85223389 645.9375 C324.63634779 646.09958456 334.42035791 646.26782656 344.20433807 646.43777466 C346.5935603 646.47924791 348.9827866 646.52048744 351.37201691 646.56149292 C367.71636307 646.84326841 384.05686668 647.18881027 400.39590454 647.6953125 C409.26995134 647.96507721 418.12259559 648.03731402 427 648 C427 640.41 427 632.82 427 625 C404.97865564 624.24666468 382.96817174 623.79088638 360.93557739 623.5541687 C352.33977477 623.46180913 343.74410941 623.35761018 335.1484375 623.25390625 C334.29277506 623.24366991 333.43711262 623.23343357 332.55552101 623.22288704 C315.72335338 623.0207296 298.89298136 622.74915223 282.0625 622.4375 C280.86011688 622.41526367 279.65773376 622.39302734 278.41891479 622.37011719 C271.94587954 622.24975443 265.47294165 622.12545495 259 622 Z M462 626 C462 633.26 462 640.52 462 648 C469.31093557 648.26208817 476.62190726 648.52311329 483.93294621 648.78230286 C487.32828677 648.90271562 490.7236099 649.02358159 494.11889648 649.14550781 C498.02843462 649.28588065 501.93804287 649.42423818 505.84765625 649.5625 C507.05833267 649.60624756 508.26900909 649.64999512 509.51637268 649.69506836 C510.65702682 649.73510986 511.79768097 649.77515137 512.97290039 649.81640625 C513.96995499 649.85193604 514.96700958 649.88746582 515.99427795 649.92407227 C519.328551 650.00829955 522.66466329 650 526 650 C526 642.08 526 634.16 526 626 C504.88 626 483.76 626 462 626 Z M-80 644 C-80 646.97 -80 649.94 -80 653 C-78.02 653 -76.04 653 -74 653 C-72.35 650.03 -70.7 647.06 -69 644 C-72.63 644 -76.26 644 -80 644 Z M9 646 C9 648.97 9 651.94 9 655 C25.17 655 41.34 655 58 655 C58 652.36 58 649.72 58 647 C56.68 647 55.36 647 54 647 C54 648.32 54 649.64 54 651 C40.47 651 26.94 651 13 651 C13 649.35 13 647.7 13 646 C11.68 646 10.36 646 9 646 Z M259 651 C259 655.29 259 659.58 259 664 C260.96453125 664.05534912 262.9290625 664.11069824 264.953125 664.16772461 C271.55077351 664.35399047 278.14837789 664.54176306 284.74595642 664.73049068 C288.73377223 664.84451226 292.7216018 664.95798707 296.70947266 665.07006836 C312.41682681 665.51187655 328.11941051 665.96976813 343.81811523 666.66221619 C352.66514295 667.04592675 361.51260925 667.26433908 370.36581421 667.4458313 C374.95884439 667.54028116 379.55168899 667.64295893 384.14453125 667.74609375 C385.51518486 667.776782 385.51518486 667.776782 386.91352844 667.80809021 C395.8397011 668.011945 404.76365342 668.27546664 413.6875 668.5625 C414.37884033 668.58473633 415.07018066 668.60697266 415.7824707 668.62988281 C419.52173526 668.75075157 423.26087252 668.87491887 427 669 C427 664.38 427 659.76 427 655 C420.24470979 653.98851542 413.60940854 653.81666178 406.78515625 653.75390625 C404.27140153 653.72203949 401.75764834 653.69005112 399.24389648 653.65795898 C397.89989405 653.64224371 396.55588969 653.62669269 395.21188354 653.61129761 C388.0499149 653.528329 380.88820751 653.42740382 373.7265625 653.3203125 C372.9764559 653.30913076 372.2263493 653.29794903 371.45351219 653.28642845 C359.41190485 653.10322004 347.37424767 652.82679563 335.3359375 652.4921875 C334.11659799 652.45829957 334.11659799 652.45829957 332.87262535 652.42372704 C324.91420697 652.20117127 316.9560955 651.96896854 308.99819851 651.7285223 C305.32047281 651.61774639 301.64268605 651.50917628 297.96484375 651.40234375 C297.26742884 651.3820643 296.57001392 651.36178486 295.85146523 651.34089088 C283.56568947 650.98981143 271.29009708 650.89446199 259 651 Z M462 656 C462 660.62 462 665.24 462 670 C469.50723461 670.2872413 477.01455817 670.57199125 484.52197266 670.85449219 C487.07277949 670.95082224 489.62356129 671.04781792 492.17431641 671.14550781 C495.85312527 671.28628222 499.5320193 671.42461603 503.2109375 671.5625 C504.34050873 671.60624756 505.47007996 671.64999512 506.63388062 671.69506836 C513.09480289 671.93452907 519.53462551 672.04208543 526 672 C526 667.05 526 662.1 526 657 C523.27521848 655.63760924 521.13159145 655.88030042 518.08154297 655.88647461 C516.21983963 655.88658791 516.21983963 655.88658791 514.32052612 655.88670349 C512.96107951 655.8918105 511.60163331 655.8970265 510.2421875 655.90234375 C508.85499116 655.90420858 507.46779416 655.90563218 506.08059692 655.90663147 C502.42765488 655.91045152 498.77475252 655.92027745 495.12182617 655.93133545 C491.39502499 655.94156056 487.66821741 655.94613145 483.94140625 655.95117188 C476.62758397 655.96190017 469.3138026 655.97949283 462 656 Z M-1.87109375 728.21875 C-4.83998815 732.9032339 -4.43786192 738.65477991 -4 744 C-2.07086749 750.80870298 1.98488593 754.58762694 7.8984375 758.140625 C12.83236311 760.1582154 18.5610184 759.83921948 23.54296875 758.125 C28.65005448 755.52440693 32.74194046 752.37297203 35 747 C36.39927177 741.14929492 36.6971559 735.42797577 34.21875 729.8515625 C31.09440047 725.10495455 26.26863594 721.13566122 21 719 C11.13244588 717.5567863 4.38406992 720.71937121 -1.87109375 728.21875 Z M413.20703125 732.94140625 C408.40686254 739.13259773 407.17870714 744.20350154 408 752 C410.07471164 758.85247615 414.15014126 762.75424907 420.25 766.3125 C426.98061819 767.99515455 433.17049845 767.75142109 439.24609375 764.265625 C443.94856048 760.87230825 446.74511204 756.7040362 448 751 C448.47314975 745.13294314 448.03424007 740.1528849 445 735 C441.03613809 730.57613437 436.74201601 727.41577956 430.75 726.75 C423.67521126 726.40488835 418.12793122 727.61311152 413.20703125 732.94140625 Z " fill="#080808" transform="translate(472,0)"/>
<path d="M0 0 C96.20578456 -0.02473595 192.41157004 -0.04364297 1194.41626292 0.38955754 C1198.28376853 0.39494688 1202.15127414 0.40033451 1206.01877975 0.40571976 C1206.97285809 0.40704858 1207.92693643 0.40837741 1208.90992623 0.4097465 C1223.26108261 0.42971101 1237.61223984 0.4489206 1251.96339798 0.46757126 C1252.90285883 0.4687927 1253.84231968 0.47001413 1254.81024903 0.47127258 C1258.59215281 0.47618894 1262.37405658 0.48110396 1266.15596036 0.48601835 C1433.90352071 0.70415263 1433.90352071 0.70415263 1710 2 C1705.45393381 11.770573 1693.85923179 18.56089505 1685 24 C1683.43185547 24.96873047 1683.43185547 24.96873047 1681.83203125 25.95703125 C1665.47827973 35.67725636 1648.44507761 42.42522128 1630 47 C1629.31647461 47.17257324 1628.63294922 47.34514648 1627.92871094 47.52294922 C1611.49765491 51.60334217 1594.9324024 51.14389416 1578.11830616 51.12863445 C1575.56069224 51.12998181 1573.00307852 51.1317661 1570.44546518 51.13394669 C1564.8763834 51.13798637 1559.30731095 51.13833263 1553.73822824 51.13624074 C1545.40102323 51.1331263 1537.06382676 51.1357842 1528.72662237 51.13953945 C1514.51565157 51.14576904 1500.30468382 51.14724618 1486.09371185 51.14612198 C1471.69418172 51.14499721 1457.29465417 51.1460327 1442.89512444 51.14969444 C1441.98530847 51.1499241 1441.0754925 51.15015375 1440.13810636 51.15039036 C1436.4324992 51.15133201 1432.72689205 51.1522877 1429.0212849 51.15326155 C1390.37143953 51.16340406 1351.72159561 51.16646746 1313.07174907 51.16705366 C1308.91202703 51.16711841 1304.75230498 51.16718635 1300.59258294 51.16725707 C1299.04421204 51.16728258 1299.04421204 51.16728258 1297.46456093 51.1673086 C1274.58795521 51.16771709 1251.71134977 51.16990712 1228.8347442 51.17241292 C1219.41438966 51.17344127 1209.99403512 51.17443131 1200.57368058 51.17542917 C1199.53280819 51.17553975 1198.49193579 51.17565034 1197.41952181 51.17576428 C1137.77457371 51.18208814 1078.12962578 51.18621342 1018.48467731 51.18575573 C1016.25267622 51.18573995 1014.02067512 51.18572422 1011.78867402 51.18570852 C1001.71140479 51.18563514 991.63413556 51.18554697 981.55686633 51.18545464 C977.06316686 51.18541351 972.56946739 51.18537337 968.07576792 51.18533332 C965.82659097 51.18531293 963.57741402 51.18529191 961.32823707 51.18527026 C890.20197689 51.18458997 819.07572168 51.19190823 747.94946289 51.20581055 C730.02798877 51.20931157 712.10651464 51.21278102 694.18504047 51.21607494 C692.52979657 51.21637925 692.52979657 51.21637925 690.84111339 51.21668971 C656.83089758 51.22290459 622.82068217 51.22667025 588.81046581 51.22793293 C587.20881277 51.22799286 587.20881277 51.22799286 585.57480311 51.22805399 C562.13483252 51.22890726 538.69486196 51.22916847 515.25489135 51.22888362 C506.86769119 51.22878713 498.48049103 51.22873509 490.09329087 51.22870489 C488.00677206 51.22869697 485.92025324 51.22868677 483.83373443 51.22867426 C450.58818286 51.22849795 417.34263554 51.23419568 384.09708519 51.24282808 C350.61336469 51.25147814 317.1296501 51.25366914 283.64592895 51.24706676 C279.01791294 51.24615448 274.38989691 51.24531119 269.76188087 51.24450874 C268.8546759 51.24434866 267.94747092 51.24418857 267.01277488 51.24402363 C252.65487565 51.2416717 238.29698663 51.24602571 223.93908932 51.25317993 C209.81683781 51.26007614 195.69460136 51.25982041 181.57235017 51.25198779 C173.29616033 51.24761042 165.02001489 51.2486684 156.74382875 51.25785458 C150.59341698 51.26406688 144.44305369 51.25980208 138.2926453 51.25152128 C135.82450163 51.24980331 133.35635273 51.25141737 130.88821438 51.25682249 C113.8637957 51.29160107 97.0366118 50.95431302 80.4375 46.75 C79.56383789 46.53384033 78.69017578 46.31768066 77.79003906 46.0949707 C49.56772805 38.89566346 19.06396897 24.8570584 0 2 C0 1.34 0 0.68 0 0 Z " fill="#060606" transform="translate(57,998)"/>
<path d="M0 0 C7.66091153 0.48607547 15.31489396 1.01093208 22.96484375 1.6484375 C50.63064673 3.92550755 78.33608916 5.21296803 106.06480408 6.4284668 C115.51414025 6.84280348 124.96251676 7.27478054 134.41057777 7.71719742 C162.23661754 9.0175109 190.05255137 10.2715102 217.90869141 10.70947266 C226.73139029 10.84877334 235.53884697 11.08644701 244.35473633 11.46606445 C258.37895897 12.04541823 272.40553259 12.42063356 286.4375 12.75390625 C287.1064959 12.76987177 287.7754918 12.7858373 288.4647603 12.80228662 C298.85872007 13.05005424 309.25295457 13.28438208 319.64739323 13.51111555 C322.0019729 13.56254309 324.35654311 13.61438921 326.71111298 13.66626358 C383.68375924 14.91628644 440.63960042 15.26218778 497.625 15.1875 C498.57364677 15.18626837 499.52229355 15.18503675 500.49968719 15.1837678 C524.666548 15.15143098 548.83328877 15.09075259 573 15 C572.13716203 19.02386898 570.36730166 21.76572393 568.0625 25.1875 C567.35222656 26.25355469 566.64195312 27.31960938 565.91015625 28.41796875 C564 31 564 31 562 32 C559.7441323 32.09765316 557.48527482 32.12797662 555.22729492 32.12939453 C554.17058499 32.13198052 554.17058499 32.13198052 553.09252739 32.13461876 C550.72181832 32.13899612 548.35117891 32.13599352 545.98046875 32.1328125 C544.28966752 32.13391422 542.59886649 32.13534604 540.9080658 32.13708496 C536.3010757 32.14002501 531.69412064 32.13561772 527.08713531 32.12897491 C524.18038432 32.12499025 521.27363519 32.12248109 518.36688232 32.12030029 C430.95229805 32.04520302 343.57609792 30.46140724 36.5 14.1875 C35.42217632 14.10827175 35.42217632 14.10827175 34.32257843 14.02744293 C29.6417781 13.68313759 24.96139672 13.33357045 20.28125 12.98046875 C19.14009735 12.89531509 17.9989447 12.81016144 16.82321167 12.72242737 C11.18956898 12.29036326 5.59913322 11.75994278 0 11 C0 7.37 0 3.74 0 0 Z " fill="#1B1B1B" transform="translate(403,801)"/>
<path d="M0 0 C1.05449341 -0.00637985 2.10898682 -0.0127597 3.19543457 -0.01933289 C4.33814819 -0.02044571 5.48086182 -0.02155853 6.65820312 -0.02270508 C8.41142883 -0.02769768 8.41142883 -0.02769768 10.20007324 -0.03279114 C12.67488205 -0.03786077 15.14969772 -0.04019945 17.62451172 -0.04003906 C21.42361622 -0.04222721 25.22243124 -0.06038737 29.02148438 -0.0793457 C31.42122296 -0.0822792 33.82096293 -0.08426429 36.22070312 -0.08520508 C37.93477356 -0.09598335 37.93477356 -0.09598335 39.68347168 -0.10697937 C41.26521179 -0.10236443 41.26521179 -0.10236443 42.87890625 -0.09765625 C43.80997192 -0.09908127 44.7410376 -0.10050629 45.70031738 -0.10197449 C47.93945312 0.14526367 47.93945312 0.14526367 49.93945312 2.14526367 C50.18669128 4.99855042 50.18669128 4.99855042 50.18237305 8.69042969 C50.18427139 9.36211182 50.18616974 10.03379395 50.18812561 10.72583008 C50.19183636 12.95039468 50.18112615 15.17463425 50.16992188 17.39916992 C50.16873024 18.94091249 50.16827688 20.48265579 50.16853333 22.0243988 C50.166968 25.25670918 50.15867396 28.48890887 50.14526367 31.72119141 C50.12825951 35.87326057 50.1244497 40.02520817 50.12520885 44.17730808 C50.12493752 47.36078562 50.11946237 50.54423636 50.11220741 53.727705 C50.10901601 55.25918309 50.10705224 56.79066423 50.10631371 58.32214546 C50.10415591 60.45798085 50.09542441 62.59368483 50.0847168 64.72949219 C50.0789991 66.55577904 50.0789991 66.55577904 50.07316589 68.41896057 C49.93945312 71.14526367 49.93945312 71.14526367 48.93945312 72.14526367 C39.44149153 72.55068049 29.87241759 72.04743058 20.37695312 71.70776367 C19.16587891 71.66844727 17.95480469 71.62913086 16.70703125 71.58862305 C15.50369141 71.54672852 14.30035156 71.50483398 13.06054688 71.46166992 C12.00279053 71.42501221 10.94503418 71.38835449 9.85522461 71.35058594 C4.21009319 71.05458522 -1.42431109 70.57882027 -7.06054688 70.14526367 C-7.06054688 47.37526367 -7.06054688 24.60526367 -7.06054688 1.14526367 C-4.54685899 -0.11158027 -2.81310947 0.01151692 0 0 Z " fill="#000000" transform="translate(609.060546875,726.854736328125)"/>
<path d="M0 0 C0.99 0.495 0.99 0.495 2 1 C2.95597079 3.86791236 3.12358605 5.63765834 3.12025452 8.61271667 C3.12162918 9.55922592 3.12300385 10.50573517 3.12442017 11.48092651 C3.12082489 12.5174234 3.11722961 13.55392029 3.11352539 14.62182617 C3.11367142 15.71466415 3.11381744 16.80750214 3.1139679 17.93345642 C3.11327005 21.55331391 3.10548358 25.17312023 3.09765625 28.79296875 C3.09579162 31.29974845 3.09436793 33.80652852 3.09336853 36.31330872 C3.08993774 42.24185005 3.08205257 48.17037491 3.07201904 54.09890777 C3.05974754 61.51059669 3.05437466 68.92228789 3.04882812 76.33398438 C3.03809709 89.55599895 3.02121663 102.77799831 3 116 C3.74569433 115.99623384 4.49138866 115.99246767 5.25967979 115.98858738 C45.00559751 115.79088837 84.6960153 116.18252112 124.43237305 117.0765686 C148.35265766 117.61402327 172.26994878 118.08109818 196.1953125 118.3203125 C197.30384079 118.33140863 198.41236908 118.34250477 199.55448914 118.35393715 C210.2881017 118.45968827 221.0217824 118.55356186 231.75560951 118.63459015 C235.67561243 118.66477899 239.59558583 118.69808504 243.51556015 118.73176193 C246.17899233 118.7531479 248.84242035 118.7693948 251.50588989 118.78530884 C260.04897337 118.85005606 268.49475434 119.09137744 277 120 C277.03147521 131.62498791 277.05127383 143.24997521 277.0625 154.875 C277.06335602 155.75498657 277.06421204 156.63497314 277.06509399 157.54162598 C277.09034748 187.03096451 276.88679139 216.5132549 276.5 246 C276.48804218 246.91205956 276.47608437 247.82411911 276.46376419 248.76381683 C276.31774026 259.84266945 276.1633533 270.92138943 276 282 C276.66 282.33 277.32 282.66 278 283 C277.01 283.33 276.02 283.66 275 284 C275 230.21 275 176.42 275 121 C264.11 121 253.22 121 242 121 C235.3692345 120.95282807 228.73962837 120.89840941 222.109375 120.81640625 C220.39719289 120.79661557 218.68500919 120.77696189 216.9728241 120.75743103 C212.48966381 120.70570937 208.00653879 120.65140624 203.52341843 120.59634399 C200.69352675 120.56181086 197.86362632 120.52810251 195.03372192 120.49462891 C170.84904947 120.20816319 146.66613454 119.87345096 122.48364258 119.43777466 C105.19396006 119.12795027 87.90485115 118.9174414 70.61328125 118.75 C68.46227493 118.72882653 66.31126887 118.70762697 64.16026306 118.68640137 C54.494362 118.59160509 44.82846433 118.49971115 35.16243267 118.41920471 C31.15568529 118.38492143 27.14898152 118.34673028 23.14227867 118.30761719 C21.25244393 118.29010486 19.36259168 118.27438485 17.47272682 118.26049805 C14.87595987 118.24127556 12.27931703 118.21609251 9.68261719 118.18945312 C8.52710562 118.18317272 8.52710562 118.18317272 7.34825039 118.17676544 C2.11399865 118.11399865 2.11399865 118.11399865 1 117 C0.89208716 115.48224154 0.85317288 113.95952031 0.84178162 112.43797302 C0.8319928 111.45214233 0.82220398 110.46631165 0.81211853 109.4506073 C0.80636307 108.36016617 0.8006076 107.26972504 0.79467773 106.14624023 C0.78477814 105.00492645 0.77487854 103.86361267 0.76467896 102.68771362 C0.73295372 98.89469516 0.70826311 95.10166414 0.68359375 91.30859375 C0.66303373 88.68685063 0.64203753 86.0651109 0.62062073 83.44337463 C0.57064422 77.23501452 0.52572386 71.02662841 0.48259836 64.81821734 C0.43326827 57.75179224 0.37833451 50.68541423 0.32291877 43.61903465 C0.20902265 29.079401 0.1022003 14.53972049 0 0 Z " fill="#7C7C7C" transform="translate(728,475)"/>
<path d="M0 0 C61.34358784 -0.19531802 61.34358784 -0.19531802 91.4375 0.4375 C92.44394562 0.45714813 93.45039124 0.47679626 94.48733521 0.49703979 C97.28209992 0.55315377 100.07657068 0.61661562 102.87109375 0.68359375 C103.69088715 0.70031128 104.51068054 0.71702881 105.35531616 0.73425293 C110.88390088 0.88390088 110.88390088 0.88390088 112 2 C112 6.95 112 11.9 112 17 C122.56 17 133.12 17 144 17 C144 12.38 144 7.76 144 3 C165.78 3 187.56 3 210 3 C210 8.94 210 14.88 210 21 C198.91467729 21.08032843 188.04330865 21.00885038 177 20 C177 19.67 177 19.34 177 19 C180.45831484 18.97050768 183.91659654 18.9530384 187.375 18.9375 C188.34050781 18.92912109 189.30601562 18.92074219 190.30078125 18.91210938 C196.61009419 18.89093718 202.73195476 19.27235672 209 20 C209 15.05 209 10.1 209 5 C177.32 4.505 177.32 4.505 145 4 C145 8.62 145 13.24 145 18 C154.57 18 164.14 18 174 18 C174 18.33 174 18.66 174 19 C165.06266775 19.09481345 156.1252571 19.15394504 147.1875 19.1875 C146.50846367 19.19006805 145.82942734 19.19263611 145.12981415 19.19528198 C121.59370792 19.27360137 98.13308018 18.62781886 74.625 17.5 C73.87689938 17.46412655 73.12879875 17.4282531 72.35802841 17.39129257 C63.23740683 16.9517399 54.11814776 16.48838106 45 16 C45 15.67 45 15.34 45 15 C60.90172216 14.90356298 76.79435636 14.82906714 92.6875 15.4375 C93.74759277 15.47673584 94.80768555 15.51597168 95.89990234 15.55639648 C100.74645971 15.76279312 105.17910968 16.19651828 110 17 C110 12.38 110 7.76 110 3 C108.01790527 2.97494385 106.03581055 2.9498877 103.99365234 2.92407227 C94.78738903 2.80701313 85.58118078 2.68587151 76.375 2.5625 C75.55236664 2.55147877 74.72973328 2.54045753 73.88217163 2.52910233 C49.24938745 2.19768383 24.62293565 1.79701634 0 1 C0 0.67 0 0.34 0 0 Z " fill="#7E7E7E" transform="translate(789,652)"/>
<path d="M0 0 C32.01 0 64.02 0 97 0 C97 3.96 97 7.92 97 12 C65.65 12 34.3 12 2 12 C1.67 13.32 1.34 14.64 1 16 C0.67 15.34 0.34 14.68 0 14 C-1.32 14.33 -2.64 14.66 -4 15 C-4 14.34 -4 13.68 -4 13 C-2.68 13 -1.36 13 0 13 C0 8.71 0 4.42 0 0 Z M1 2 C1.33 4.64 1.66 7.28 2 10 C33.02 10 64.04 10 96 10 C96 7.36 96 4.72 96 2 C64.65 2 33.3 2 1 2 Z " fill="#A1A1A1" transform="translate(488,467)"/>
<path d="M0 0 C1.05449341 -0.00637985 2.10898682 -0.0127597 3.19543457 -0.01933289 C4.33814819 -0.02044571 5.48086182 -0.02155853 6.65820312 -0.02270508 C8.41142883 -0.02769768 8.41142883 -0.02769768 10.20007324 -0.03279114 C12.67488205 -0.03786077 15.14969772 -0.04019945 17.62451172 -0.04003906 C21.42361622 -0.04222721 25.22243124 -0.06038737 29.02148438 -0.0793457 C31.42122296 -0.0822792 33.82096293 -0.08426429 36.22070312 -0.08520508 C37.93477356 -0.09598335 37.93477356 -0.09598335 39.68347168 -0.10697937 C41.26521179 -0.10236443 41.26521179 -0.10236443 42.87890625 -0.09765625 C43.80997192 -0.09908127 44.7410376 -0.10050629 45.70031738 -0.10197449 C47.93945312 0.14526367 47.93945312 0.14526367 49.93945312 2.14526367 C50.18669128 4.99855042 50.18669128 4.99855042 50.18237305 8.69042969 C50.18427139 9.36211182 50.18616974 10.03379395 50.18812561 10.72583008 C50.19183636 12.95039468 50.18112615 15.17463425 50.16992188 17.39916992 C50.16873024 18.94091249 50.16827688 20.48265579 50.16853333 22.0243988 C50.166968 25.25670918 50.15867396 28.48890887 50.14526367 31.72119141 C50.12825951 35.87326057 50.1244497 40.02520817 50.12520885 44.17730808 C50.12493752 47.36078562 50.11946237 50.54423636 50.11220741 53.727705 C50.10901601 55.25918309 50.10705224 56.79066423 50.10631371 58.32214546 C50.10415591 60.45798085 50.09542441 62.59368483 50.0847168 64.72949219 C50.0789991 66.55577904 50.0789991 66.55577904 50.07316589 68.41896057 C49.93945312 71.14526367 49.93945312 71.14526367 48.93945312 72.14526367 C39.17518462 72.57478229 29.32280935 72.01294105 19.56445312 71.64526367 C18.23112815 71.59685592 16.89779481 71.54867793 15.56445312 71.50073242 C12.35603077 71.38448523 9.14771041 71.26596657 5.93945312 71.14526367 C5.93945312 70.81526367 5.93945312 70.48526367 5.93945312 70.14526367 C19.79945313 70.14526367 33.65945313 70.14526367 47.93945312 70.14526367 C47.93945312 47.70526367 47.93945312 25.26526367 47.93945312 2.14526367 C30.11945312 2.14526367 12.29945313 2.14526367 -6.06054688 2.14526367 C-6.06054688 24.58526367 -6.06054688 47.02526367 -6.06054688 70.14526367 C-6.39054688 70.14526367 -6.72054687 70.14526367 -7.06054688 70.14526367 C-7.06054688 47.37526367 -7.06054688 24.60526367 -7.06054688 1.14526367 C-4.54685899 -0.11158027 -2.81310947 0.01151692 0 0 Z " fill="#9B9B9B" transform="translate(609.060546875,726.854736328125)"/>
<path d="M0 0 C0.66 0.33 1.32 0.66 2 1 C2 2.98 2 4.96 2 7 C-11.86 7 -25.72 7 -40 7 C-40 29.11 -40 51.22 -40 74 C-40.66 74 -41.32 74 -42 74 C-42 117.56 -42 161.12 -42 206 C-42.33 206 -42.66 206 -43 206 C-43.19775097 72.20145161 -43.19775097 72.20145161 -42.59428024 33.31222916 C-42.5624779 31.24856574 -42.53259408 29.18488088 -42.50296021 27.1211853 C-42.44770509 23.44000179 -42.38454329 19.75909009 -42.31640625 16.078125 C-42.29968872 15.03999161 -42.28297119 14.00185822 -42.26574707 12.93226624 C-42.24580688 12.01521408 -42.2258667 11.09816193 -42.20532227 10.15332031 C-42.18977798 9.36644836 -42.1742337 8.57957642 -42.15821838 7.76885986 C-42 6 -42 6 -41 5 C-37.97192956 4.8396444 -34.96414546 4.74039552 -31.93359375 4.68359375 C-31.02497086 4.66281265 -30.11634796 4.64203156 -29.18019104 4.62062073 C-26.26604054 4.55502328 -23.35179696 4.4961932 -20.4375 4.4375 C-18.46678709 4.39432446 -16.49608374 4.35071049 -14.52539062 4.30664062 C-9.68369012 4.19933157 -4.84189563 4.09809325 0 4 C0 2.68 0 1.36 0 0 Z " fill="#939393" transform="translate(426,580)"/>
<path d="M0 0 C0.33 0 0.66 0 1 0 C1.26360714 7.58114202 1.52456209 15.16237162 1.78230286 22.74371529 C1.90211338 26.26554898 2.02277419 29.7873489 2.14550781 33.30908203 C2.28717481 37.37523701 2.42491026 41.4415175 2.5625 45.5078125 C2.60624756 46.74798126 2.64999512 47.98815002 2.69506836 49.26589966 C2.73510986 50.46608734 2.77515137 51.66627502 2.81640625 52.90283203 C2.85193604 53.93763702 2.88746582 54.97244202 2.92407227 56.03860474 C3.03880708 62.02469053 3 68.01281475 3 74 C34.68 74 66.36 74 99 74 C99 70.04 99 66.08 99 62 C104.61 62 110.22 62 116 62 C116 65.96 116 69.92 116 74 C135.14 74 154.28 74 174 74 C174 73.34 174 72.68 174 72 C179.61 72.66 185.22 73.32 191 74 C191 74.33 191 74.66 191 75 C165.92 75 140.84 75 115 75 C115 71.04 115 67.08 115 63 C110.05 63 105.1 63 100 63 C100 66.96 100 70.92 100 75 C87.2396613 75.02312121 74.47932755 75.04091395 61.71897221 75.05181217 C55.79449285 75.05704149 49.87002778 75.06414001 43.94555664 75.07543945 C38.23327429 75.08626661 32.52100572 75.09227647 26.80871391 75.09487724 C24.62411723 75.0967318 22.43952135 75.100353 20.2549305 75.10573006 C17.20647651 75.11293821 14.15808021 75.11399104 11.10961914 75.11352539 C9.74045349 75.1189183 9.74045349 75.1189183 8.34362793 75.12442017 C2.11405216 75.11405216 2.11405216 75.11405216 1 74 C0.8388779 71.70635703 0.74794088 69.40776963 0.68359375 67.109375 C0.66276733 66.38902573 0.64194092 65.66867645 0.6204834 64.92649841 C0.55374048 62.53444814 0.49516501 60.14228527 0.4375 57.75 C0.41632111 56.93608795 0.39514221 56.1221759 0.37332153 55.28359985 C-0.10251553 36.856117 -0.10411834 18.43214966 0 0 Z " fill="#757575" transform="translate(485,344)"/>
<path d="M0 0 C4.95 0 9.9 0 15 0 C15 0.33 15 0.66 15 1 C10.71 1 6.42 1 2 1 C2 5.29 2 9.58 2 14 C3.00522705 13.98952637 4.0104541 13.97905273 5.04614258 13.96826172 C35.07874103 13.68592626 65.00094989 14.62248977 95 16 C95 16.33 95 16.66 95 17 C60.32261553 17.19612199 25.63681523 16.8068039 -9 15 C-8.67 14.34 -8.34 13.68 -8 13 C-5.36 13 -2.72 13 0 13 C0 8.71 0 4.42 0 0 Z " fill="#838383" transform="translate(729,650)"/>
<path d="M0 0 C12.87 0 25.74 0 39 0 C40.1577506 3.47325181 40.06866652 6.36067448 40 10 C39.67 10 39.34 10 39 10 C38.505 6.04 38.505 6.04 38 2 C37.26475098 2.00523682 36.52950195 2.01047363 35.77197266 2.01586914 C32.38965739 2.03685916 29.0073559 2.04972951 25.625 2.0625 C24.46871094 2.07087891 23.31242187 2.07925781 22.12109375 2.08789062 C15.33219117 2.10706832 8.7417952 1.80622221 2 1 C2.33 6.61 2.66 12.22 3 18 C13.89 18 24.78 18 36 18 C36 18.66 36 19.32 36 20 C31.03377651 20.02465098 26.06758834 20.04283649 21.10131836 20.05493164 C19.41055684 20.0599719 17.71979971 20.06680405 16.02905273 20.07543945 C13.60399293 20.08751857 11.17899056 20.09323123 8.75390625 20.09765625 C7.61327477 20.10539818 7.61327477 20.10539818 6.44960022 20.11329651 C4.6326743 20.11349238 2.81586873 20.06197277 1 20 C0.67 19.67 0.34 19.34 0 19 C0 12.73 0 6.46 0 0 Z " fill="#727272" transform="translate(390,591)"/>
<path d="M0 0 C1.00417969 0.14308594 2.00835937 0.28617188 3.04296875 0.43359375 C5.48794208 0.78287565 7.93181951 1.13842724 10.375 1.5 C10.705 0.84 11.035 0.18 11.375 -0.5 C11.375 0.82 11.375 2.14 11.375 3.5 C5.56273616 3.80590862 0.51632 3.21491366 -5.1875 2 C-16.22592218 -0.32077559 -16.22592218 -0.32077559 -26.6640625 3.1875 C-31.22246881 6.23854486 -35.01856918 8.82159723 -36.28125 14.3984375 C-36.5328612 17.11723625 -36.65954562 19.77089634 -36.625 22.5 C-36.955 22.5 -37.285 22.5 -37.625 22.5 C-37.70660748 20.60489301 -37.76446459 18.70875496 -37.8125 16.8125 C-37.84730469 15.75675781 -37.88210937 14.70101562 -37.91796875 13.61328125 C-37.48847626 9.04920771 -35.67296599 6.5180241 -32.4375 3.375 C-22.19943476 -3.45037683 -11.65004366 -1.72650847 0 0 Z " fill="#7E7E7E" transform="translate(37.625,823.5)"/>
<path d="M0 0 C0.33 0 0.66 0 1 0 C1 3.63 1 7.26 1 11 C20.14 11 39.28 11 59 11 C59 10.34 59 9.68 59 9 C64.61 9.66 70.22 10.32 76 11 C76 11.33 76 11.66 76 12 C50.92 12 25.84 12 0 12 C0 8.04 0 4.08 0 0 Z " fill="#6B6B6B" transform="translate(600,407)"/>
<path d="M0 0 C7.26 0 14.52 0 22 0 C22 3.96 22 7.92 22 12 C14.74 12 7.48 12 0 12 C0 8.04 0 4.08 0 0 Z M1 2 C1 4.97 1 7.94 1 11 C7.27 11 13.54 11 20 11 C20 8.03 20 5.06 20 2 C13.73 2 7.46 2 1 2 Z " fill="#7A7A7A" transform="translate(440,467)"/>
<path d="M0 0 C0.99 0.33 1.98 0.66 3 1 C5.69954826 7.8199114 6.077014 14.64975155 3.5 21.5625 C3.005 22.696875 2.51 23.83125 2 25 C1 23 1 23 1.4375 21.375 C2.26223069 17.89280374 2.05958164 14.57489861 2 11 C1.01 12.98 0.02 14.96 -1 17 C-1.66 17 -2.32 17 -3 17 C-2.690625 16.236875 -2.38125 15.47375 -2.0625 14.6875 C-0.66197419 9.82685159 -0.34020266 5.03141827 0 0 Z " fill="#797979" transform="translate(1305,732)"/>
<path d="M0 0 C4.95 0 9.9 0 15 0 C15 0.33 15 0.66 15 1 C10.71 1 6.42 1 2 1 C2 5.29 2 9.58 2 14 C4.97 14 7.94 14 11 14 C11 14.33 11 14.66 11 15 C4.4 15 -2.2 15 -9 15 C-8.67 14.34 -8.34 13.68 -8 13 C-5.36 13 -2.72 13 0 13 C0 8.71 0 4.42 0 0 Z " fill="#606060" transform="translate(729,650)"/>
<path d="M0 0 C2.09765625 0.4296875 2.09765625 0.4296875 4 1 C3.43410156 1.44988281 2.86820313 1.89976562 2.28515625 2.36328125 C-2.19935768 6.29609751 -4.50414782 8.91597245 -5 15 C-5.03622333 16.66627298 -5.04899842 18.33405374 -5 20 C-5.33 20 -5.66 20 -6 20 C-6.08160748 18.10489301 -6.13946459 16.20875496 -6.1875 14.3125 C-6.22230469 13.25675781 -6.25710937 12.20101562 -6.29296875 11.11328125 C-5.89383196 6.87178758 -4.09762126 4.4316799 -1.5625 1.125 C-1.046875 0.75375 -0.53125 0.3825 0 0 Z " fill="#555555" transform="translate(6,826)"/>
<path d="M0 0 C0.33 0 0.66 0 1 0 C1 3.63 1 7.26 1 11 C1.66 11.33 2.32 11.66 3 12 C2.34 13.32 1.68 14.64 1 16 C0.67 15.34 0.34 14.68 0 14 C-1.32 14.33 -2.64 14.66 -4 15 C-4 14.34 -4 13.68 -4 13 C-2.68 13 -1.36 13 0 13 C0 8.71 0 4.42 0 0 Z " fill="#777777" transform="translate(488,467)"/>
</svg>
